<svg width="18" height="19" viewBox="0 0 18 19" fill="none" xmlns="http://www.w3.org/2000/svg">
<path fill-rule="evenodd" clip-rule="evenodd" d="M1.30273 7.73086C1.30273 6.77573 2.07701 6.00145 3.03214 6.00145H3.83599C4.41422 6.00145 4.9542 5.71247 5.27494 5.23135L5.97754 4.17745C6.29829 3.69633 6.83826 3.40735 7.41649 3.40735H10.7536C11.3318 3.40735 11.8718 3.69633 12.1926 4.17745L12.8952 5.23135C13.2159 5.71247 13.7559 6.00145 14.3341 6.00145H15.138C16.0931 6.00145 16.8674 6.77573 16.8674 7.73086V13.7838C16.8674 14.7389 16.0931 15.5132 15.138 15.5132H3.03214C2.07701 15.5132 1.30273 14.7389 1.30273 13.7838V7.73086ZM12.9762 10.325C12.9762 12.474 11.2341 14.2161 9.08505 14.2161C6.93602 14.2161 5.19389 12.474 5.19389 10.325C5.19389 8.17594 6.93602 6.4338 9.08505 6.4338C11.2341 6.4338 12.9762 8.17594 12.9762 10.325ZM9.08558 12.9191C10.5183 12.9191 11.6797 11.7577 11.6797 10.325C11.6797 8.89229 10.5183 7.73087 9.08558 7.73087C7.6529 7.73087 6.49148 8.89229 6.49148 10.325C6.49148 11.7577 7.6529 12.9191 9.08558 12.9191Z" fill="#050505"/>
</svg>
