<svg width="20" height="20" viewBox="0 0 20 20" fill="none" xmlns="http://www.w3.org/2000/svg">
<path d="M9.99935 1.04171C5.05768 1.04171 1.04102 5.05837 1.04102 10C1.04102 14.9417 5.05768 18.9584 9.99935 18.9584C14.941 18.9584 18.9577 14.9417 18.9577 10C18.9577 5.05837 14.941 1.04171 9.99935 1.04171ZM9.99935 17.7084C5.74935 17.7084 2.29102 14.25 2.29102 10C2.29102 5.75004 5.74935 2.29171 9.99935 2.29171C14.2493 2.29171 17.7077 5.75004 17.7077 10C17.7077 14.25 14.2493 17.7084 9.99935 17.7084Z" fill="#475569"/>
<path d="M10 8.54171C9.65833 8.54171 9.375 8.82504 9.375 9.16671V13.3334C9.375 13.675 9.65833 13.9584 10 13.9584C10.3417 13.9584 10.625 13.675 10.625 13.3334V9.16671C10.625 8.82504 10.3417 8.54171 10 8.54171Z" fill="#475569"/>
<path d="M9.99935 5.83335C9.89102 5.83335 9.78268 5.85835 9.68268 5.90002C9.58268 5.94168 9.49102 6.00002 9.40768 6.07502C9.33268 6.15835 9.27435 6.24168 9.23268 6.35002C9.19102 6.45002 9.16602 6.55835 9.16602 6.66668C9.16602 6.77502 9.19102 6.88335 9.23268 6.98335C9.27435 7.08335 9.33268 7.17502 9.40768 7.25835C9.49102 7.33335 9.58268 7.39168 9.68268 7.43335C9.88268 7.51668 10.116 7.51668 10.316 7.43335C10.416 7.39168 10.5077 7.33335 10.591 7.25835C10.666 7.17502 10.7243 7.08335 10.766 6.98335C10.8077 6.88335 10.8327 6.77502 10.8327 6.66668C10.8327 6.55835 10.8077 6.45002 10.766 6.35002C10.7243 6.24168 10.666 6.15835 10.591 6.07502C10.5077 6.00002 10.416 5.94168 10.316 5.90002C10.216 5.85835 10.1077 5.83335 9.99935 5.83335Z" fill="#475569"/>
</svg>
