<svg width="150" height="32" viewBox="0 0 150 32" fill="none" xmlns="http://www.w3.org/2000/svg">
<path d="M50.451 25.415L51.3294 29.124L52.3326 25.415H52.9752L53.9675 29.124L54.8785 25.415H55.4641L54.2793 29.8534H53.6611L52.639 26.1362L51.6033 29.8534H50.9851L49.8437 25.415H50.4483H50.451Z" fill="white"/>
<path d="M56.4618 27.0935C56.6977 26.7356 57.0502 26.5567 57.5165 26.5567C58.2404 26.5567 58.601 26.9227 58.601 27.6548V29.8563H58.0723V27.7795C58.0723 27.5355 58.0208 27.3457 57.9205 27.2155C57.8202 27.0854 57.6358 27.0203 57.3674 27.0203C57.042 27.0203 56.8116 27.1233 56.6733 27.3321C56.535 27.5409 56.4645 27.8364 56.4645 28.2241V29.8563H55.9331V25.418H56.4645V27.0962L56.4618 27.0935Z" fill="white"/>
<path d="M60.7456 29.9621C60.2711 29.9621 59.8997 29.8157 59.634 29.5201C59.3656 29.2246 59.2327 28.8152 59.2327 28.2919C59.2327 27.7687 59.371 27.3511 59.6475 27.0285C59.9241 26.7059 60.2847 26.5459 60.7293 26.5459C61.2228 26.5459 61.5915 26.714 61.8301 27.0475C62.0687 27.381 62.188 27.8039 62.188 28.3163V28.3923H59.7696L59.7641 28.4302C59.7641 28.7718 59.8536 29.0403 60.0325 29.2355C60.2115 29.4307 60.4555 29.5283 60.7673 29.5283C61.0005 29.5283 61.1848 29.4741 61.3204 29.3656C61.456 29.2572 61.559 29.0836 61.6349 28.8423H62.1527C61.9901 29.5906 61.5237 29.9648 60.751 29.9648L60.7456 29.9621ZM61.3556 27.24C61.193 27.0665 60.9788 26.9824 60.7131 26.9824C60.4474 26.9824 60.2413 27.0692 60.0705 27.2454C59.8997 27.4216 59.7994 27.6602 59.7641 27.9612H61.6349C61.6105 27.6548 61.5156 27.4135 61.3529 27.24H61.3556Z" fill="white"/>
<path d="M64.4248 27.1129C64.3868 27.1075 64.3407 27.1075 64.2865 27.1075C64.1157 27.1075 63.9693 27.1346 63.8445 27.1861C63.7198 27.2376 63.6222 27.3054 63.549 27.3894C63.4758 27.4735 63.4162 27.5765 63.3728 27.7012C63.3267 27.8259 63.2969 27.9507 63.2833 28.0754C63.2698 28.2001 63.2616 28.3411 63.2616 28.4983V29.8567H62.7302V26.6384H63.2345V27.3298C63.446 26.8201 63.8418 26.5625 64.4248 26.5625V27.1102V27.1129Z" fill="white"/>
<path d="M66.0597 29.9621C65.5852 29.9621 65.2137 29.8157 64.9453 29.5201C64.6769 29.2246 64.5441 28.8152 64.5441 28.2919C64.5441 27.7687 64.6823 27.3511 64.9589 27.0285C65.2354 26.7059 65.596 26.5459 66.0407 26.5459C66.5368 26.5459 66.9029 26.714 67.1414 27.0475C67.38 27.381 67.4993 27.8039 67.4993 28.3163V28.3923H65.0809L65.0755 28.4302C65.0755 28.7718 65.1649 29.0403 65.3439 29.2355C65.5228 29.4307 65.7668 29.5283 66.0786 29.5283C66.3118 29.5283 66.4962 29.4741 66.6317 29.3656C66.7673 29.2572 66.8703 29.0836 66.9462 28.8423H67.4641C67.3014 29.5906 66.8351 29.9648 66.0624 29.9648L66.0597 29.9621ZM66.6697 27.24C66.507 27.0665 66.2928 26.9824 66.0271 26.9824C65.7614 26.9824 65.5554 27.0692 65.3846 27.2454C65.2137 27.4216 65.1134 27.6602 65.0782 27.9612H66.9489C66.9245 27.6548 66.8297 27.4135 66.6697 27.24Z" fill="white"/>
<path d="M73.0628 29.491C72.7239 29.8055 72.2793 29.9627 71.7262 29.9627C71.0945 29.9627 70.5929 29.754 70.2241 29.3364C69.8554 28.9189 69.6683 28.355 69.6683 27.6446C69.6683 26.9804 69.8554 26.4246 70.2269 25.9826C70.5983 25.5407 71.1134 25.3184 71.7696 25.3184C72.2386 25.3184 72.6534 25.4458 73.0113 25.6979C73.3692 25.9528 73.5671 26.3025 73.6105 26.7526H73.0249C72.9598 26.4625 72.8134 26.2348 72.5884 26.0694C72.3633 25.904 72.0868 25.8227 71.7587 25.8227C71.2653 25.8227 70.8911 25.9962 70.639 26.3459C70.3868 26.6957 70.2621 27.1268 70.2621 27.6365C70.2621 28.2004 70.395 28.6478 70.6607 28.9704C70.9264 29.2958 71.2897 29.4557 71.7533 29.4557C72.1302 29.4557 72.4338 29.3473 72.6561 29.1277C72.8785 28.9081 73.0167 28.5936 73.0601 28.176H73.6457C73.5969 28.7372 73.4017 29.1738 73.0628 29.4883V29.491Z" fill="white"/>
<path d="M77.1459 29.843C77.0375 29.8837 76.9182 29.9054 76.7853 29.9054C76.4817 29.9054 76.3271 29.7481 76.319 29.4309C76.0154 29.7725 75.6276 29.9406 75.1532 29.9406C74.836 29.9406 74.5865 29.8593 74.4022 29.6966C74.2178 29.5339 74.1256 29.3116 74.1256 29.0296C74.1256 28.4548 74.5052 28.1214 75.267 28.0265C75.3158 28.0183 75.3891 28.0102 75.484 28.0021C75.8445 27.9614 76.0669 27.9126 76.1509 27.8584C76.2458 27.7906 76.2946 27.6767 76.2946 27.5167C76.2946 27.1643 76.0506 26.9881 75.5653 26.9881C75.3158 26.9881 75.1261 27.0396 74.9986 27.1399C74.8712 27.2429 74.7926 27.4083 74.7682 27.6415H74.2503C74.2585 27.2971 74.3805 27.0287 74.6191 26.8362C74.8577 26.6437 75.183 26.5488 75.5978 26.5488C76.0506 26.5488 76.3868 26.6519 76.6064 26.8606C76.6769 26.9284 76.7284 27.0152 76.7609 27.1236C76.7935 27.2321 76.8125 27.3188 76.8179 27.3893C76.8233 27.4571 76.8233 27.5601 76.8233 27.6984C76.8233 27.8557 76.8179 28.0942 76.8097 28.4142C76.8016 28.7341 76.7989 28.9727 76.7989 29.1299C76.7989 29.2465 76.8152 29.3279 76.845 29.3767C76.8775 29.4255 76.9345 29.4472 77.0158 29.4472C77.0483 29.4472 77.0917 29.4417 77.1459 29.4282V29.8403V29.843ZM76.1726 28.2596C76.1319 28.2813 76.0777 28.2976 76.0126 28.3084C75.9476 28.3193 75.9042 28.3301 75.8825 28.3355C75.8608 28.341 75.8039 28.3491 75.7171 28.3599C75.6304 28.3708 75.5843 28.3762 75.5788 28.3762C75.4514 28.3925 75.3647 28.4033 75.3267 28.4115C75.2887 28.4169 75.2128 28.4359 75.1017 28.4657C74.9905 28.4955 74.9146 28.528 74.8685 28.566C74.8224 28.604 74.779 28.6582 74.7356 28.7314C74.6923 28.8046 74.6706 28.8913 74.6706 28.989C74.6706 29.1543 74.7275 29.2872 74.8414 29.3821C74.9553 29.477 75.1125 29.5258 75.3131 29.5258C75.568 29.5258 75.793 29.4499 75.9937 29.3007C76.1943 29.1516 76.2919 28.9754 76.2919 28.7693V28.1837C76.2539 28.2135 76.216 28.2379 76.1726 28.2596Z" fill="white"/>
<path d="M79.3204 27.1129C79.2824 27.1075 79.2363 27.1075 79.1821 27.1075C79.0113 27.1075 78.8649 27.1346 78.7402 27.1861C78.6155 27.2376 78.5179 27.3054 78.4446 27.3894C78.3714 27.4735 78.3118 27.5765 78.2684 27.7012C78.2223 27.8259 78.1925 27.9507 78.179 28.0754C78.1654 28.2001 78.1573 28.3411 78.1573 28.4983V29.8567H77.6259V26.6384H78.1302V27.3298C78.3416 26.8201 78.7375 26.5625 79.3204 26.5625V27.1102V27.1129Z" fill="white"/>
<path d="M80.9553 29.9621C80.4808 29.9621 80.1094 29.8157 79.841 29.5201C79.5726 29.2246 79.4397 28.8152 79.4397 28.2919C79.4397 27.7687 79.578 27.3511 79.8545 27.0285C80.1311 26.7059 80.4917 26.5459 80.9363 26.5459C81.4325 26.5459 81.7985 26.714 82.0371 27.0475C82.2757 27.381 82.395 27.8039 82.395 28.3163V28.3923H79.9765L79.9711 28.4302C79.9711 28.7718 80.0606 29.0403 80.2395 29.2355C80.4185 29.4307 80.6625 29.5283 80.9743 29.5283C81.2074 29.5283 81.3918 29.4741 81.5274 29.3656C81.6629 29.2572 81.7659 29.0836 81.8419 28.8423H82.3597C82.197 29.5906 81.7307 29.9648 80.958 29.9648L80.9553 29.9621ZM81.568 27.24C81.4054 27.0665 81.1912 26.9824 80.9255 26.9824C80.6598 26.9824 80.4537 27.0692 80.2829 27.2454C80.1121 27.4216 80.0118 27.6602 79.9765 27.9612H81.8473C81.8229 27.6548 81.728 27.4135 81.568 27.24Z" fill="white"/>
<path d="M84.3037 29.9621C83.8292 29.9621 83.4577 29.8157 83.192 29.5201C82.9236 29.2246 82.7908 28.8152 82.7908 28.2919C82.7908 27.7687 82.9291 27.3511 83.2056 27.0285C83.4821 26.7059 83.8427 26.5459 84.2874 26.5459C84.7808 26.5459 85.1496 26.714 85.3882 27.0475C85.6267 27.381 85.746 27.8039 85.746 28.3163V28.3923H83.3276L83.3222 28.4302C83.3222 28.7718 83.4117 29.0403 83.5906 29.2355C83.7695 29.4307 84.0135 29.5283 84.3253 29.5283C84.5585 29.5283 84.7429 29.4741 84.8784 29.3656C85.014 29.2572 85.117 29.0836 85.1929 28.8423H85.7108C85.5481 29.5906 85.0818 29.9648 84.3091 29.9648L84.3037 29.9621ZM84.9164 27.24C84.7537 27.0665 84.5395 26.9824 84.2738 26.9824C84.0081 26.9824 83.8021 27.0692 83.6313 27.2454C83.4605 27.4216 83.3601 27.6602 83.3249 27.9612H85.1957C85.1713 27.6548 85.0764 27.4135 84.9137 27.24H84.9164Z" fill="white"/>
<path d="M87.9828 27.1129C87.9449 27.1075 87.8988 27.1075 87.8446 27.1075C87.6737 27.1075 87.5273 27.1346 87.4026 27.1861C87.2779 27.2376 87.1803 27.3054 87.1071 27.3894C87.0339 27.4735 86.9742 27.5765 86.9309 27.7012C86.8848 27.8259 86.8549 27.9507 86.8414 28.0754C86.8278 28.2001 86.8197 28.3411 86.8197 28.4983V29.8567H86.2883V26.6384H86.7926V27.3298C87.0041 26.8201 87.3999 26.5625 87.9828 26.5625V27.1102V27.1129Z" fill="white"/>
<path d="M90.2413 27.5737C90.2088 27.1833 89.9458 26.9881 89.455 26.9881C89.2517 26.9881 89.0917 27.026 88.9752 27.1073C88.8586 27.186 88.8016 27.2917 88.8016 27.4246C88.8016 27.4625 88.8071 27.4978 88.8152 27.533C88.8233 27.5683 88.8396 27.6008 88.8613 27.6252C88.883 27.6496 88.9047 27.6767 88.9236 27.6957C88.9426 27.7174 88.9724 27.7364 89.0158 27.7553C89.0592 27.7743 89.0917 27.7906 89.1161 27.8014C89.1378 27.815 89.1812 27.8285 89.2409 27.8421C89.3005 27.8557 89.3439 27.8665 89.3683 27.8746C89.3927 27.8801 89.4415 27.8936 89.5147 27.9099C89.5879 27.9261 89.634 27.937 89.6557 27.9424C89.8102 27.9749 89.9241 28.0021 90.0027 28.0237C90.0813 28.0454 90.1871 28.0834 90.3199 28.1403C90.4528 28.1973 90.5585 28.2542 90.629 28.3139C90.6995 28.3735 90.7619 28.4575 90.8188 28.5633C90.8757 28.669 90.9029 28.7883 90.9029 28.9212C90.9029 29.233 90.7808 29.4824 90.5368 29.6722C90.2928 29.862 89.9702 29.9569 89.5662 29.9569C89.1297 29.9569 88.7935 29.862 88.5603 29.6695C88.3245 29.477 88.1997 29.2031 88.1835 28.8398H88.7067C88.7366 29.2926 89.0267 29.5204 89.5798 29.5204C89.8156 29.5204 90.0054 29.4716 90.1491 29.374C90.2928 29.2763 90.3633 29.1462 90.3633 28.9835C90.3633 28.8751 90.3254 28.7856 90.2522 28.7151C90.1762 28.6446 90.0949 28.5931 90.0027 28.5633C89.9105 28.5335 89.7804 28.4955 89.6096 28.4548C89.5852 28.4521 89.5662 28.4467 89.5527 28.4413C89.5147 28.4331 89.4361 28.4142 89.3114 28.3871C89.1893 28.3599 89.0999 28.3383 89.0456 28.322C88.9914 28.3057 88.9128 28.2786 88.8125 28.2434C88.7095 28.2081 88.6335 28.1702 88.5847 28.1322C88.5359 28.0915 88.479 28.0427 88.4193 27.9831C88.3597 27.9234 88.3163 27.8529 88.2919 27.7716C88.2675 27.6903 88.254 27.5981 88.254 27.4951C88.254 27.205 88.3651 26.9745 88.5874 26.8037C88.8098 26.6329 89.108 26.5488 89.4822 26.5488C89.8563 26.5488 90.1681 26.6383 90.4094 26.8172C90.648 26.9962 90.7673 27.2483 90.7673 27.5791H90.2386L90.2413 27.5737Z" fill="white"/>
<path d="M94.1455 25.415L95.5743 29.1755L96.9516 25.415H97.7677V29.8534H97.2119V26.1498L95.8211 29.8534H95.3113L93.8961 26.1498V29.8534H93.3348V25.415H94.1455Z" fill="white"/>
<path d="M100.013 29.9621C99.5382 29.9621 99.1667 29.8157 98.8983 29.5201C98.6299 29.2246 98.4971 28.8152 98.4971 28.2919C98.4971 27.7687 98.6353 27.3511 98.9119 27.0285C99.1884 26.7059 99.549 26.5459 99.9937 26.5459C100.49 26.5459 100.856 26.714 101.094 27.0475C101.333 27.381 101.452 27.8039 101.452 28.3163V28.3923H99.0339L99.0285 28.4302C99.0285 28.7718 99.1179 29.0403 99.2969 29.2355C99.4758 29.4307 99.7198 29.5283 100.032 29.5283C100.265 29.5283 100.449 29.4741 100.585 29.3656C100.72 29.2572 100.823 29.0836 100.899 28.8423H101.417C101.254 29.5906 100.788 29.9648 100.015 29.9648L100.013 29.9621ZM100.623 27.24C100.46 27.0665 100.246 26.9824 99.9801 26.9824C99.7144 26.9824 99.5084 27.0692 99.3376 27.2454C99.1668 27.4216 99.0664 27.6602 99.0312 27.9612H100.902C100.878 27.6548 100.783 27.4135 100.623 27.24Z" fill="white"/>
<path d="M103.361 29.9621C102.887 29.9621 102.515 29.8157 102.249 29.5201C101.981 29.2246 101.848 28.8152 101.848 28.2919C101.848 27.7687 101.986 27.3511 102.263 27.0285C102.54 26.7059 102.9 26.5459 103.345 26.5459C103.838 26.5459 104.207 26.714 104.446 27.0475C104.684 27.381 104.803 27.8039 104.803 28.3163V28.3923H102.385L102.38 28.4302C102.38 28.7718 102.469 29.0403 102.648 29.2355C102.827 29.4307 103.071 29.5283 103.383 29.5283C103.616 29.5283 103.8 29.4741 103.936 29.3656C104.071 29.2572 104.174 29.0836 104.25 28.8423H104.768C104.606 29.5906 104.139 29.9648 103.366 29.9648L103.361 29.9621ZM103.971 27.24C103.808 27.0665 103.594 26.9824 103.329 26.9824C103.063 26.9824 102.857 27.0692 102.686 27.2454C102.515 27.4216 102.415 27.6602 102.38 27.9612H104.25C104.226 27.6548 104.131 27.4135 103.968 27.24H103.971Z" fill="white"/>
<path d="M106.742 27.0752H106.099V28.9514C106.099 29.0544 106.099 29.1249 106.102 29.1575C106.105 29.19 106.116 29.2361 106.137 29.2903C106.159 29.3473 106.194 29.3825 106.243 29.3988C106.292 29.415 106.362 29.4232 106.455 29.4232C106.533 29.4232 106.628 29.4177 106.742 29.4042V29.8597C106.593 29.8759 106.457 29.8841 106.335 29.8841C106.186 29.8841 106.061 29.8678 105.961 29.8353C105.861 29.8027 105.785 29.7648 105.733 29.7241C105.682 29.6834 105.644 29.6102 105.617 29.5018C105.592 29.3961 105.579 29.3066 105.573 29.2334C105.568 29.1602 105.568 29.0382 105.568 28.8674V27.0725H105.026V26.636H105.568V25.6816H106.099V26.636H106.742V27.0725V27.0752Z" fill="white"/>
<path d="M111.007 25.415C111.46 25.415 111.82 25.5181 112.086 25.7241C112.352 25.9302 112.484 26.2528 112.484 26.6948C112.484 27.5895 111.98 28.0368 110.969 28.0368H109.765V29.8561H109.179V25.4178H111.007V25.415ZM109.765 27.5434H110.893C111.21 27.5434 111.454 27.4837 111.63 27.3644C111.807 27.2451 111.896 27.0364 111.896 26.7327C111.896 26.5619 111.869 26.4209 111.812 26.3098C111.755 26.1986 111.674 26.1145 111.565 26.0603C111.457 26.0061 111.346 25.9708 111.229 25.9519C111.113 25.9329 110.974 25.9248 110.812 25.9248H109.765V27.5461V27.5434Z" fill="white"/>
<path d="M115.77 29.8569H115.277V29.3526C115.003 29.7485 114.632 29.9437 114.168 29.9437C113.826 29.9437 113.564 29.8515 113.376 29.6644C113.189 29.4774 113.094 29.2062 113.094 28.8538V26.6414H113.626V28.7101C113.626 28.9649 113.675 29.1547 113.772 29.2876C113.87 29.4177 114.046 29.4828 114.298 29.4828C114.925 29.4828 115.239 29.0951 115.239 28.3224V26.6387H115.77V29.8569Z" fill="white"/>
<path d="M118.246 27.1129C118.208 27.1075 118.162 27.1075 118.108 27.1075C117.937 27.1075 117.79 27.1346 117.666 27.1861C117.541 27.2376 117.443 27.3054 117.37 27.3894C117.297 27.4735 117.237 27.5765 117.194 27.7012C117.148 27.8259 117.118 27.9507 117.104 28.0754C117.091 28.2001 117.083 28.3411 117.083 28.4983V29.8567H116.551V26.6384H117.056V27.3298C117.267 26.8201 117.663 26.5625 118.246 26.5625V27.1102V27.1129Z" fill="white"/>
<path d="M119.143 27.0939C119.376 26.7225 119.737 26.5381 120.228 26.5381C120.678 26.5381 121.033 26.6899 121.296 26.9936C121.559 27.2972 121.692 27.7093 121.692 28.2272C121.692 28.745 121.562 29.1626 121.301 29.4717C121.041 29.7807 120.691 29.9353 120.249 29.9353C119.807 29.9353 119.428 29.7591 119.17 29.4066V31.0957H118.642V26.6384H119.141V27.0939H119.143ZM119.423 27.3162C119.246 27.5385 119.157 27.8449 119.157 28.2353C119.157 28.6258 119.246 28.9321 119.428 29.1544C119.61 29.3768 119.856 29.4879 120.165 29.4879C120.474 29.4879 120.708 29.3768 120.881 29.1517C121.055 28.9267 121.144 28.6203 121.144 28.2353C121.144 27.8503 121.055 27.5385 120.878 27.3162C120.702 27.0939 120.458 26.9827 120.146 26.9827C119.835 26.9827 119.596 27.0939 119.42 27.3162H119.423Z" fill="white"/>
<path d="M124.886 26.9878C125.157 27.2834 125.292 27.6955 125.292 28.2296C125.292 28.7637 125.157 29.1975 124.886 29.5012C124.615 29.8048 124.235 29.9567 123.744 29.9567C123.254 29.9567 122.869 29.8075 122.592 29.5066C122.315 29.2056 122.174 28.7908 122.174 28.2594C122.174 27.728 122.315 27.3132 122.597 27.0068C122.879 26.7004 123.264 26.5459 123.752 26.5459C124.24 26.5459 124.617 26.6923 124.886 26.9878ZM122.999 27.3295C122.817 27.5572 122.725 27.8636 122.725 28.2459C122.725 28.6281 122.814 28.9481 122.996 29.1704C123.178 29.3927 123.43 29.5039 123.752 29.5039C124.075 29.5039 124.308 29.3927 124.484 29.1677C124.661 28.9426 124.75 28.6336 124.75 28.2377C124.75 27.8419 124.661 27.5518 124.479 27.324C124.297 27.0963 124.053 26.9851 123.742 26.9851C123.43 26.9851 123.183 27.099 122.999 27.3267V27.3295Z" fill="white"/>
<path d="M127.779 27.5737C127.746 27.1833 127.483 26.9881 126.992 26.9881C126.789 26.9881 126.629 27.026 126.512 27.1073C126.396 27.186 126.339 27.2917 126.339 27.4246C126.339 27.4625 126.342 27.4978 126.35 27.533C126.358 27.5683 126.374 27.6008 126.396 27.6252C126.42 27.6523 126.439 27.6767 126.458 27.6957C126.477 27.7147 126.507 27.7364 126.553 27.7553C126.596 27.7743 126.629 27.7906 126.653 27.8014C126.678 27.8123 126.718 27.8285 126.778 27.8421C126.838 27.8557 126.881 27.8665 126.906 27.8746C126.93 27.8828 126.979 27.8936 127.052 27.9099C127.125 27.9261 127.171 27.937 127.193 27.9424C127.347 27.9749 127.461 28.0021 127.54 28.0237C127.619 28.0454 127.722 28.0834 127.857 28.1403C127.993 28.1973 128.096 28.2542 128.166 28.3139C128.237 28.3735 128.299 28.4575 128.356 28.5633C128.413 28.669 128.44 28.7883 128.44 28.9212C128.44 29.233 128.318 29.4824 128.074 29.6722C127.83 29.862 127.507 29.9569 127.106 29.9569C126.67 29.9569 126.333 29.862 126.1 29.6695C125.864 29.477 125.74 29.2031 125.723 28.8398H126.247C126.277 29.2926 126.567 29.5204 127.12 29.5204C127.358 29.5204 127.548 29.4716 127.692 29.374C127.836 29.2763 127.906 29.1462 127.906 28.9835C127.906 28.8751 127.868 28.7856 127.795 28.7151C127.722 28.6446 127.638 28.5931 127.545 28.5633C127.453 28.5335 127.323 28.4955 127.152 28.4548C127.128 28.4521 127.109 28.4467 127.095 28.4413C127.057 28.4331 126.979 28.4142 126.857 28.3871C126.735 28.3599 126.645 28.3383 126.591 28.322C126.537 28.3057 126.458 28.2786 126.358 28.2434C126.258 28.2081 126.179 28.1702 126.13 28.1322C126.081 28.0915 126.024 28.0427 125.965 27.9831C125.905 27.9234 125.862 27.8529 125.837 27.7716C125.813 27.6903 125.799 27.5981 125.799 27.4951C125.799 27.205 125.911 26.9745 126.133 26.8037C126.355 26.6329 126.653 26.5488 127.028 26.5488C127.402 26.5488 127.714 26.6383 127.952 26.8172C128.191 26.9962 128.31 27.2483 128.31 27.5791H127.779V27.5737Z" fill="white"/>
<path d="M130.387 29.9621C129.912 29.9621 129.541 29.8157 129.272 29.5201C129.004 29.2246 128.871 28.8152 128.871 28.2919C128.871 27.7687 129.009 27.3511 129.286 27.0285C129.563 26.7059 129.923 26.5459 130.368 26.5459C130.864 26.5459 131.23 26.714 131.469 27.0475C131.707 27.381 131.826 27.8039 131.826 28.3163V28.3923H129.408L129.403 28.4302C129.403 28.7718 129.492 29.0403 129.671 29.2355C129.85 29.4307 130.094 29.5283 130.406 29.5283C130.639 29.5283 130.823 29.4741 130.959 29.3656C131.094 29.2572 131.197 29.0836 131.273 28.8423H131.791C131.629 29.5906 131.162 29.9648 130.39 29.9648L130.387 29.9621ZM130.997 27.24C130.834 27.0665 130.62 26.9824 130.354 26.9824C130.089 26.9824 129.883 27.0692 129.712 27.2454C129.541 27.4216 129.441 27.6602 129.405 27.9612H131.276C131.252 27.6548 131.157 27.4135 130.997 27.24Z" fill="white"/>
<path d="M56.6462 9.95838C55.9928 10.5874 55.0954 10.9019 53.9566 10.9019C52.723 10.9019 51.728 10.4925 50.9742 9.67641C50.2205 8.86033 49.8437 7.77854 49.8437 6.43105C49.8437 5.15676 50.2232 4.09666 50.9851 3.25346C51.747 2.40755 52.761 1.9873 54.0271 1.9873C55.0384 1.9873 55.887 2.2747 56.573 2.84677C57.2589 3.42156 57.6358 4.14817 57.709 5.03475H55.8816C55.7867 4.56571 55.5725 4.19969 55.2418 3.94212C54.911 3.68455 54.4935 3.55441 53.9919 3.55441C53.4903 3.55441 53.0375 3.70082 52.6823 3.99092C52.3272 4.28102 52.0777 4.63891 51.934 5.06186C51.7903 5.48482 51.7198 5.94573 51.7198 6.44731C51.7198 7.32305 51.9232 8.02255 52.3299 8.54582C52.7366 9.06909 53.2815 9.32937 53.9675 9.32937C55.1062 9.32937 55.7569 8.69223 55.9169 7.41794H57.7687C57.6738 8.48618 57.2996 9.3348 56.6462 9.96381V9.95838Z" fill="white"/>
<path d="M65.8915 3.22342C66.6615 4.04764 67.0438 5.12672 67.0438 6.45523C67.0438 7.78374 66.6588 8.86011 65.8915 9.6762C65.1215 10.4923 64.113 10.9017 62.8631 10.9017C61.6132 10.9017 60.5883 10.4923 59.8156 9.6762C59.0429 8.86011 58.6552 7.78645 58.6552 6.45523C58.6552 5.124 59.0402 4.02595 59.8075 3.20986C60.5775 2.39377 61.5996 1.98438 62.8739 1.98438C64.1482 1.98438 65.1215 2.39649 65.8915 3.22071V3.22342ZM61.1713 4.30521C60.7537 4.83119 60.545 5.53611 60.545 6.41998C60.545 7.30385 60.751 8.05216 61.1658 8.57001C61.5807 9.08785 62.15 9.35085 62.8739 9.35898C63.5843 9.35898 64.1401 9.09599 64.5468 8.57001C64.9535 8.04402 65.1568 7.32825 65.1568 6.41998C65.1568 5.51171 64.9507 4.82034 64.5359 4.29978C64.1211 3.77922 63.5599 3.51623 62.8495 3.51623C62.1392 3.51623 61.5888 3.77922 61.1713 4.30521Z" fill="white"/>
<path d="M72.6263 2.19043C73.4695 2.19043 74.1609 2.38835 74.695 2.7869C75.2291 3.18546 75.4948 3.79007 75.4948 4.60344C75.4948 5.09689 75.3755 5.53069 75.1369 5.89942C74.8983 6.27086 74.5676 6.53385 74.1446 6.69382C74.8767 6.84565 75.2969 7.50719 75.3999 8.67845C75.3999 8.71912 75.4081 8.84113 75.4243 9.0499C75.4406 9.25866 75.4569 9.42134 75.4731 9.54606C75.4894 9.67077 75.5084 9.81989 75.5328 9.99341C75.5572 10.1696 75.5924 10.3161 75.6412 10.4353C75.69 10.5546 75.7443 10.6414 75.8093 10.6983H73.8735C73.8111 10.5709 73.7623 10.4082 73.7298 10.213C73.6973 10.0178 73.6701 9.76567 73.6457 9.4593C73.6213 9.15292 73.6105 8.98212 73.6105 8.95229C73.5481 8.35582 73.3963 7.94099 73.1631 7.71054C72.9273 7.48008 72.5124 7.3635 71.9133 7.3635H70.2513V10.6983H68.3995V2.19043H72.629H72.6263ZM70.2486 6.01601H72.0163C72.5341 6.01601 72.9381 5.93467 73.2282 5.77199C73.5183 5.60932 73.6647 5.28668 73.6647 4.8095C73.6647 4.36214 73.5237 4.06119 73.2418 3.90123C72.9598 3.74127 72.5775 3.66264 72.1003 3.66264H70.2486V6.01601Z" fill="white"/>
<path d="M80.6326 2.19043C81.5897 2.19043 82.3488 2.41817 82.9101 2.87638C83.4713 3.33458 83.7533 4.01781 83.7533 4.92608C83.7533 5.83435 83.474 6.49319 82.9155 6.95139C82.357 7.40959 81.6276 7.63733 80.7275 7.63733H78.8161V10.6956H76.9643V2.19043H80.6326ZM78.8161 6.17055H80.4781C81.4487 6.17055 81.9367 5.76386 81.9367 4.95048C81.9367 4.13711 81.4541 3.71958 80.4916 3.71958H78.8188V6.17055H78.8161Z" fill="white"/>
<path d="M91.7894 3.22342C92.5594 4.04764 92.9417 5.12672 92.9417 6.45523C92.9417 7.78374 92.5567 8.86011 91.7894 9.6762C91.0194 10.4923 90.0109 10.9017 88.761 10.9017C87.5111 10.9017 86.4862 10.4923 85.7135 9.6762C84.9408 8.86011 84.5531 7.78645 84.5531 6.45523C84.5531 5.124 84.9381 4.02595 85.7054 3.20986C86.4754 2.39377 87.4948 1.98438 88.7718 1.98438C90.0488 1.98438 91.0194 2.39649 91.7894 3.22071V3.22342ZM87.0691 4.30521C86.6516 4.83119 86.4428 5.53611 86.4428 6.41998C86.4428 7.30385 86.6489 8.05216 87.0637 8.57001C87.4785 9.08785 88.0479 9.35085 88.7718 9.35898C89.4822 9.35898 90.038 9.09599 90.4447 8.57001C90.8513 8.04402 91.0547 7.32825 91.0547 6.41998C91.0547 5.51171 90.8486 4.82034 90.4338 4.29978C90.019 3.77922 89.4578 3.51623 88.7474 3.51623C88.0371 3.51623 87.4867 3.77922 87.0691 4.30521Z" fill="white"/>
<path d="M98.5242 2.19043C99.3674 2.19043 100.059 2.38835 100.593 2.7869C101.127 3.18546 101.393 3.79007 101.393 4.60344C101.393 5.09689 101.273 5.53069 101.035 5.89942C100.796 6.27086 100.465 6.53385 100.042 6.69382C100.775 6.84565 101.195 7.50719 101.298 8.67845C101.298 8.71912 101.306 8.84113 101.322 9.0499C101.338 9.25866 101.355 9.42134 101.371 9.54606C101.387 9.67077 101.406 9.81989 101.431 9.99341C101.455 10.1696 101.49 10.3161 101.539 10.4353C101.588 10.5546 101.642 10.6414 101.707 10.6983H99.7714C99.7063 10.5709 99.6602 10.4082 99.6277 10.213C99.5951 10.0178 99.568 9.76567 99.5436 9.4593C99.5192 9.15292 99.5084 8.98212 99.5084 8.95229C99.446 8.35582 99.2942 7.94099 99.061 7.71054C98.8251 7.48008 98.4103 7.3635 97.8111 7.3635H96.1491V10.6983H94.2973V2.19043H98.5296H98.5242ZM96.1464 6.01601H97.9141C98.432 6.01601 98.836 5.93467 99.1261 5.77199C99.4162 5.60932 99.5626 5.28668 99.5626 4.8095C99.5626 4.36214 99.4216 4.06119 99.1396 3.90123C98.8577 3.74127 98.4754 3.66264 97.9982 3.66264H96.1464V6.01601Z" fill="white"/>
<path d="M110.321 10.7012H108.361L107.691 8.80056H104.524L103.83 10.7012H101.919L105.159 2.17969H107.084L110.324 10.7012H110.321ZM106.113 4.27006L104.977 7.4368H107.235L106.113 4.27006Z" fill="white"/>
<path d="M116.475 3.77922H113.919V10.6983H112.042V3.77922H109.486V2.19043H116.478V3.77922H116.475Z" fill="white"/>
<path d="M123.839 3.71958H119.309V5.57136H123.468V7.04086H119.309V9.13123H123.923V10.6956H117.457V2.19043H123.839V3.71958Z" fill="white"/>
<path d="M129.731 4.72612C129.66 3.88021 129.121 3.45996 128.117 3.45996C127.686 3.45996 127.35 3.54672 127.109 3.71753C126.868 3.88834 126.746 4.12693 126.746 4.42788C126.746 4.53091 126.762 4.62309 126.794 4.70172C126.827 4.78034 126.887 4.85626 126.973 4.92404C127.06 4.99182 127.15 5.04876 127.236 5.09214C127.323 5.13552 127.453 5.18432 127.624 5.23583C127.795 5.28735 127.949 5.33344 128.09 5.37411C128.229 5.41478 128.427 5.46629 128.681 5.52865C128.936 5.59101 129.159 5.65337 129.351 5.70759C130.189 5.94618 130.812 6.24442 131.222 6.60502C131.631 6.9629 131.837 7.47804 131.837 8.14772C131.837 8.63303 131.737 9.0587 131.539 9.42201C131.341 9.78531 131.07 10.07 130.731 10.2815C130.392 10.493 130.021 10.6475 129.62 10.7478C129.218 10.8481 128.79 10.8969 128.334 10.8969C127.179 10.8969 126.277 10.6312 125.629 10.1025C124.978 9.57384 124.65 8.82553 124.642 7.86033H126.493C126.526 8.92856 127.166 9.46268 128.418 9.46268C128.904 9.46268 129.289 9.36236 129.571 9.15902C129.853 8.95567 129.994 8.67912 129.994 8.32937C129.994 8.03385 129.864 7.81966 129.606 7.68409C129.346 7.54853 128.803 7.36145 127.974 7.12287C127.925 7.11473 127.89 7.1066 127.865 7.09846C127.841 7.09033 127.808 7.07948 127.77 7.06864C127.732 7.05779 127.695 7.04695 127.662 7.03882C127.375 6.96019 127.177 6.90054 127.066 6.8653C126.954 6.83005 126.778 6.76769 126.534 6.68093C126.29 6.59417 126.114 6.51283 126.003 6.44234C125.892 6.37185 125.753 6.27153 125.591 6.1441C125.428 6.01667 125.309 5.88382 125.238 5.74284C125.168 5.60456 125.1 5.43104 125.04 5.2277C124.981 5.02436 124.951 4.80474 124.951 4.56344C124.951 3.79074 125.249 3.17257 125.848 2.71166C126.445 2.25075 127.239 2.01758 128.226 2.01758C129.213 2.01758 129.964 2.24261 130.568 2.69268C131.173 3.14275 131.485 3.82327 131.501 4.73154H129.733L129.731 4.72612Z" fill="white"/>
<path d="M139.117 10.0099C138.751 10.281 138.347 10.4817 137.911 10.6172C137.474 10.7528 137.005 10.8206 136.503 10.8206C135.522 10.8206 134.722 10.5413 134.107 9.9828C133.491 9.42428 133.182 8.70309 133.182 7.82465C133.182 6.9462 133.475 6.26025 134.061 5.70174C134.646 5.14593 135.53 4.73924 136.709 4.48167C136.688 4.27833 136.674 4.12921 136.666 4.0316C136.661 3.934 136.655 3.84453 136.655 3.76048C136.655 2.85492 136.894 2.13102 137.368 1.58877C137.843 1.04652 138.474 0.775391 139.261 0.775391C139.8 0.775391 140.221 0.894686 140.521 1.13599C140.822 1.37729 140.972 1.71077 140.972 2.13373C140.972 2.67327 140.679 3.14502 140.093 3.549C139.507 3.95298 138.534 4.34611 137.173 4.72568C137.287 5.59328 137.512 6.42022 137.845 7.2119C138.179 8.00359 138.624 8.76816 139.182 9.50562C139.426 9.2589 139.613 9.01217 139.746 8.76816C139.879 8.52415 139.944 8.29911 139.944 8.09306C139.939 7.99274 139.925 7.90869 139.901 7.84091C139.876 7.77584 139.849 7.7406 139.817 7.7406C139.811 7.7406 139.798 7.74873 139.776 7.76771C139.648 7.87345 139.513 7.92767 139.372 7.92767C139.217 7.92767 139.093 7.87887 138.998 7.78126C138.903 7.68366 138.854 7.55623 138.854 7.39627C138.854 7.22817 138.911 7.0899 139.022 6.98416C139.133 6.87842 139.285 6.82419 139.478 6.82419C139.724 6.82419 139.933 6.93264 140.099 7.14954C140.264 7.36644 140.348 7.64299 140.348 7.97919C140.348 8.31538 140.267 8.61091 140.107 8.90643C139.944 9.20196 139.7 9.49749 139.375 9.78759L139.686 10.1916L139.692 10.197C139.792 10.3461 139.844 10.4546 139.844 10.5142C139.844 10.5495 139.838 10.5766 139.825 10.5983C139.811 10.6199 139.792 10.6281 139.765 10.6281C139.686 10.6281 139.605 10.582 139.526 10.4898C139.507 10.4681 139.497 10.4546 139.494 10.4491L139.117 10.0045V10.0099ZM138.925 9.70625C138.344 8.91999 137.881 8.12831 137.528 7.3312C137.176 6.53409 136.921 5.70174 136.761 4.83142C135.858 5.12695 135.172 5.55262 134.703 6.10842C134.231 6.66423 133.998 7.32577 133.998 8.09577C133.998 8.80883 134.24 9.37548 134.725 9.79572C135.21 10.2187 135.861 10.4302 136.685 10.4302C137.105 10.4302 137.498 10.3705 137.864 10.2539C138.23 10.1373 138.586 9.95569 138.925 9.70625ZM137.146 4.38136C138.155 4.12379 138.922 3.79301 139.451 3.38633C139.979 2.97964 140.242 2.51873 140.242 2.0063C140.242 1.73517 140.153 1.51556 139.974 1.34204C139.795 1.16852 139.567 1.08447 139.288 1.08447C138.987 1.08447 138.689 1.19563 138.396 1.41796C138.103 1.64028 137.832 1.96021 137.591 2.37503C137.431 2.65429 137.314 2.92812 137.235 3.19654C137.157 3.46495 137.119 3.73879 137.119 4.01262C137.119 4.06143 137.119 4.10752 137.122 4.15632C137.122 4.20241 137.132 4.27562 137.146 4.37864V4.38136Z" fill="white"/>
<path d="M53.8482 12.106C54.8053 12.106 55.5644 12.3338 56.1256 12.792C56.6869 13.2502 56.9688 13.9334 56.9688 14.8417C56.9688 15.7499 56.6896 16.4088 56.1311 16.867C55.5725 17.3252 54.8432 17.5529 53.9431 17.5529H52.0317V20.6112H50.1799V12.1006H53.8482V12.106ZM52.0317 16.0861H53.6937C54.6643 16.0861 55.1523 15.6794 55.1523 14.8661C55.1523 14.0527 54.6697 13.6352 53.7072 13.6352H52.0344V16.0861H52.0317Z" fill="white"/>
<path d="M62.4428 12.1062C63.286 12.1062 63.9774 12.3041 64.5115 12.7027C65.0456 13.1013 65.3113 13.7059 65.3113 14.5192C65.3113 15.0127 65.1921 15.4465 64.9535 15.8152C64.7149 16.1867 64.3841 16.4497 63.9611 16.6096C64.6932 16.7614 65.1134 17.423 65.2165 18.5943C65.2165 18.6349 65.2246 18.7569 65.2409 18.9657C65.2571 19.1745 65.2734 19.3371 65.2897 19.4619C65.3059 19.5866 65.3249 19.7357 65.3493 19.9092C65.3737 20.0854 65.409 20.2318 65.4578 20.3511C65.5066 20.4704 65.5608 20.5572 65.6259 20.6141H63.69C63.6277 20.4867 63.5789 20.324 63.5463 20.1288C63.5138 19.9336 63.4867 19.6815 63.4623 19.3751C63.4379 19.0687 63.427 18.8979 63.427 18.8681C63.3647 18.2716 63.2128 17.8568 62.9797 17.6263C62.7438 17.3959 62.329 17.2793 61.7298 17.2793H60.0678V20.6141H58.216V12.1035H62.4456L62.4428 12.1062ZM60.0651 15.9291H61.8328C62.3507 15.9291 62.7546 15.8478 63.0447 15.6851C63.3348 15.5224 63.4813 15.1998 63.4813 14.7226C63.4813 14.2752 63.3403 13.9743 63.0583 13.8143C62.7763 13.6544 62.394 13.5757 61.9169 13.5757H60.0651V15.9291Z" fill="white"/>
<path d="M73.6349 13.1394C74.4049 13.9637 74.7872 15.0427 74.7872 16.3712C74.7872 17.6998 74.4022 18.7761 73.6349 19.5922C72.8649 20.4083 71.8563 20.8177 70.6064 20.8177C69.3565 20.8177 68.3317 20.4083 67.559 19.5922C66.7863 18.7761 66.3986 17.7025 66.3986 16.3712C66.3986 15.04 66.7836 13.942 67.5508 13.1259C68.3208 12.3098 69.3403 11.9004 70.6173 11.9004C71.8943 11.9004 72.8649 12.3125 73.6349 13.1367V13.1394ZM68.9146 14.2212C68.4971 14.7472 68.2883 15.4521 68.2883 16.336C68.2883 17.2199 68.4944 17.9682 68.9092 18.486C69.324 19.0039 69.8934 19.2669 70.6173 19.275C71.3276 19.275 71.8834 19.012 72.2901 18.486C72.6968 17.96 72.9001 17.2443 72.9001 16.336C72.9001 15.4277 72.6941 14.7364 72.2793 14.2158C71.8644 13.6952 71.3032 13.4322 70.5929 13.4322C69.8825 13.4322 69.3321 13.6952 68.9146 14.2212Z" fill="white"/>
<path d="M82.0669 13.6706H77.9322V15.6417H81.5301V17.1248H77.9322V20.6141H76.0669V12.1035H82.0669V13.6679V13.6706Z" fill="white"/>
<path d="M89.5364 13.6352H85.0059V15.4869H89.165V16.9564H85.0059V19.0468H89.6204V20.6112H83.1541V12.1006H89.5364V13.6297V13.6352Z" fill="white"/>
<path d="M95.4279 14.6382C95.3575 13.7923 94.8179 13.3721 93.8147 13.3721C93.3837 13.3721 93.0475 13.4588 92.8062 13.6296C92.5621 13.8005 92.4429 14.039 92.4429 14.34C92.4429 14.443 92.4591 14.5352 92.4917 14.6138C92.5242 14.6925 92.5838 14.7684 92.6706 14.8361C92.7574 14.9039 92.8468 14.9609 92.9336 15.0042C93.0203 15.0476 93.1505 15.0964 93.3213 15.1479C93.4921 15.1995 93.6494 15.2455 93.7876 15.2862C93.9259 15.3269 94.1238 15.3784 94.3787 15.4408C94.6335 15.5031 94.8559 15.5655 95.0484 15.6197C95.8861 15.8583 96.5097 16.1565 96.9191 16.5171C97.3285 16.875 97.5346 17.3901 97.5346 18.0598C97.5346 18.5451 97.4343 18.9708 97.2364 19.3341C97.0384 19.6974 96.7673 19.9821 96.4284 20.1936C96.0895 20.4051 95.718 20.5596 95.3168 20.6599C94.9155 20.7602 94.4871 20.809 94.0317 20.809C92.8767 20.809 91.9738 20.5433 91.3258 20.0146C90.6751 19.4859 90.3471 18.7376 90.3389 17.7724H92.1907C92.2232 18.8407 92.8631 19.3748 94.1157 19.3748C94.601 19.3748 94.986 19.2745 95.268 19.0711C95.55 18.8678 95.6909 18.5912 95.6909 18.2415C95.6909 17.946 95.5608 17.7318 95.3032 17.5962C95.0457 17.4606 94.5007 17.2736 93.6711 17.035C93.6222 17.0268 93.587 17.0187 93.5626 17.0106C93.5382 17.0024 93.5057 16.9916 93.4677 16.9807C93.427 16.9699 93.3918 16.9591 93.3593 16.9509C93.0719 16.8723 92.8739 16.8127 92.7628 16.7774C92.6516 16.7422 92.4754 16.6798 92.2314 16.593C91.9874 16.5063 91.8111 16.4249 91.7 16.3545C91.5888 16.284 91.4505 16.1836 91.2879 16.0562C91.1252 15.9288 91.0059 15.7959 90.9354 15.6549C90.8649 15.5167 90.7971 15.3432 90.7375 15.1398C90.6778 14.9365 90.648 14.7169 90.648 14.4756C90.648 13.7028 90.9462 13.0847 91.5454 12.6238C92.1419 12.1629 92.9363 11.9297 93.9232 11.9297C94.9101 11.9297 95.6611 12.1547 96.2657 12.6048C96.8703 13.0549 97.1821 13.7327 97.1984 14.6409H95.4307L95.4279 14.6382Z" fill="white"/>
<path d="M103.185 14.6382C103.114 13.7923 102.575 13.3721 101.572 13.3721C101.141 13.3721 100.804 13.4588 100.563 13.6296C100.319 13.8005 100.2 14.039 100.2 14.34C100.2 14.443 100.216 14.5352 100.249 14.6138C100.281 14.6925 100.341 14.7684 100.427 14.8361C100.514 14.9039 100.604 14.9609 100.69 15.0042C100.777 15.0476 100.907 15.0964 101.078 15.1479C101.249 15.1995 101.404 15.2455 101.545 15.2862C101.683 15.3269 101.881 15.3784 102.136 15.4408C102.39 15.5031 102.613 15.5655 102.805 15.6197C103.643 15.8583 104.267 16.1565 104.676 16.5171C105.085 16.875 105.291 17.3901 105.291 18.0598C105.291 18.5451 105.191 18.9708 104.993 19.3341C104.795 19.6974 104.524 19.9821 104.185 20.1936C103.846 20.4051 103.475 20.5596 103.074 20.6599C102.672 20.7602 102.244 20.809 101.789 20.809C100.634 20.809 99.7307 20.5433 99.0827 20.0146C98.432 19.4859 98.1039 18.7376 98.0958 17.7724H99.9476C99.9801 18.8407 100.62 19.3748 101.873 19.3748C102.358 19.3748 102.743 19.2745 103.025 19.0711C103.307 18.8678 103.448 18.5912 103.448 18.2415C103.448 17.946 103.318 17.7318 103.06 17.5962C102.803 17.4606 102.258 17.2736 101.428 17.035C101.379 17.0268 101.344 17.0187 101.319 17.0106C101.295 17.0024 101.263 16.9916 101.225 16.9807C101.187 16.9699 101.149 16.9591 101.116 16.9509C100.829 16.8723 100.631 16.8127 100.52 16.7774C100.408 16.7422 100.23 16.6798 99.9883 16.593C99.7442 16.5063 99.568 16.4249 99.4568 16.3545C99.3457 16.284 99.2074 16.1836 99.0447 16.0562C98.8821 15.9288 98.7628 15.7959 98.6923 15.6549C98.6191 15.5167 98.554 15.3432 98.4943 15.1398C98.4347 14.9365 98.4049 14.7169 98.4049 14.4756C98.4049 13.7028 98.7031 13.0847 99.3023 12.6238C99.9015 12.1629 100.693 11.9297 101.68 11.9297C102.667 11.9297 103.418 12.1547 104.023 12.6048C104.627 13.0549 104.939 13.7327 104.955 14.6409H103.188L103.185 14.6382Z" fill="white"/>
<path d="M108.29 20.6141H106.414V12.1035H108.29V20.6141Z" fill="white"/>
<path d="M116.803 13.1394C117.573 13.9637 117.956 15.0427 117.956 16.3712C117.956 17.6998 117.571 18.7761 116.803 19.5922C116.033 20.4083 115.025 20.8177 113.772 20.8177C112.52 20.8177 111.498 20.4083 110.725 19.5922C109.952 18.7761 109.564 17.7025 109.564 16.3712C109.564 15.04 109.949 13.942 110.717 13.1259C111.487 12.3098 112.506 11.9004 113.783 11.9004C115.06 11.9004 116.031 12.3125 116.801 13.1367L116.803 13.1394ZM112.083 14.2212C111.666 14.7472 111.457 15.4521 111.457 16.336C111.457 17.2199 111.663 17.9682 112.078 18.486C112.493 19.0039 113.062 19.2669 113.786 19.275C114.496 19.275 115.052 19.012 115.459 18.486C115.865 17.96 116.069 17.2443 116.069 16.336C116.069 15.4277 115.863 14.7364 115.448 14.2158C115.033 13.6952 114.472 13.4322 113.761 13.4322C113.051 13.4322 112.501 13.6952 112.083 14.2212Z" fill="white"/>
<path d="M119.235 12.1064H121.136L124.639 17.8082V12.1064H126.431V20.6171H124.566L121.041 14.9045V20.6171H119.235V12.1064Z" fill="white"/>
<path d="M135.563 20.6142H133.602L132.933 18.7136H129.766L129.072 20.6142H127.16L130.4 12.0928H132.325L135.565 20.6142H135.563ZM131.355 14.1859L130.219 17.3526H132.477L131.355 14.1859Z" fill="white"/>
<path d="M142.303 20.6141H136.278V12.1035H138.144V19.0118H142.303V20.6141Z" fill="white"/>
<path d="M147.896 14.6382C147.826 13.7923 147.286 13.3721 146.283 13.3721C145.852 13.3721 145.516 13.4588 145.274 13.6296C145.03 13.8005 144.911 14.039 144.911 14.34C144.911 14.443 144.927 14.5352 144.96 14.6138C144.992 14.6925 145.052 14.7684 145.139 14.8361C145.226 14.9039 145.315 14.9609 145.402 15.0042C145.488 15.0476 145.619 15.0964 145.789 15.1479C145.96 15.1995 146.115 15.2455 146.256 15.2862C146.394 15.3269 146.592 15.3784 146.847 15.4408C147.102 15.5031 147.324 15.5655 147.517 15.6197C148.354 15.8583 148.978 16.1565 149.387 16.5171C149.797 16.875 150.003 17.3901 150.003 18.0598C150.003 18.5451 149.902 18.9708 149.704 19.3341C149.507 19.6974 149.235 19.9821 148.897 20.1936C148.558 20.4051 148.186 20.5596 147.785 20.6599C147.384 20.7602 146.955 20.809 146.5 20.809C145.345 20.809 144.442 20.5433 143.794 20.0146C143.143 19.4859 142.815 18.7376 142.807 17.7724H144.659C144.691 18.8407 145.331 19.3748 146.584 19.3748C147.069 19.3748 147.454 19.2745 147.736 19.0711C148.018 18.8678 148.159 18.5912 148.159 18.2415C148.159 17.946 148.029 17.7318 147.771 17.5962C147.511 17.4606 146.969 17.2736 146.139 17.035C146.09 17.0268 146.055 17.0187 146.031 17.0106C146.006 17.0024 145.974 16.9916 145.936 16.9807C145.898 16.9699 145.86 16.9591 145.827 16.9509C145.54 16.8723 145.342 16.8127 145.231 16.7774C145.12 16.7422 144.944 16.6798 144.7 16.593C144.456 16.5063 144.279 16.4249 144.168 16.3545C144.057 16.284 143.919 16.1836 143.756 16.0562C143.593 15.9288 143.474 15.7959 143.404 15.6549C143.333 15.5167 143.265 15.3432 143.206 15.1398C143.146 14.9365 143.116 14.7169 143.116 14.4756C143.116 13.7028 143.414 13.0847 144.014 12.6238C144.61 12.1629 145.404 11.9297 146.391 11.9297C147.378 11.9297 148.129 12.1547 148.734 12.6048C149.338 13.0549 149.65 13.7327 149.667 14.6409H147.899L147.896 14.6382Z" fill="white"/>
<path d="M27.6602 21.2944C27.3538 21.1426 26.9905 21.3649 26.9905 21.7065C26.9851 23.4634 26.9661 25.1444 27.0041 26.8254C27.0285 27.9587 26.4971 28.7368 25.5346 29.1354C24.8269 29.4282 24.0597 29.58 23.2707 29.7644C22.9833 29.8322 22.7067 29.6153 22.7095 29.3197C22.7339 24.9438 22.7583 20.5678 22.7935 16.1919C22.7935 15.9858 22.845 15.7337 22.9697 15.5872C23.7587 14.641 24.5639 13.7083 25.4017 12.735C25.6457 12.4503 26.1094 12.5588 26.2015 12.9221C26.5621 14.3536 27.2752 15.5493 28.3705 16.5253C30.2061 18.1602 32.3317 18.754 34.6823 17.9243C37.0601 17.0839 38.554 15.3459 39.0041 12.8597C39.5029 10.0943 38.4076 7.91711 36.1193 6.3961C33.7741 4.83442 31.315 4.9022 28.9968 6.43948C27.9828 7.11187 27.0881 8.02014 26.2856 8.9501C23.756 11.8783 21.2725 14.8498 18.8134 17.8403C17.1541 19.8575 15.2535 21.5276 12.6751 22.1919C8.81429 23.1869 5.55807 21.9533 2.83598 19.2013C0.729334 17.0649 -0.03795 14.3997 7.50576e-06 11.4445C0.0705 6.28494 4.18076 1.56465 9.61682 0.897684C13.5644 0.41237 16.9914 1.55923 19.6322 4.66632C19.6728 4.71242 19.7081 4.76122 19.7488 4.81544C19.8816 4.99439 19.8681 5.24382 19.7135 5.4065C18.892 6.27952 18.0678 7.15254 17.2246 8.04726C17.0321 8.25331 16.6986 8.23975 16.5251 8.02014C15.6087 6.84888 14.5106 6.00568 13.1306 5.54477C9.29418 4.26506 4.99142 7.08205 4.44646 11.111C4.00724 14.3563 6.24402 17.5637 9.33756 18.0653C10.9291 18.3229 12.4365 18.0301 13.5969 16.8453C14.8522 15.5628 16.0181 14.1937 17.2002 12.8407C19.7488 9.92615 22.1753 6.89497 24.8568 4.11052C27.3159 1.55652 30.4718 0.398814 34.0479 0.878705C38.958 1.53754 42.6209 5.40921 43.3475 9.74992C43.9738 13.4833 43.0601 16.7558 40.376 19.4562C37.1143 22.7368 32.1121 23.5177 27.9584 21.4408C27.8608 21.392 27.7632 21.3432 27.6602 21.2917V21.2944Z" fill="white"/>
</svg>
