<svg width="120" height="38" viewBox="0 0 120 38" fill="none" xmlns="http://www.w3.org/2000/svg">
<g clip-path="url(#clip0_2297_33937)">
<mask id="mask0_2297_33937" style="mask-type:luminance" maskUnits="userSpaceOnUse" x="0" y="0" width="121" height="38">
<path d="M120.004 0H0.00390625V37.676H120.004V0Z" fill="white"/>
</mask>
<g mask="url(#mask0_2297_33937)">
<path d="M3.5612 4.23682C1.23384 4.23682 0.00390625 5.64342 0.00390625 8.01495V16.2745C0.00390625 18.6495 1.23384 20.0561 3.5612 20.0561C5.88856 20.0561 7.11849 18.6495 7.11849 16.2779V14.1035H4.8353V16.4546C4.8353 17.4637 4.35284 17.8612 3.62575 17.8612C2.89867 17.8612 2.41621 17.4671 2.41621 16.4546V7.86546C2.41621 6.85637 2.89867 6.43846 3.62575 6.43846C4.35284 6.43846 4.8353 6.85637 4.8353 7.86546V9.6458H7.11849V8.02175C7.11849 5.65022 5.88856 4.24361 3.5612 4.24361" fill="white"/>
<path d="M12.1054 4.23682C9.73392 4.23682 8.43604 5.64342 8.43604 8.10329V16.1862C8.43604 18.6461 9.73392 20.0527 12.1054 20.0527C14.477 20.0527 15.7749 18.6461 15.7749 16.1862V8.10329C15.7749 5.64342 14.4804 4.23682 12.1054 4.23682ZM13.3592 16.3425C13.3592 17.4399 12.8767 17.8578 12.1054 17.8578C11.3342 17.8578 10.8517 17.4399 10.8517 16.3425V7.9504C10.8517 6.85297 11.3342 6.43507 12.1054 6.43507C12.8767 6.43507 13.3592 6.85297 13.3592 7.9504V16.3425Z" fill="white"/>
<path d="M24.5858 15.2654C24.5858 13.5292 24.1917 12.3877 22.9822 12.0139V11.9697C24.0592 11.5315 24.5621 10.519 24.5621 8.93908V7.99455C24.5621 5.62302 23.485 4.45764 20.981 4.45764H17.3999V19.8352H19.8156V13.2438H20.6514C21.7488 13.2438 22.1667 13.7059 22.1667 15.1329V17.9461C22.1667 19.1998 22.2551 19.4411 22.3876 19.8352H24.8475C24.6062 19.2644 24.5824 18.714 24.5824 17.9665V15.2654H24.5858ZM22.1464 9.42154C22.1464 10.6515 21.5959 11.0456 20.6956 11.0456H19.8156V6.65249H20.913C21.7692 6.65249 22.143 7.13495 22.143 8.23578V9.42154H22.1464Z" fill="white"/>
<path d="M29.8141 4.45764H26.2568V19.8352H28.6725V13.5734H29.8141C32.2298 13.5734 33.4156 12.2348 33.4156 9.7715V8.25616C33.4156 5.7963 32.2298 4.45764 29.8141 4.45764ZM30.9999 9.92778C30.9999 11.0252 30.582 11.3786 29.8141 11.3786H28.6725V6.65589H29.8141C30.582 6.65589 30.9999 7.00924 30.9999 8.10667V9.93118V9.92778Z" fill="white"/>
<path d="M38.2275 4.23682C35.856 4.23682 34.5581 5.64342 34.5581 8.10329V16.1862C34.5581 18.6461 35.856 20.0527 38.2275 20.0527C40.599 20.0527 41.8969 18.6461 41.8969 16.1862V8.10329C41.8969 5.64342 40.599 4.23682 38.2275 4.23682ZM39.4778 16.3425C39.4778 17.4399 38.9954 17.8578 38.2275 17.8578C37.4597 17.8578 36.9738 17.4399 36.9738 16.3425V7.9504C36.9738 6.85297 37.4563 6.43507 38.2275 6.43507C38.9988 6.43507 39.4778 6.85297 39.4778 7.9504V16.3425Z" fill="white"/>
<path d="M45.9362 13.2438H46.772C47.8694 13.2438 48.2873 13.7059 48.2873 15.1329V17.9461C48.2873 19.1998 48.3757 19.4411 48.5082 19.8352H50.968C50.7268 19.2644 50.703 18.714 50.703 17.9665V15.2654C50.703 13.5292 50.3089 12.3877 49.0994 12.0139V11.9697C50.1764 11.5315 50.6792 10.519 50.6792 8.93908V7.99455C50.6792 5.62302 49.6022 4.45764 47.0982 4.45764H43.5171V19.8352H45.9328V13.2438H45.9362ZM45.9362 6.65249H47.0336C47.8898 6.65249 48.2635 7.13495 48.2635 8.23238V9.41814C48.2635 10.6481 47.7131 11.0422 46.8128 11.0422H45.9328V6.6491L45.9362 6.65249Z" fill="white"/>
<path d="M57.5123 4.45764H54.2404L51.7363 19.8352H53.9787L54.417 16.8249H57.1623V16.7808L57.6006 19.8352H60.0163L57.5123 4.45764ZM54.7024 14.7388L55.7557 7.13835H55.7999L56.8769 14.7388H54.7024Z" fill="white"/>
<path d="M62.061 19.8352H64.4767V6.65249H67.0011V4.45764H59.5332V6.65249H62.061V19.8352Z" fill="white"/>
<path d="M74.7569 17.637H70.5812V12.9143H73.8973V10.7194H70.5812V6.65589H74.7569V4.45764H68.1655V19.8352H74.7569V17.637Z" fill="white"/>
<path d="M19.9928 22.081H16.4355V37.4586H18.8512V31.1968H19.9928C22.4085 31.1968 23.5943 29.8581 23.5943 27.3949V25.8796C23.5943 23.4197 22.4085 22.0776 19.9928 22.0776M21.1786 27.5512C21.1786 28.6486 20.7607 29.002 19.9928 29.002H18.8512V24.2793H19.9928C20.7607 24.2793 21.1786 24.6292 21.1786 25.7301V27.5546V27.5512Z" fill="white"/>
<path d="M32.0956 32.8888C32.0956 31.1527 31.7015 30.0111 30.4919 29.6373V29.5932C31.569 29.1549 32.0718 28.1424 32.0718 26.5625V25.618C32.0718 23.2464 30.9948 22.0811 28.4907 22.0811H24.9097V37.4586H27.3254V30.8673H28.1612C29.2586 30.8673 29.6765 31.3293 29.6765 32.7563V35.5695C29.6765 36.8199 29.7648 37.0645 29.8974 37.4586H32.3572C32.116 36.8878 32.0922 36.3374 32.0922 35.5899V32.8888H32.0956ZM29.6595 27.045C29.6595 28.2749 29.1091 28.669 28.2087 28.669H27.3288V24.2759H28.4262C29.2824 24.2759 29.6561 24.7584 29.6561 25.8592V27.045H29.6595Z" fill="white"/>
<path d="M37.2588 21.8602C34.8872 21.8602 33.5894 23.2668 33.5894 25.7267V33.8096C33.5894 36.2695 34.8872 37.6761 37.2588 37.6761C39.6303 37.6761 40.9282 36.2695 40.9282 33.8096V25.7267C40.9282 23.2668 39.6303 21.8602 37.2588 21.8602ZM38.5091 33.9625C38.5091 35.0599 38.0266 35.4778 37.2588 35.4778C36.4909 35.4778 36.0051 35.0599 36.0051 33.9625V25.5704C36.0051 24.473 36.4875 24.0551 37.2588 24.0551C38.03 24.0551 38.5091 24.473 38.5091 25.5704V33.9625Z" fill="white"/>
<path d="M42.5527 37.4586H44.9684V30.7585H48.0874V28.5603H44.9684V24.2759H48.9436V22.0811H42.5527V37.4586Z" fill="white"/>
<path d="M50.1074 37.4586H56.6988V35.2604H52.5231V30.5377H55.8392V28.3394H52.5231V24.2759H56.6988V22.0811H50.1074V37.4586Z" fill="white"/>
<path d="M62.2555 28.8456C60.6756 27.4628 60.1694 26.6474 60.1694 25.5295C60.1694 24.4763 60.6077 24.0584 61.3789 24.0584C62.1502 24.0584 62.5885 24.4763 62.5885 25.5737V26.3654H64.8717V25.73C64.8717 23.2701 63.7063 21.8635 61.3551 21.8635C59.004 21.8635 57.7537 23.2701 57.7537 25.6858C57.7537 27.4424 58.4128 28.6961 60.4344 30.4765C62.0143 31.8593 62.5001 32.6747 62.5001 33.9488C62.5001 35.0904 62.0177 35.4879 61.2498 35.4879C60.482 35.4879 59.9995 35.0938 59.9995 33.993V32.9397H57.7163V33.8197C57.7163 36.2796 58.9021 37.6862 61.2736 37.6862C63.6451 37.6862 64.9192 36.2796 64.9192 33.7755C64.9192 31.8661 64.2805 30.6327 62.2623 28.8558" fill="white"/>
<path d="M70.4259 28.8456C68.846 27.4628 68.3398 26.6474 68.3398 25.5295C68.3398 24.4763 68.7781 24.0584 69.5493 24.0584C70.3206 24.0584 70.7589 24.4763 70.7589 25.5737V26.3654H73.0421V25.73C73.0421 23.2701 71.8767 21.8635 69.5256 21.8635C67.1744 21.8635 65.9241 23.2701 65.9241 25.6858C65.9241 27.4424 66.5832 28.6961 68.6048 30.4765C70.1847 31.8593 70.6705 32.6747 70.6705 33.9488C70.6705 35.0904 70.1881 35.4879 69.4202 35.4879C68.6524 35.4879 68.1699 35.0938 68.1699 33.993V32.9397H65.8867V33.8197C65.8867 36.2796 67.0725 37.6862 69.444 37.6862C71.8155 37.6862 73.0896 36.2796 73.0896 33.7755C73.0896 31.8661 72.4509 30.6327 70.4327 28.8558" fill="white"/>
<path d="M76.8849 22.0811H74.4692V37.4586H76.8849V22.0811Z" fill="white"/>
<path d="M82.1782 21.8602C79.8067 21.8602 78.5088 23.2668 78.5088 25.7267V33.8096C78.5088 36.2695 79.8067 37.6761 82.1782 37.6761C84.5497 37.6761 85.8476 36.2695 85.8476 33.8096V25.7267C85.8476 23.2668 84.5497 21.8602 82.1782 21.8602ZM83.4319 33.9625C83.4319 35.0599 82.9495 35.4778 82.1816 35.4778C81.4137 35.4778 80.9279 35.0599 80.9279 33.9625V25.5704C80.9279 24.473 81.4103 24.0551 82.1816 24.0551C82.9529 24.0551 83.4319 24.473 83.4319 25.5704V33.9625Z" fill="white"/>
<path d="M117.347 28.8457C115.767 27.4628 115.261 26.6474 115.261 25.5296C115.261 24.4763 115.699 24.0584 116.47 24.0584C117.242 24.0584 117.68 24.4763 117.68 25.5738V26.3654H119.963V25.7267C119.963 23.2668 118.798 21.8602 116.447 21.8602C115.628 21.8602 114.945 22.0335 114.398 22.3596C115.152 21.021 115.529 19.5056 115.529 17.8136C115.529 15.2654 114.66 12.8463 112.923 10.5564C111.187 8.26637 108.85 6.46224 105.914 5.14737C108.697 2.98649 110.086 1.49834 110.086 0.682918C110.09 0.227639 109.849 0 109.363 0C108.795 0 107.963 0.41111 106.872 1.23673C105.778 2.06235 104.705 3.08163 103.655 4.29797C101.276 3.56409 98.9116 3.19715 96.5639 3.19715C92.3543 3.19715 88.8004 4.30816 85.9056 6.5302C83.636 8.26977 82.2566 10.3253 81.7673 12.6935C81.3902 12.2314 80.9179 11.7523 80.3199 11.2257C78.7401 9.84286 78.2338 9.03083 78.2338 7.90962C78.2338 6.85637 78.6721 6.43846 79.4434 6.43846C80.2146 6.43846 80.6529 6.85637 80.6529 7.95379V8.74543H82.9361V8.10668C82.9361 5.64682 81.7707 4.24021 79.4196 4.24021C77.0684 4.24021 75.8181 5.64682 75.8181 8.06252C75.8181 9.81908 76.4772 11.0728 78.4988 12.8531C80.0787 14.236 80.5646 15.048 80.5646 16.3221C80.5646 17.4637 80.0821 17.8612 79.3142 17.8612C78.5464 17.8612 78.0605 17.4671 78.0605 16.3663V15.313H75.7773V16.193C75.7773 18.6528 76.9631 20.0595 79.3346 20.0595C80.8262 20.0595 81.8794 19.5056 82.4604 18.4728C82.6575 18.8431 82.8851 19.1999 83.1467 19.543C84.1932 20.9224 85.6406 21.9213 87.4821 22.5465V37.462H89.6362V26.2363H89.6803L92.5785 37.462H95.0621V27.8706C95.7383 27.9793 96.4382 28.037 97.1619 28.037C97.3623 28.037 97.5628 28.0302 97.7598 28.0234L96.2241 37.462H98.4632L98.9014 34.4517H101.647V34.4075L102.085 37.462H104.501L102.761 26.7867C103.298 26.5285 103.828 26.2329 104.341 25.8965C104.806 26.0698 105.248 26.2125 105.663 26.3212V37.462H112.057V35.2637H108.082V26.5591C109.998 26.4266 111.656 25.6281 113.052 24.1672C112.92 24.6156 112.849 25.1219 112.849 25.6859C112.849 27.4425 113.508 28.6962 115.529 30.4765C117.109 31.8593 117.595 32.6748 117.595 33.9489C117.595 35.0905 117.113 35.488 116.345 35.488C115.577 35.488 115.091 35.0939 115.091 33.993V32.9398H112.808V33.8198C112.808 36.2796 113.994 37.6862 116.365 37.6862C118.737 37.6862 120.011 36.2796 120.011 33.7756C120.011 31.8661 119.372 30.6328 117.354 28.8559M112.186 10.2981C113.674 12.2246 114.445 14.3515 114.507 16.6754C114.507 16.7706 114.513 16.8691 114.513 16.9642C114.513 19.4547 113.773 21.5986 112.291 23.3925C111.082 24.8569 109.675 25.7233 108.078 25.9917C107.722 26.0528 107.355 26.0834 106.978 26.0834C106.536 26.0834 106.098 26.0324 105.663 25.9339C105.35 25.8626 105.041 25.7674 104.735 25.6485C105.065 25.4039 105.374 25.1559 105.663 24.901C106.655 24.0313 107.429 23.0935 107.983 22.0844C108.68 20.8137 109.033 19.4343 109.033 17.9461C109.033 15.1397 107.8 13.1997 105.333 12.1125C105.316 12.1057 105.299 12.0955 105.282 12.0887C106.057 10.4103 106.444 9.25507 106.444 8.63331C106.444 8.41247 106.352 8.30035 106.172 8.30035C105.979 8.30035 105.853 8.49401 105.799 8.88134C105.646 9.83946 105.306 10.8519 104.779 11.9222C104.059 11.6878 103.288 11.5688 102.469 11.5688C101.885 11.5688 101.205 11.6402 100.43 11.7761C100.831 10.254 101.344 8.88474 101.966 7.665C103.407 6.86316 104.609 6.10889 105.578 5.40219C108.428 6.6627 110.63 8.29695 112.179 10.3015M100.563 26.7697C100.349 26.8581 100.135 26.9362 99.9207 27.011C99.2208 27.2488 98.5277 27.4051 97.838 27.49C97.4711 27.5342 97.1041 27.558 96.7372 27.558C96.1562 27.558 95.5956 27.5104 95.052 27.4187C94.2977 27.2896 93.5808 27.0755 92.8979 26.7731C92.5683 26.627 92.2455 26.4605 91.9296 26.2703C91.7835 26.1819 91.6408 26.0902 91.5015 25.9951C90.2987 25.1763 89.4459 24.14 88.9499 22.8863C89.5988 22.9678 90.139 23.012 90.5705 23.012C90.6249 23.012 90.6826 23.012 90.7404 23.012C91.4063 22.9984 92.1232 22.91 92.8979 22.7402C93.1867 22.6756 93.4823 22.6043 93.788 22.5193C94.1686 23.0188 94.5899 23.4401 95.052 23.7798C95.9693 24.4628 97.0395 24.8263 98.2661 24.8773C98.3646 24.8807 98.4631 24.8841 98.5651 24.8841C99.547 24.8841 100.58 24.6428 101.66 24.157C101.844 24.3744 102.109 24.6089 102.445 24.8569C102.663 25.02 102.914 25.1864 103.196 25.3597C102.992 25.4956 102.792 25.6213 102.588 25.747C101.908 26.1616 101.236 26.5047 100.563 26.7765M104.579 12.3707C104.175 13.1963 103.712 13.9947 103.189 14.7626C102.313 16.0537 101.27 17.2666 100.06 18.4048C99.9683 18.4898 99.8799 18.5747 99.7882 18.6596C99.761 18.2995 99.7474 17.8782 99.7474 17.3923C99.7474 15.9993 99.8494 14.7388 100.046 13.604C100.131 13.1182 100.23 12.6527 100.352 12.211C101.1 12.0173 101.81 11.9222 102.476 11.9222C103.142 11.9222 103.899 12.0207 104.66 12.2144C104.633 12.2688 104.606 12.3197 104.582 12.3741M97.8244 13.4036C97.8618 13.3798 97.8991 13.356 97.9365 13.3288C98.4122 13.0196 98.915 12.7376 99.4586 12.4964C99.3635 12.8192 99.2786 13.1351 99.2004 13.4443C99.0747 13.9404 98.9728 14.4194 98.8946 14.8849C98.7587 15.6833 98.6908 16.4342 98.6908 17.1375C98.6908 17.62 98.7383 18.1602 98.8267 18.748C98.5039 19.3697 98.0317 19.9405 97.4439 20.4468C96.4654 21.055 95.4223 21.5408 94.3079 21.9044C94.0463 21.2248 93.9138 20.5759 93.9138 19.9541C93.9138 18.4592 94.4268 17.0254 95.4495 15.6562C96.1086 14.7728 96.9002 14.0219 97.821 13.4036M95.0282 22.081C96.4212 21.5136 97.753 20.7458 99.0238 19.7775C99.2344 20.5657 99.5674 21.3336 100.012 22.081C100.383 22.7028 100.835 23.3076 101.368 23.8987C100.495 24.2997 99.6591 24.5035 98.8573 24.5035C98.6772 24.5035 98.5005 24.4967 98.3306 24.4831C96.9104 24.3914 95.8164 23.9123 95.0554 23.046C94.8549 22.8183 94.6748 22.5635 94.5185 22.2815C94.6918 22.2169 94.8617 22.1524 95.0282 22.081ZM99.581 12.0445C98.7927 12.2993 98.0622 12.6221 97.3895 13.006C97.2128 13.108 97.0362 13.2133 96.8663 13.3254C96.078 13.8384 95.3781 14.45 94.7666 15.1567C93.5196 16.5973 92.8979 18.1398 92.8979 19.7876C92.8979 20.5385 93.1017 21.303 93.5026 22.0776C93.5162 22.1014 93.5264 22.1286 93.54 22.1524C93.3226 22.2101 93.1085 22.2611 92.8979 22.3087C92.0892 22.4853 91.335 22.5805 90.6317 22.5873V22.6009C90.3157 22.5941 90.0031 22.5737 89.6939 22.5431C89.3949 22.5125 89.1027 22.4718 88.8173 22.4174C88.7936 22.3019 88.7732 22.1864 88.7528 22.0742C88.6916 21.6937 88.6577 21.3505 88.6577 21.0482C88.6577 18.9382 89.4391 16.9337 91.002 15.0412C91.9873 13.8452 93.2886 12.6901 94.8991 11.579C96.0882 10.7602 97.4473 9.96178 98.9762 9.19052C99.9581 8.69107 100.699 8.31734 101.198 8.06931C100.437 9.6458 99.8969 10.9709 99.5776 12.0343M103.332 24.9588C102.89 24.6258 102.557 24.3574 102.333 24.157C102.241 24.0754 102.163 24.0007 102.109 23.9395C102.167 23.9055 102.224 23.8682 102.282 23.8308C103.084 23.328 103.821 22.6518 104.487 21.8058C105.201 20.8987 105.557 20.1444 105.557 19.5464C105.557 19.2135 105.398 19.047 105.082 19.047C104.803 19.047 104.664 19.2406 104.664 19.628C104.626 21.0584 103.808 22.3223 102.214 23.4095C102.082 23.5012 101.946 23.5896 101.803 23.6779C101.378 23.1954 101.022 22.6552 100.74 22.0742C100.291 21.1433 100.036 20.107 100.036 19.013C100.036 18.9892 100.036 18.9688 100.036 18.9484C101.378 17.7627 102.554 16.4376 103.563 14.9732C104.134 14.1476 104.65 13.2812 105.116 12.3707C107.239 13.3934 108.303 15.0684 108.303 17.3957C108.303 18.6664 107.875 19.9881 107.018 21.3675L107.012 21.3811C106.865 21.6156 106.706 21.8466 106.543 22.0742C106.274 22.448 105.979 22.8115 105.663 23.1649C105.044 23.8546 104.338 24.5001 103.539 25.0981L103.332 24.952V24.9588ZM107.11 1.57649C108.17 0.761063 108.921 0.349953 109.363 0.349953C109.584 0.349953 109.696 0.462074 109.696 0.682918C109.696 1.04306 109.268 1.66143 108.408 2.54141C107.548 3.42139 106.58 4.23342 105.5 4.98089L105.228 4.89935L104.688 4.63094L104.253 4.50522L104.086 4.42368C105.041 3.34324 106.05 2.39531 107.107 1.57989M103.838 4.77703C104.253 4.91633 104.691 5.06923 105.146 5.23571C103.954 6.06472 102.992 6.6627 102.262 7.02285C102.761 6.19383 103.284 5.44296 103.838 4.78043M87.2477 7.28786C90.224 4.86537 93.6555 3.65582 97.5458 3.65582C99.4824 3.65582 101.436 3.9684 103.4 4.59016C102.639 5.65701 102.031 6.57776 101.572 7.35242C97.0192 9.0818 94.1856 10.2608 93.0779 10.8825C92.9828 10.9369 92.8911 10.9879 92.7993 11.0422C88.7766 13.39 86.7652 16.1896 86.7652 19.4377C86.7652 20.2837 86.9249 21.1331 87.2443 21.9927C84.7572 20.9632 83.3132 19.3222 82.9021 17.0662C82.8206 16.6211 82.7798 16.1522 82.7798 15.6596C82.7798 15.5508 82.7798 15.4421 82.7866 15.3334C82.7934 15.1397 82.8036 14.9495 82.8206 14.7626C83.0788 11.9732 84.5534 9.48271 87.2443 7.29126M92.8979 31.2851H92.8537L91.7019 26.7697C92.0892 26.9702 92.4902 27.1469 92.8979 27.2998V31.2851ZM101.355 32.3622H99.18L99.8188 27.7686C100.108 27.7109 100.393 27.6429 100.678 27.5648L101.358 32.3622H101.355Z" fill="white"/>
</g>
</g>
<defs>
<clipPath id="clip0_2297_33937">
<rect width="120" height="37.676" fill="white"/>
</clipPath>
</defs>
</svg>
