<svg width="120" height="38" viewBox="0 0 120 38" fill="none" xmlns="http://www.w3.org/2000/svg">
<g clip-path="url(#clip0_2297_2455)">
<mask id="mask0_2297_2455" style="mask-type:luminance" maskUnits="userSpaceOnUse" x="0" y="0" width="121" height="38">
<path d="M120.004 -3.05176e-05H0.00415039V37.676H120.004V-3.05176e-05Z" fill="white"/>
</mask>
<g mask="url(#mask0_2297_2455)">
<path d="M3.56144 4.23676C1.23408 4.23676 0.00415039 5.64336 0.00415039 8.01489V16.2745C0.00415039 18.6494 1.23408 20.056 3.56144 20.056C5.8888 20.056 7.11873 18.6494 7.11873 16.2779V14.1034H4.83554V16.4545C4.83554 17.4636 4.35308 17.8611 3.626 17.8611C2.89891 17.8611 2.41645 17.467 2.41645 16.4545V7.8654C2.41645 6.85631 2.89891 6.4384 3.626 6.4384C4.35308 6.4384 4.83554 6.85631 4.83554 7.8654V9.64574H7.11873V8.02169C7.11873 5.65016 5.8888 4.24355 3.56144 4.24355" fill="#282A74"/>
<path d="M12.1057 4.23676C9.73416 4.23676 8.43628 5.64336 8.43628 8.10323V16.1861C8.43628 18.646 9.73416 20.0526 12.1057 20.0526C14.4772 20.0526 15.7751 18.646 15.7751 16.1861V8.10323C15.7751 5.64336 14.4806 4.23676 12.1057 4.23676ZM13.3594 16.3424C13.3594 17.4398 12.8769 17.8578 12.1057 17.8578C11.3344 17.8578 10.852 17.4398 10.852 16.3424V7.95034C10.852 6.85291 11.3344 6.43501 12.1057 6.43501C12.8769 6.43501 13.3594 6.85291 13.3594 7.95034V16.3424Z" fill="#282A74"/>
<path d="M24.5858 15.2654C24.5858 13.5292 24.1917 12.3876 22.9822 12.0139V11.9697C24.0592 11.5314 24.5621 10.5189 24.5621 8.93905V7.99452C24.5621 5.62299 23.485 4.45761 20.981 4.45761H17.3999V19.8352H19.8156V13.2438H20.6514C21.7488 13.2438 22.1667 13.7059 22.1667 15.1329V17.9461C22.1667 19.1998 22.2551 19.441 22.3876 19.8352H24.8475C24.6062 19.2644 24.5824 18.714 24.5824 17.9665V15.2654H24.5858ZM22.1464 9.42151C22.1464 10.6514 21.5959 11.0456 20.6956 11.0456H19.8156V6.65246H20.913C21.7692 6.65246 22.143 7.13492 22.143 8.23575V9.42151H22.1464Z" fill="#282A74"/>
<path d="M29.8146 4.45761H26.2573V19.8352H28.673V13.5734H29.8146C32.2303 13.5734 33.4161 12.2347 33.4161 9.77147V8.25613C33.4161 5.79627 32.2303 4.45761 29.8146 4.45761ZM31.0004 9.92775C31.0004 11.0252 30.5825 11.3785 29.8146 11.3785H28.673V6.65586H29.8146C30.5825 6.65586 31.0004 7.00921 31.0004 8.10664V9.93115V9.92775Z" fill="#282A74"/>
<path d="M38.2278 4.23676C35.8562 4.23676 34.5583 5.64336 34.5583 8.10323V16.1861C34.5583 18.646 35.8562 20.0526 38.2278 20.0526C40.5993 20.0526 41.8972 18.646 41.8972 16.1861V8.10323C41.8972 5.64336 40.5993 4.23676 38.2278 4.23676ZM39.4781 16.3424C39.4781 17.4398 38.9956 17.8578 38.2278 17.8578C37.4599 17.8578 36.974 17.4398 36.974 16.3424V7.95034C36.974 6.85291 37.4565 6.43501 38.2278 6.43501C38.999 6.43501 39.4781 6.85291 39.4781 7.95034V16.3424Z" fill="#282A74"/>
<path d="M45.9362 13.2438H46.772C47.8694 13.2438 48.2873 13.7059 48.2873 15.1329V17.9461C48.2873 19.1998 48.3757 19.441 48.5082 19.8352H50.968C50.7268 19.2644 50.703 18.714 50.703 17.9665V15.2654C50.703 13.5292 50.3089 12.3876 49.0994 12.0139V11.9697C50.1764 11.5314 50.6792 10.5189 50.6792 8.93905V7.99452C50.6792 5.62299 49.6022 4.45761 47.0982 4.45761H43.5171V19.8352H45.9328V13.2438H45.9362ZM45.9362 6.65246H47.0336C47.8898 6.65246 48.2635 7.13492 48.2635 8.23235V9.41811C48.2635 10.648 47.7131 11.0422 46.8128 11.0422H45.9328V6.64907L45.9362 6.65246Z" fill="#282A74"/>
<path d="M57.5127 4.45761H54.2409L51.7368 19.8352H53.9792L54.4175 16.8249H57.1628V16.7807L57.6011 19.8352H60.0168L57.5127 4.45761ZM54.7029 14.7388L55.7562 7.13832H55.8004L56.8774 14.7388H54.7029Z" fill="#282A74"/>
<path d="M62.0615 19.8352H64.4772V6.65246H67.0016V4.45761H59.5337V6.65246H62.0615V19.8352Z" fill="#282A74"/>
<path d="M74.7574 17.6369H70.5817V12.9142H73.8978V10.7194H70.5817V6.65586H74.7574V4.45761H68.166V19.8352H74.7574V17.6369Z" fill="#282A74"/>
<path d="M19.9931 22.081H16.4358V37.4586H18.8515V31.1968H19.9931C22.4088 31.1968 23.5945 29.8581 23.5945 27.3949V25.8795C23.5945 23.4197 22.4088 22.0776 19.9931 22.0776M21.1788 27.5511C21.1788 28.6486 20.7609 29.0019 19.9931 29.0019H18.8515V24.2793H19.9931C20.7609 24.2793 21.1788 24.6292 21.1788 25.73V27.5545V27.5511Z" fill="#282A74"/>
<path d="M32.0961 32.8888C32.0961 31.1526 31.702 30.011 30.4924 29.6373V29.5931C31.5695 29.1548 32.0723 28.1423 32.0723 26.5625V25.6179C32.0723 23.2464 30.9953 22.081 28.4912 22.081H24.9102V37.4586H27.3259V30.8672H28.1617C29.2591 30.8672 29.677 31.3293 29.677 32.7563V35.5695C29.677 36.8198 29.7653 37.0644 29.8978 37.4586H32.3577C32.1165 36.8878 32.0927 36.3374 32.0927 35.5899V32.8888H32.0961ZM29.66 27.0449C29.66 28.2748 29.1096 28.669 28.2092 28.669H27.3292V24.2759H28.4267C29.2829 24.2759 29.6566 24.7583 29.6566 25.8591V27.0449H29.66Z" fill="#282A74"/>
<path d="M37.2588 21.8602C34.8872 21.8602 33.5894 23.2668 33.5894 25.7266V33.8095C33.5894 36.2694 34.8872 37.676 37.2588 37.676C39.6303 37.676 40.9282 36.2694 40.9282 33.8095V25.7266C40.9282 23.2668 39.6303 21.8602 37.2588 21.8602ZM38.5091 33.9624C38.5091 35.0598 38.0266 35.4778 37.2588 35.4778C36.4909 35.4778 36.0051 35.0598 36.0051 33.9624V25.5703C36.0051 24.4729 36.4875 24.055 37.2588 24.055C38.03 24.055 38.5091 24.4729 38.5091 25.5703V33.9624Z" fill="#282A74"/>
<path d="M42.553 37.4586H44.9687V30.7585H48.0877V28.5602H44.9687V24.2759H48.9439V22.081H42.553V37.4586Z" fill="#282A74"/>
<path d="M50.1077 37.4586H56.699V35.2603H52.5234V30.5376H55.8394V28.3394H52.5234V24.2759H56.699V22.081H50.1077V37.4586Z" fill="#282A74"/>
<path d="M62.2558 28.8456C60.6759 27.4628 60.1696 26.6474 60.1696 25.5296C60.1696 24.4763 60.6079 24.0584 61.3792 24.0584C62.1504 24.0584 62.5887 24.4763 62.5887 25.5737V26.3654H64.8719V25.73C64.8719 23.2702 63.7065 21.8635 61.3554 21.8635C59.0042 21.8635 57.7539 23.2701 57.7539 25.6858C57.7539 27.4424 58.4131 28.6961 60.4346 30.4765C62.0145 31.8593 62.5004 32.6747 62.5004 33.9488C62.5004 35.0904 62.0179 35.4879 61.2501 35.4879C60.4822 35.4879 59.9997 35.0938 59.9997 33.993V32.9397H57.7166V33.8197C57.7166 36.2796 58.9023 37.6862 61.2738 37.6862C63.6454 37.6862 64.9195 36.2796 64.9195 33.7755C64.9195 31.8661 64.2807 30.6328 62.2625 28.8558" fill="#282A74"/>
<path d="M70.4259 28.8456C68.846 27.4628 68.3398 26.6474 68.3398 25.5296C68.3398 24.4763 68.7781 24.0584 69.5493 24.0584C70.3206 24.0584 70.7589 24.4763 70.7589 25.5737V26.3654H73.0421V25.73C73.0421 23.2702 71.8767 21.8635 69.5256 21.8635C67.1744 21.8635 65.9241 23.2701 65.9241 25.6858C65.9241 27.4424 66.5832 28.6961 68.6048 30.4765C70.1847 31.8593 70.6705 32.6747 70.6705 33.9488C70.6705 35.0904 70.1881 35.4879 69.4202 35.4879C68.6524 35.4879 68.1699 35.0938 68.1699 33.993V32.9397H65.8867V33.8197C65.8867 36.2796 67.0725 37.6862 69.444 37.6862C71.8155 37.6862 73.0896 36.2796 73.0896 33.7755C73.0896 31.8661 72.4509 30.6328 70.4327 28.8558" fill="#282A74"/>
<path d="M76.8854 22.081H74.4697V37.4586H76.8854V22.081Z" fill="#282A74"/>
<path d="M82.1784 21.8602C79.8069 21.8602 78.509 23.2668 78.509 25.7266V33.8095C78.509 36.2694 79.8069 37.676 82.1784 37.676C84.55 37.676 85.8479 36.2694 85.8479 33.8095V25.7266C85.8479 23.2668 84.55 21.8602 82.1784 21.8602ZM83.4322 33.9624C83.4322 35.0598 82.9497 35.4778 82.1818 35.4778C81.414 35.4778 80.9281 35.0598 80.9281 33.9624V25.5703C80.9281 24.4729 81.4106 24.055 82.1818 24.055C82.9531 24.055 83.4322 24.4729 83.4322 25.5703V33.9624Z" fill="#282A74"/>
<path d="M117.347 28.8456C115.767 27.4628 115.261 26.6474 115.261 25.5296C115.261 24.4763 115.699 24.0584 116.47 24.0584C117.242 24.0584 117.68 24.4763 117.68 25.5737V26.3654H119.963V25.7266C119.963 23.2668 118.798 21.8602 116.447 21.8602C115.628 21.8602 114.945 22.0334 114.398 22.3596C115.152 21.0209 115.529 19.5056 115.529 17.8136C115.529 15.2654 114.66 12.8463 112.923 10.5563C111.187 8.26634 108.85 6.46221 105.914 5.14734C108.697 2.98646 110.086 1.49831 110.086 0.682888C110.09 0.227609 109.849 -3.05176e-05 109.363 -3.05176e-05C108.795 -3.05176e-05 107.963 0.41108 106.872 1.2367C105.778 2.06232 104.705 3.0816 103.655 4.29794C101.276 3.56406 98.9116 3.19712 96.5639 3.19712C92.3543 3.19712 88.8004 4.30813 85.9056 6.53017C83.636 8.26974 82.2566 10.3253 81.7673 12.6934C81.3902 12.2313 80.9179 11.7523 80.3199 11.2257C78.7401 9.84283 78.2338 9.0308 78.2338 7.90959C78.2338 6.85634 78.6721 6.43843 79.4434 6.43843C80.2146 6.43843 80.6529 6.85634 80.6529 7.95376V8.7454H82.9361V8.10665C82.9361 5.64679 81.7707 4.24018 79.4196 4.24018C77.0684 4.24018 75.8181 5.64679 75.8181 8.06248C75.8181 9.81905 76.4772 11.0728 78.4988 12.8531C80.0787 14.2359 80.5646 15.048 80.5646 16.3221C80.5646 17.4637 80.0821 17.8612 79.3142 17.8612C78.5464 17.8612 78.0605 17.4671 78.0605 16.3662V15.313H75.7773V16.193C75.7773 18.6528 76.9631 20.0594 79.3346 20.0594C80.8262 20.0594 81.8794 19.5056 82.4604 18.4727C82.6575 18.8431 82.8851 19.1998 83.1467 19.543C84.1932 20.9224 85.6406 21.9213 87.4821 22.5465V37.462H89.6362V26.2363H89.6803L92.5785 37.462H95.0621V27.8705C95.7383 27.9792 96.4382 28.037 97.1619 28.037C97.3623 28.037 97.5628 28.0302 97.7598 28.0234L96.2241 37.462H98.4632L98.9014 34.4517H101.647V34.4075L102.085 37.462H104.501L102.761 26.7867C103.298 26.5285 103.828 26.2329 104.341 25.8965C104.806 26.0698 105.248 26.2125 105.663 26.3212V37.462H112.057V35.2637H108.082V26.559C109.998 26.4265 111.656 25.6281 113.052 24.1671C112.92 24.6156 112.849 25.1219 112.849 25.6859C112.849 27.4424 113.508 28.6961 115.529 30.4765C117.109 31.8593 117.595 32.6747 117.595 33.9488C117.595 35.0904 117.113 35.4879 116.345 35.4879C115.577 35.4879 115.091 35.0938 115.091 33.993V32.9397H112.808V33.8197C112.808 36.2796 113.994 37.6862 116.365 37.6862C118.737 37.6862 120.011 36.2796 120.011 33.7756C120.011 31.8661 119.372 30.6328 117.354 28.8558M112.186 10.2981C113.674 12.2246 114.445 14.3515 114.507 16.6754C114.507 16.7705 114.513 16.8691 114.513 16.9642C114.513 19.4547 113.773 21.5985 112.291 23.3925C111.082 24.8568 109.675 25.7232 108.078 25.9916C107.722 26.0528 107.355 26.0834 106.978 26.0834C106.536 26.0834 106.098 26.0324 105.663 25.9339C105.35 25.8625 105.041 25.7674 104.735 25.6485C105.065 25.4039 105.374 25.1558 105.663 24.901C106.655 24.0312 107.429 23.0935 107.983 22.0844C108.68 20.8137 109.033 19.4343 109.033 17.9461C109.033 15.1397 107.8 13.1997 105.333 12.1124C105.316 12.1056 105.299 12.0954 105.282 12.0886C106.057 10.4102 106.444 9.25504 106.444 8.63328C106.444 8.41244 106.352 8.30032 106.172 8.30032C105.979 8.30032 105.853 8.49398 105.799 8.88131C105.646 9.83943 105.306 10.8519 104.779 11.9222C104.059 11.6877 103.288 11.5688 102.469 11.5688C101.885 11.5688 101.205 11.6402 100.43 11.7761C100.831 10.2539 101.344 8.88471 101.966 7.66497C103.407 6.86313 104.609 6.10886 105.578 5.40216C108.428 6.66267 110.63 8.29692 112.179 10.3015M100.563 26.7697C100.349 26.858 100.135 26.9362 99.9207 27.0109C99.2208 27.2488 98.5277 27.405 97.838 27.49C97.4711 27.5342 97.1041 27.5579 96.7372 27.5579C96.1562 27.5579 95.5956 27.5104 95.052 27.4186C94.2977 27.2895 93.5808 27.0755 92.8979 26.7731C92.5683 26.627 92.2455 26.4605 91.9296 26.2702C91.7835 26.1819 91.6408 26.0902 91.5015 25.995C90.2987 25.1762 89.4459 24.1399 88.9499 22.8862C89.5988 22.9678 90.139 23.0119 90.5705 23.0119C90.6249 23.0119 90.6826 23.0119 90.7404 23.0119C91.4063 22.9984 92.1232 22.91 92.8979 22.7401C93.1867 22.6756 93.4823 22.6042 93.788 22.5193C94.1686 23.0187 94.5899 23.44 95.052 23.7798C95.9693 24.4627 97.0395 24.8263 98.2661 24.8772C98.3646 24.8806 98.4631 24.884 98.5651 24.884C99.547 24.884 100.58 24.6428 101.66 24.1569C101.844 24.3744 102.109 24.6088 102.445 24.8568C102.663 25.0199 102.914 25.1864 103.196 25.3597C102.992 25.4956 102.792 25.6213 102.588 25.747C101.908 26.1615 101.236 26.5047 100.563 26.7765M104.579 12.3706C104.175 13.1963 103.712 13.9947 103.189 14.7626C102.313 16.0537 101.27 17.2666 100.06 18.4048C99.9683 18.4897 99.8799 18.5747 99.7882 18.6596C99.761 18.2995 99.7474 17.8782 99.7474 17.3923C99.7474 15.9993 99.8494 14.7388 100.046 13.604C100.131 13.1181 100.23 12.6526 100.352 12.211C101.1 12.0173 101.81 11.9222 102.476 11.9222C103.142 11.9222 103.899 12.0207 104.66 12.2144C104.633 12.2687 104.606 12.3197 104.582 12.374M97.8244 13.4035C97.8618 13.3797 97.8991 13.356 97.9365 13.3288C98.4122 13.0196 98.915 12.7376 99.4586 12.4964C99.3635 12.8191 99.2786 13.1351 99.2004 13.4443C99.0747 13.9403 98.9728 14.4194 98.8946 14.8849C98.7587 15.6833 98.6908 16.4342 98.6908 17.1375C98.6908 17.6199 98.7383 18.1602 98.8267 18.748C98.5039 19.3697 98.0317 19.9405 97.4439 20.4468C96.4654 21.0549 95.4223 21.5408 94.3079 21.9043C94.0463 21.2248 93.9138 20.5759 93.9138 19.9541C93.9138 18.4592 94.4268 17.0254 95.4495 15.6561C96.1086 14.7728 96.9002 14.0219 97.821 13.4035M95.0282 22.081C96.4212 21.5136 97.753 20.7457 99.0238 19.7774C99.2344 20.5657 99.5674 21.3335 100.012 22.081C100.383 22.7028 100.835 23.3075 101.368 23.8987C100.495 24.2996 99.6591 24.5035 98.8573 24.5035C98.6772 24.5035 98.5005 24.4967 98.3306 24.4831C96.9104 24.3914 95.8164 23.9123 95.0554 23.0459C94.8549 22.8183 94.6748 22.5635 94.5185 22.2815C94.6918 22.2169 94.8617 22.1523 95.0282 22.081ZM99.581 12.0445C98.7927 12.2993 98.0622 12.6221 97.3895 13.006C97.2128 13.1079 97.0362 13.2133 96.8663 13.3254C96.078 13.8384 95.3781 14.45 94.7666 15.1567C93.5196 16.5973 92.8979 18.1398 92.8979 19.7876C92.8979 20.5385 93.1017 21.303 93.5026 22.0776C93.5162 22.1014 93.5264 22.1286 93.54 22.1523C93.3226 22.2101 93.1085 22.2611 92.8979 22.3086C92.0892 22.4853 91.335 22.5805 90.6317 22.5872V22.6008C90.3157 22.594 90.0031 22.5737 89.6939 22.5431C89.3949 22.5125 89.1027 22.4717 88.8173 22.4174C88.7936 22.3018 88.7732 22.1863 88.7528 22.0742C88.6916 21.6937 88.6577 21.3505 88.6577 21.0481C88.6577 18.9382 89.4391 16.9336 91.002 15.0412C91.9873 13.8452 93.2886 12.69 94.8991 11.579C96.0882 10.7602 97.4473 9.96175 98.9762 9.19049C99.9581 8.69104 100.699 8.31731 101.198 8.06928C100.437 9.64577 99.8969 10.9708 99.5776 12.0343M103.332 24.9588C102.89 24.6258 102.557 24.3574 102.333 24.1569C102.241 24.0754 102.163 24.0006 102.109 23.9395C102.167 23.9055 102.224 23.8681 102.282 23.8308C103.084 23.3279 103.821 22.6518 104.487 21.8058C105.201 20.8986 105.557 20.1444 105.557 19.5464C105.557 19.2134 105.398 19.0469 105.082 19.0469C104.803 19.0469 104.664 19.2406 104.664 19.6279C104.626 21.0583 103.808 22.3222 102.214 23.4095C102.082 23.5012 101.946 23.5895 101.803 23.6779C101.378 23.1954 101.022 22.6552 100.74 22.0742C100.291 21.1433 100.036 20.107 100.036 19.013C100.036 18.9892 100.036 18.9688 100.036 18.9484C101.378 17.7626 102.554 16.4376 103.563 14.9732C104.134 14.1476 104.65 13.2812 105.116 12.3706C107.239 13.3933 108.303 15.0683 108.303 17.3957C108.303 18.6664 107.875 19.9881 107.018 21.3675L107.012 21.3811C106.865 21.6155 106.706 21.8466 106.543 22.0742C106.274 22.4479 105.979 22.8115 105.663 23.1648C105.044 23.8546 104.338 24.5001 103.539 25.0981L103.332 24.952V24.9588ZM107.11 1.57646C108.17 0.761033 108.921 0.349923 109.363 0.349923C109.584 0.349923 109.696 0.462044 109.696 0.682888C109.696 1.04303 109.268 1.6614 108.408 2.54138C107.548 3.42136 106.58 4.23338 105.5 4.98086L105.228 4.89932L104.688 4.6309L104.253 4.50519L104.086 4.42365C105.041 3.34321 106.05 2.39528 107.107 1.57986M103.838 4.777C104.253 4.9163 104.691 5.0692 105.146 5.23568C103.954 6.06469 102.992 6.66267 102.262 7.02282C102.761 6.1938 103.284 5.44293 103.838 4.7804M87.2477 7.28783C90.224 4.86534 93.6555 3.65579 97.5458 3.65579C99.4824 3.65579 101.436 3.96837 103.4 4.59013C102.639 5.65698 102.031 6.57773 101.572 7.35239C97.0192 9.08177 94.1856 10.2607 93.0779 10.8825C92.9828 10.9369 92.8911 10.9878 92.7993 11.0422C88.7766 13.3899 86.7652 16.1896 86.7652 19.4377C86.7652 20.2837 86.9249 21.1331 87.2443 21.9927C84.7572 20.9632 83.3132 19.3221 82.9021 17.0661C82.8206 16.621 82.7798 16.1522 82.7798 15.6595C82.7798 15.5508 82.7798 15.4421 82.7866 15.3334C82.7934 15.1397 82.8036 14.9494 82.8206 14.7626C83.0788 11.9731 84.5534 9.48268 87.2443 7.29123M92.8979 31.2851H92.8537L91.7019 26.7697C92.0892 26.9702 92.4902 27.1468 92.8979 27.2997V31.2851ZM101.355 32.3622H99.18L99.8188 27.7686C100.108 27.7108 100.393 27.6429 100.678 27.5647L101.358 32.3622H101.355Z" fill="#282A74"/>
</g>
</g>
<defs>
<clipPath id="clip0_2297_2455">
<rect width="120" height="37.676" fill="white"/>
</clipPath>
</defs>
</svg>
