<svg width="16" height="16" viewBox="0 0 16 16" fill="none" xmlns="http://www.w3.org/2000/svg">
<path d="M6.40918 4.63913C7.28786 3.87029 8.71248 3.87029 9.59116 4.63913C10.4698 5.40798 10.4698 6.65452 9.59116 7.42337C9.43823 7.55718 9.26875 7.66771 9.0885 7.75495C8.52923 8.02561 8.00017 8.50368 8.00017 9.125V9.6875M14.75 8C14.75 11.7279 11.7279 14.75 8 14.75C4.27208 14.75 1.25 11.7279 1.25 8C1.25 4.27208 4.27208 1.25 8 1.25C11.7279 1.25 14.75 4.27208 14.75 8ZM8 11.9375H8.00563V11.9431H8V11.9375Z" stroke="#020617" stroke-linecap="round" stroke-linejoin="round"/>
</svg>
