<svg width="16" height="16" viewBox="0 0 16 16" fill="none" xmlns="http://www.w3.org/2000/svg">
<path d="M7.2459 0.976316C7.66531 0.563233 8.33486 0.563233 8.75427 0.976316L9.37632 1.58898C9.63264 1.84144 9.99641 1.94919 10.3474 1.8766L11.199 1.70044C11.7732 1.58167 12.3365 1.94682 12.4679 2.52306L12.6629 3.37772C12.7432 3.72989 12.9915 4.01893 13.3256 4.14925L14.1365 4.46553C14.6832 4.67878 14.9614 5.29315 14.7631 5.8496L14.469 6.6749C14.3479 7.01497 14.4018 7.39353 14.6131 7.68539L15.1257 8.39369C15.4713 8.87125 15.3761 9.53978 14.911 9.89977L14.2213 10.4337C13.9371 10.6537 13.7796 11.0016 13.8009 11.3623L13.8526 12.2378C13.8874 12.828 13.4489 13.3384 12.8648 13.3877L11.9984 13.4607C11.6414 13.4908 11.3225 13.6976 11.1471 14.0126L10.7213 14.7773C10.4343 15.2928 9.79185 15.4831 9.27406 15.2059L8.5061 14.7949C8.18965 14.6255 7.81052 14.6255 7.49407 14.7949L6.7261 15.2059C6.20831 15.4831 5.56589 15.2928 5.27883 14.7773L4.85309 14.0126C4.67766 13.6976 4.35871 13.4908 4.00172 13.4607L3.13536 13.3877C2.55122 13.3384 2.11276 12.828 2.14759 12.2378L2.19923 11.3623C2.22052 11.0016 2.06302 10.6537 1.77882 10.4337L1.08913 9.89977C0.624107 9.53978 0.528821 8.87125 0.874463 8.39369L1.38711 7.68539C1.59835 7.39353 1.6523 7.01497 1.53113 6.6749L1.23708 5.8496C1.03881 5.29315 1.31695 4.67878 1.86367 4.46553L2.67455 4.14925C3.00868 4.01893 3.25696 3.72989 3.33729 3.37772L3.53223 2.52306C3.66367 1.94682 4.22693 1.58167 4.80115 1.70044L5.65281 1.8766C6.00375 1.94919 6.36752 1.84144 6.62385 1.58898L7.2459 0.976316Z" fill="#437EF7"/>
<path fill-rule="evenodd" clip-rule="evenodd" d="M11.1382 6.1951C11.3985 6.45545 11.3985 6.87756 11.1382 7.13791L7.70719 10.5689C7.31666 10.9594 6.6835 10.9594 6.29297 10.5689L4.86201 9.13791C4.60166 8.87756 4.60166 8.45545 4.86201 8.1951C5.12236 7.93475 5.54447 7.93475 5.80482 8.1951L7.00008 9.39036L10.1953 6.1951C10.4557 5.93475 10.8778 5.93475 11.1382 6.1951Z" fill="white"/>
<path d="M7.2459 0.976316C7.66531 0.563233 8.33486 0.563233 8.75427 0.976316L9.37632 1.58898C9.63264 1.84144 9.99641 1.94919 10.3474 1.8766L11.199 1.70044C11.7732 1.58167 12.3365 1.94682 12.4679 2.52306L12.6629 3.37772C12.7432 3.72989 12.9915 4.01893 13.3256 4.14925L14.1365 4.46553C14.6832 4.67878 14.9614 5.29315 14.7631 5.8496L14.469 6.6749C14.3479 7.01497 14.4018 7.39353 14.6131 7.68539L15.1257 8.39369C15.4713 8.87125 15.3761 9.53978 14.911 9.89977L14.2213 10.4337C13.9371 10.6537 13.7796 11.0016 13.8009 11.3623L13.8526 12.2378C13.8874 12.828 13.4489 13.3384 12.8648 13.3877L11.9984 13.4607C11.6414 13.4908 11.3225 13.6976 11.1471 14.0126L10.7213 14.7773C10.4343 15.2928 9.79185 15.4831 9.27406 15.2059L8.5061 14.7949C8.18965 14.6255 7.81052 14.6255 7.49407 14.7949L6.7261 15.2059C6.20831 15.4831 5.56589 15.2928 5.27883 14.7773L4.85309 14.0126C4.67766 13.6976 4.35871 13.4908 4.00172 13.4607L3.13536 13.3877C2.55122 13.3384 2.11276 12.828 2.14759 12.2378L2.19923 11.3623C2.22052 11.0016 2.06302 10.6537 1.77882 10.4337L1.08913 9.89977C0.624107 9.53978 0.528821 8.87125 0.874463 8.39369L1.38711 7.68539C1.59835 7.39353 1.6523 7.01497 1.53113 6.6749L1.23708 5.8496C1.03881 5.29315 1.31695 4.67878 1.86367 4.46553L2.67455 4.14925C3.00868 4.01893 3.25696 3.72989 3.33729 3.37772L3.53223 2.52306C3.66367 1.94682 4.22693 1.58167 4.80115 1.70044L5.65281 1.8766C6.00375 1.94919 6.36752 1.84144 6.62385 1.58898L7.2459 0.976316Z" stroke="white"/>
<path fill-rule="evenodd" clip-rule="evenodd" d="M11.1382 6.1951C11.3985 6.45545 11.3985 6.87756 11.1382 7.13791L7.70719 10.5689C7.31666 10.9594 6.6835 10.9594 6.29297 10.5689L4.86201 9.13791C4.60166 8.87756 4.60166 8.45545 4.86201 8.1951C5.12236 7.93475 5.54447 7.93475 5.80482 8.1951L7.00008 9.39036L10.1953 6.1951C10.4557 5.93475 10.8778 5.93475 11.1382 6.1951Z" stroke="white"/>
</svg>
