<svg width="120" height="26" viewBox="0 0 120 26" fill="none" xmlns="http://www.w3.org/2000/svg">
<g clip-path="url(#clip0_2788_9894)">
<path d="M39.9858 20.505L40.6885 23.4722L41.4911 20.505H42.0051L42.799 23.4722L43.5277 20.505H43.9963L43.0484 24.0557H42.5539L41.7361 21.082L40.9076 24.0557H40.4131L39.4999 20.505H39.9836H39.9858Z" fill="#282A74"/>
<path d="M44.7944 21.8476C44.9831 21.5613 45.2651 21.4181 45.6382 21.4181C46.2173 21.4181 46.5058 21.711 46.5058 22.2966V24.0578H46.0828V22.3964C46.0828 22.2012 46.0416 22.0493 45.9614 21.9452C45.8811 21.8411 45.7336 21.789 45.5189 21.789C45.2586 21.789 45.0742 21.8715 44.9636 22.0385C44.853 22.2055 44.7966 22.4419 44.7966 22.7521V24.0578H44.3715V20.5072H44.7966V21.8498L44.7944 21.8476Z" fill="#282A74"/>
<path d="M48.2215 24.1424C47.8419 24.1424 47.5447 24.0253 47.3322 23.7889C47.1174 23.5524 47.0112 23.2249 47.0112 22.8063C47.0112 22.3877 47.1218 22.0537 47.343 21.7956C47.5643 21.5374 47.8527 21.4095 48.2085 21.4095C48.6032 21.4095 48.8982 21.5439 49.0891 21.8107C49.2799 22.0775 49.3754 22.4159 49.3754 22.8258V22.8866H47.4406L47.4363 22.9169C47.4363 23.1902 47.5079 23.405 47.651 23.5611C47.7942 23.7173 47.9894 23.7954 48.2388 23.7954C48.4254 23.7954 48.5728 23.752 48.6813 23.6652C48.7897 23.5785 48.8722 23.4397 48.9329 23.2466H49.3472C49.217 23.8453 48.844 24.1446 48.2258 24.1446L48.2215 24.1424ZM48.7095 21.9647C48.5794 21.8259 48.408 21.7587 48.1954 21.7587C47.9829 21.7587 47.818 21.8281 47.6814 21.9691C47.5447 22.1101 47.4645 22.3009 47.4363 22.5417H48.9329C48.9134 22.2966 48.8375 22.1036 48.7073 21.9647H48.7095Z" fill="#282A74"/>
<path d="M51.1648 21.8628C51.1344 21.8585 51.0976 21.8585 51.0542 21.8585C50.9175 21.8585 50.8004 21.8801 50.7006 21.9214C50.6009 21.9626 50.5228 22.0168 50.4642 22.084C50.4056 22.1513 50.3579 22.2337 50.3232 22.3335C50.2864 22.4332 50.2625 22.533 50.2517 22.6328C50.2408 22.7326 50.2343 22.8454 50.2343 22.9712V24.0578H49.8092V21.4832H50.2126V22.0363C50.3818 21.6285 50.6985 21.4225 51.1648 21.4225V21.8606V21.8628Z" fill="#282A74"/>
<path d="M52.4727 24.1424C52.0931 24.1424 51.796 24.0253 51.5813 23.7889C51.3665 23.5524 51.2603 23.2249 51.2603 22.8063C51.2603 22.3877 51.3709 22.0537 51.5921 21.7956C51.8133 21.5374 52.1018 21.4095 52.4575 21.4095C52.8545 21.4095 53.1473 21.5439 53.3382 21.8107C53.529 22.0775 53.6245 22.4159 53.6245 22.8258V22.8866H51.6897L51.6854 22.9169C51.6854 23.1902 51.757 23.405 51.9001 23.5611C52.0433 23.7173 52.2385 23.7954 52.4879 23.7954C52.6744 23.7954 52.8219 23.752 52.9304 23.6652C53.0388 23.5785 53.1213 23.4397 53.182 23.2466H53.5963C53.4661 23.8453 53.0931 24.1446 52.4749 24.1446L52.4727 24.1424ZM52.9608 21.9647C52.8306 21.8259 52.6593 21.7587 52.4467 21.7587C52.2341 21.7587 52.0693 21.8281 51.9326 21.9691C51.796 22.1101 51.7157 22.3009 51.6875 22.5417H53.1842C53.1646 22.2966 53.0887 22.1036 52.9608 21.9647Z" fill="#282A74"/>
<path d="M58.0752 23.765C57.8041 24.0166 57.4484 24.1424 57.0059 24.1424C56.5005 24.1424 56.0993 23.9754 55.8043 23.6414C55.5093 23.3073 55.3596 22.8562 55.3596 22.2879C55.3596 21.7565 55.5093 21.3119 55.8065 20.9583C56.1036 20.6048 56.5157 20.4269 57.0406 20.4269C57.4159 20.4269 57.7477 20.5289 58.034 20.7306C58.3203 20.9345 58.4787 21.2143 58.5134 21.5743H58.0449C57.9928 21.3422 57.8757 21.16 57.6957 21.0277C57.5156 20.8954 57.2944 20.8303 57.032 20.8303C56.6372 20.8303 56.3379 20.9692 56.1362 21.249C55.9344 21.5288 55.8347 21.8736 55.8347 22.2814C55.8347 22.7326 55.9409 23.0904 56.1535 23.3486C56.3661 23.6088 56.6567 23.7368 57.0276 23.7368C57.3291 23.7368 57.572 23.6501 57.7499 23.4744C57.9278 23.2987 58.0384 23.0471 58.0731 22.713H58.5416C58.5025 23.162 58.3464 23.5112 58.0752 23.7628V23.765Z" fill="#282A74"/>
<path d="M61.3418 24.047C61.255 24.0795 61.1596 24.0969 61.0533 24.0969C60.8104 24.0969 60.6867 23.9711 60.6802 23.7173C60.4373 23.9906 60.1271 24.1251 59.7476 24.1251C59.4938 24.1251 59.2942 24.06 59.1467 23.9299C58.9993 23.7997 58.9255 23.6219 58.9255 23.3963C58.9255 22.9364 59.2292 22.6697 59.8387 22.5937C59.8777 22.5872 59.9363 22.5807 60.0122 22.5742C60.3007 22.5417 60.4785 22.5026 60.5458 22.4593C60.6217 22.405 60.6607 22.3139 60.6607 22.186C60.6607 21.904 60.4655 21.763 60.0772 21.763C59.8777 21.763 59.7259 21.8042 59.6239 21.8845C59.522 21.9669 59.4591 22.0992 59.4396 22.2857H59.0253C59.0318 22.0103 59.1294 21.7956 59.3203 21.6416C59.5111 21.4876 59.7714 21.4116 60.1033 21.4116C60.4655 21.4116 60.7345 21.4941 60.9101 21.6611C60.9665 21.7153 61.0077 21.7847 61.0338 21.8715C61.0598 21.9582 61.075 22.0276 61.0793 22.084C61.0837 22.1383 61.0837 22.2207 61.0837 22.3313C61.0837 22.4571 61.0793 22.648 61.0728 22.9039C61.0663 23.1599 61.0641 23.3507 61.0641 23.4765C61.0641 23.5698 61.0772 23.6349 61.101 23.6739C61.127 23.713 61.1726 23.7303 61.2377 23.7303C61.2637 23.7303 61.2984 23.726 61.3418 23.7151V24.0448V24.047ZM60.5631 22.7803C60.5306 22.7976 60.4872 22.8106 60.4351 22.8193C60.3831 22.828 60.3484 22.8367 60.331 22.841C60.3137 22.8454 60.2681 22.8519 60.1987 22.8605C60.1293 22.8692 60.0924 22.8735 60.0881 22.8735C59.9862 22.8866 59.9167 22.8952 59.8864 22.9017C59.856 22.9061 59.7953 22.9213 59.7063 22.9451C59.6174 22.969 59.5567 22.995 59.5198 23.0254C59.4829 23.0557 59.4482 23.0991 59.4135 23.1577C59.3788 23.2162 59.3615 23.2857 59.3615 23.3637C59.3615 23.4961 59.407 23.6023 59.4981 23.6782C59.5892 23.7542 59.715 23.7932 59.8755 23.7932C60.0794 23.7932 60.2594 23.7325 60.42 23.6132C60.5805 23.4939 60.6585 23.3529 60.6585 23.1881V22.7195C60.6282 22.7434 60.5978 22.7629 60.5631 22.7803Z" fill="#282A74"/>
<path d="M63.0813 21.8628C63.0509 21.8585 63.0141 21.8585 62.9707 21.8585C62.834 21.8585 62.7169 21.8801 62.6171 21.9214C62.5174 21.9626 62.4393 22.0168 62.3807 22.084C62.3222 22.1513 62.2744 22.2337 62.2397 22.3335C62.2029 22.4332 62.179 22.533 62.1682 22.6328C62.1573 22.7326 62.1508 22.8454 62.1508 22.9712V24.0578H61.7257V21.4832H62.1291V22.0363C62.2983 21.6285 62.615 21.4225 63.0813 21.4225V21.8606V21.8628Z" fill="#282A74"/>
<path d="M64.3892 24.1424C64.0096 24.1424 63.7125 24.0253 63.4977 23.7889C63.283 23.5524 63.1767 23.2249 63.1767 22.8063C63.1767 22.3877 63.2873 22.0537 63.5086 21.7956C63.7298 21.5374 64.0183 21.4095 64.374 21.4095C64.7709 21.4095 65.0638 21.5439 65.2546 21.8107C65.4455 22.0775 65.5409 22.4159 65.5409 22.8258V22.8866H63.6062L63.6018 22.9169C63.6018 23.1902 63.6734 23.405 63.8166 23.5611C63.9597 23.7173 64.1549 23.7954 64.4044 23.7954C64.5909 23.7954 64.7384 23.752 64.8469 23.6652C64.9553 23.5785 65.0377 23.4397 65.0985 23.2466H65.5127C65.3826 23.8453 65.0095 24.1446 64.3914 24.1446L64.3892 24.1424ZM64.8794 21.9647C64.7493 21.8259 64.5779 21.7587 64.3653 21.7587C64.1528 21.7587 63.9879 21.8281 63.8513 21.9691C63.7146 22.1101 63.6344 22.3009 63.6062 22.5417H65.1028C65.0833 22.2966 65.0074 22.1036 64.8794 21.9647Z" fill="#282A74"/>
<path d="M67.0679 24.1424C66.6883 24.1424 66.3912 24.0253 66.1786 23.7889C65.9639 23.5524 65.8576 23.2249 65.8576 22.8063C65.8576 22.3877 65.9682 22.0537 66.1895 21.7956C66.4107 21.5374 66.6992 21.4095 67.0549 21.4095C67.4497 21.4095 67.7446 21.5439 67.9355 21.8107C68.1264 22.0775 68.2218 22.4159 68.2218 22.8258V22.8866H66.2871L66.2827 22.9169C66.2827 23.1902 66.3543 23.405 66.4975 23.5611C66.6406 23.7173 66.8358 23.7954 67.0853 23.7954C67.2718 23.7954 67.4193 23.752 67.5277 23.6652C67.6362 23.5785 67.7186 23.4397 67.7793 23.2466H68.1936C68.0635 23.8453 67.6904 24.1446 67.0722 24.1446L67.0679 24.1424ZM67.5581 21.9647C67.428 21.8259 67.2566 21.7587 67.044 21.7587C66.8315 21.7587 66.6666 21.8281 66.53 21.9691C66.3933 22.1101 66.3131 22.3009 66.2849 22.5417H67.7815C67.762 22.2966 67.6861 22.1036 67.5559 21.9647H67.5581Z" fill="#282A74"/>
<path d="M70.0113 21.8628C69.9809 21.8585 69.944 21.8585 69.9006 21.8585C69.764 21.8585 69.6469 21.8801 69.5471 21.9214C69.4473 21.9626 69.3692 22.0168 69.3107 22.084C69.2521 22.1513 69.2044 22.2337 69.1697 22.3335C69.1328 22.4332 69.109 22.533 69.0981 22.6328C69.0873 22.7326 69.0808 22.8454 69.0808 22.9712V24.0578H68.6556V21.4832H69.0591V22.0363C69.2283 21.6285 69.5449 21.4225 70.0113 21.4225V21.8606V21.8628Z" fill="#282A74"/>
<path d="M71.818 22.2315C71.792 21.9192 71.5816 21.763 71.189 21.763C71.0263 21.763 70.8984 21.7934 70.8051 21.8585C70.7118 21.9214 70.6663 22.0059 70.6663 22.1122C70.6663 22.1426 70.6706 22.1708 70.6771 22.199C70.6836 22.2272 70.6967 22.2532 70.714 22.2727C70.7314 22.2923 70.7487 22.3139 70.7639 22.3291C70.7791 22.3465 70.8029 22.3617 70.8376 22.3768C70.8723 22.392 70.8984 22.405 70.9179 22.4137C70.9352 22.4246 70.9699 22.4354 71.0177 22.4463C71.0654 22.4571 71.1001 22.4658 71.1196 22.4723C71.1391 22.4766 71.1782 22.4875 71.2367 22.5005C71.2953 22.5135 71.3322 22.5222 71.3495 22.5265C71.4732 22.5525 71.5642 22.5742 71.6272 22.5916C71.6901 22.6089 71.7746 22.6393 71.8809 22.6848C71.9872 22.7304 72.0718 22.7759 72.1282 22.8237C72.1846 22.8714 72.2345 22.9386 72.28 23.0232C72.3256 23.1078 72.3473 23.2032 72.3473 23.3095C72.3473 23.559 72.2497 23.7585 72.0544 23.9103C71.8592 24.0622 71.6011 24.1381 71.2779 24.1381C70.9287 24.1381 70.6598 24.0622 70.4732 23.9082C70.2845 23.7542 70.1848 23.5351 70.1718 23.2444H70.5904C70.6142 23.6067 70.8463 23.7889 71.2888 23.7889C71.4775 23.7889 71.6293 23.7498 71.7443 23.6717C71.8592 23.5937 71.9156 23.4895 71.9156 23.3594C71.9156 23.2726 71.8853 23.2011 71.8267 23.1447C71.766 23.0883 71.7009 23.0471 71.6272 23.0232C71.5534 22.9993 71.4493 22.969 71.3126 22.9364C71.2931 22.9343 71.2779 22.9299 71.2671 22.9256C71.2367 22.9191 71.1738 22.9039 71.0741 22.8822C70.9765 22.8605 70.9049 22.8432 70.8615 22.8302C70.8181 22.8172 70.7552 22.7955 70.675 22.7673C70.5925 22.7391 70.5318 22.7087 70.4928 22.6783C70.4537 22.6458 70.4082 22.6068 70.3605 22.559C70.3127 22.5113 70.278 22.4549 70.2585 22.3899C70.239 22.3248 70.2281 22.251 70.2281 22.1686C70.2281 21.9365 70.3171 21.7522 70.4949 21.6155C70.6728 21.4789 70.9114 21.4116 71.2107 21.4116C71.51 21.4116 71.7595 21.4832 71.9525 21.6264C72.1434 21.7695 72.2388 21.9712 72.2388 22.2359H71.8159L71.818 22.2315Z" fill="#282A74"/>
<path d="M74.9414 20.505L76.0845 23.5134L77.1863 20.505H77.8392V24.0557H77.3945V21.0928L76.2819 24.0557H75.8741L74.7419 21.0928V24.0557H74.2929V20.505H74.9414Z" fill="#282A74"/>
<path d="M79.6351 24.1424C79.2556 24.1424 78.9584 24.0253 78.7437 23.7889C78.5289 23.5524 78.4227 23.2249 78.4227 22.8063C78.4227 22.3877 78.5333 22.0537 78.7545 21.7956C78.9758 21.5374 79.2642 21.4095 79.62 21.4095C80.0169 21.4095 80.3097 21.5439 80.5006 21.8107C80.6914 22.0775 80.7869 22.4159 80.7869 22.8258V22.8866H78.8521L78.8478 22.9169C78.8478 23.1902 78.9194 23.405 79.0625 23.5611C79.2057 23.7173 79.4009 23.7954 79.6503 23.7954C79.8369 23.7954 79.9843 23.752 80.0928 23.6652C80.2012 23.5785 80.2837 23.4397 80.3444 23.2466H80.7587C80.6285 23.8453 80.2555 24.1446 79.6373 24.1446L79.6351 24.1424ZM80.1232 21.9647C79.993 21.8259 79.8217 21.7587 79.6091 21.7587C79.3966 21.7587 79.2317 21.8281 79.0951 21.9691C78.9584 22.1101 78.8782 22.3009 78.85 22.5417H80.3466C80.3271 22.2966 80.2511 22.1036 80.1232 21.9647Z" fill="#282A74"/>
<path d="M82.3138 24.1424C81.9342 24.1424 81.6371 24.0253 81.4245 23.7889C81.2098 23.5524 81.1035 23.2249 81.1035 22.8063C81.1035 22.3877 81.2141 22.0537 81.4354 21.7956C81.6566 21.5374 81.9451 21.4095 82.3008 21.4095C82.6956 21.4095 82.9906 21.5439 83.1814 21.8107C83.3723 22.0775 83.4677 22.4159 83.4677 22.8258V22.8866H81.533L81.5286 22.9169C81.5286 23.1902 81.6002 23.405 81.7434 23.5611C81.8865 23.7173 82.0817 23.7954 82.3312 23.7954C82.5177 23.7954 82.6652 23.752 82.7736 23.6652C82.8821 23.5785 82.9645 23.4397 83.0253 23.2466H83.4395C83.3094 23.8453 82.9363 24.1446 82.3182 24.1446L82.3138 24.1424ZM82.8018 21.9647C82.6717 21.8259 82.5004 21.7587 82.2878 21.7587C82.0752 21.7587 81.9104 21.8281 81.7737 21.9691C81.6371 22.1101 81.5568 22.3009 81.5286 22.5417H83.0253C83.0057 22.2966 82.9298 22.1036 82.7997 21.9647H82.8018Z" fill="#282A74"/>
<path d="M85.0186 21.8324H84.5045V23.3334C84.5045 23.4158 84.5045 23.4722 84.5067 23.4982C84.5089 23.5242 84.5175 23.5611 84.5349 23.6045C84.5522 23.65 84.5804 23.6782 84.6195 23.6913C84.6585 23.7043 84.7149 23.7108 84.7887 23.7108C84.8516 23.7108 84.9275 23.7064 85.0186 23.6956V24.06C84.8993 24.073 84.7908 24.0795 84.6932 24.0795C84.5739 24.0795 84.4742 24.0665 84.3939 24.0405C84.3137 24.0144 84.2529 23.9841 84.2117 23.9515C84.1705 23.919 84.1401 23.8604 84.1184 23.7737C84.0989 23.6891 84.0881 23.6175 84.0837 23.559C84.0794 23.5004 84.0794 23.4028 84.0794 23.2661V21.8303H83.6456V21.481H84.0794V20.7176H84.5045V21.481H85.0186V21.8303V21.8324Z" fill="#282A74"/>
<path d="M88.4304 20.505C88.7926 20.505 89.0811 20.5874 89.2937 20.7523C89.5062 20.9171 89.6125 21.1752 89.6125 21.5288C89.6125 22.2445 89.2091 22.6024 88.4 22.6024H87.437V24.0578H86.9685V20.5072H88.4304V20.505ZM87.437 22.2077H88.3393C88.5931 22.2077 88.7883 22.1599 88.9293 22.0645C89.0703 21.9691 89.1418 21.8021 89.1418 21.5591C89.1418 21.4225 89.1202 21.3097 89.0746 21.2208C89.0291 21.1318 88.964 21.0646 88.8772 21.0212C88.7905 20.9778 88.7015 20.9496 88.6083 20.9345C88.515 20.9193 88.4044 20.9128 88.2742 20.9128H87.437V22.2098V22.2077Z" fill="#282A74"/>
<path d="M92.2414 24.0578H91.8466V23.6544C91.6275 23.9711 91.3304 24.1272 90.9595 24.1272C90.6862 24.1272 90.4758 24.0535 90.3261 23.9038C90.1765 23.7542 90.1006 23.5373 90.1006 23.2553V21.4854H90.5257V23.1403C90.5257 23.3442 90.5647 23.496 90.6428 23.6023C90.7209 23.7064 90.8619 23.7585 91.0636 23.7585C91.5646 23.7585 91.8162 23.4483 91.8162 22.8302V21.4832H92.2414V24.0578Z" fill="#282A74"/>
<path d="M94.2217 21.8628C94.1913 21.8585 94.1544 21.8585 94.111 21.8585C93.9744 21.8585 93.8573 21.8801 93.7575 21.9214C93.6577 21.9626 93.5796 22.0168 93.5211 22.084C93.4625 22.1513 93.4148 22.2337 93.3801 22.3335C93.3432 22.4332 93.3194 22.533 93.3085 22.6328C93.2977 22.7326 93.2912 22.8454 93.2912 22.9712V24.0578H92.866V21.4832H93.2695V22.0363C93.4386 21.6285 93.7553 21.4225 94.2217 21.4225V21.8606V21.8628Z" fill="#282A74"/>
<path d="M94.9396 21.8476C95.1261 21.5505 95.4146 21.403 95.8072 21.403C96.1673 21.403 96.4514 21.5244 96.6618 21.7674C96.8722 22.0103 96.9785 22.34 96.9785 22.7543C96.9785 23.1685 96.8743 23.5026 96.6661 23.7498C96.4579 23.9971 96.1781 24.1207 95.8245 24.1207C95.471 24.1207 95.1673 23.9797 94.9613 23.6978V25.0491H94.5383V21.4832H94.9374V21.8476H94.9396ZM95.163 22.0255C95.022 22.2033 94.9504 22.4484 94.9504 22.7608C94.9504 23.0731 95.022 23.3182 95.1673 23.496C95.3127 23.6739 95.51 23.7628 95.7573 23.7628C96.0046 23.7628 96.1911 23.6739 96.3299 23.4939C96.4687 23.3139 96.5403 23.0688 96.5403 22.7608C96.5403 22.4528 96.4687 22.2033 96.3278 22.0255C96.1868 21.8476 95.9916 21.7587 95.7421 21.7587C95.4927 21.7587 95.3018 21.8476 95.1608 22.0255H95.163Z" fill="#282A74"/>
<path d="M99.5335 21.763C99.7504 21.9994 99.8589 22.3291 99.8589 22.7564C99.8589 23.1837 99.7504 23.5308 99.5335 23.7737C99.3166 24.0166 99.013 24.1381 98.6204 24.1381C98.2278 24.1381 97.9198 24.0188 97.6986 23.778C97.4773 23.5373 97.3645 23.2054 97.3645 22.7803C97.3645 22.3552 97.4773 22.0233 97.7029 21.7782C97.9285 21.5331 98.2365 21.4095 98.6269 21.4095C99.0173 21.4095 99.3188 21.5266 99.5335 21.763ZM98.0239 22.0363C97.8786 22.2185 97.8048 22.4636 97.8048 22.7694C97.8048 23.0753 97.8764 23.3312 98.0217 23.5091C98.1671 23.6869 98.3688 23.7759 98.6269 23.7759C98.885 23.7759 99.0715 23.6869 99.2125 23.5069C99.3535 23.3269 99.4251 23.0796 99.4251 22.7629C99.4251 22.4463 99.3535 22.2142 99.2082 22.032C99.0629 21.8498 98.8677 21.7608 98.6182 21.7608C98.3688 21.7608 98.1714 21.8519 98.0239 22.0341V22.0363Z" fill="#282A74"/>
<path d="M101.848 22.2315C101.822 21.9192 101.611 21.763 101.219 21.763C101.056 21.763 100.928 21.7934 100.835 21.8585C100.742 21.9214 100.696 22.0059 100.696 22.1122C100.696 22.1426 100.698 22.1708 100.705 22.199C100.711 22.2272 100.724 22.2532 100.742 22.2727C100.761 22.2944 100.776 22.3139 100.792 22.3291C100.807 22.3443 100.831 22.3617 100.867 22.3768C100.902 22.392 100.928 22.405 100.948 22.4137C100.967 22.4224 101 22.4354 101.048 22.4463C101.095 22.4571 101.13 22.4658 101.149 22.4723C101.169 22.4788 101.208 22.4875 101.267 22.5005C101.325 22.5135 101.362 22.5222 101.379 22.5265C101.503 22.5525 101.594 22.5742 101.657 22.5916C101.72 22.6089 101.802 22.6393 101.911 22.6848C102.019 22.7304 102.102 22.7759 102.158 22.8237C102.214 22.8714 102.264 22.9386 102.31 23.0232C102.355 23.1078 102.377 23.2032 102.377 23.3095C102.377 23.559 102.28 23.7585 102.084 23.9103C101.889 24.0622 101.631 24.1381 101.31 24.1381C100.961 24.1381 100.692 24.0622 100.505 23.9082C100.317 23.7542 100.217 23.5351 100.204 23.2444H100.622C100.646 23.6067 100.878 23.7889 101.321 23.7889C101.512 23.7889 101.664 23.7498 101.778 23.6717C101.893 23.5937 101.95 23.4895 101.95 23.3594C101.95 23.2726 101.919 23.2011 101.861 23.1447C101.802 23.0883 101.735 23.0471 101.661 23.0232C101.588 22.9993 101.483 22.969 101.347 22.9364C101.327 22.9343 101.312 22.9299 101.301 22.9256C101.271 22.9191 101.208 22.9039 101.11 22.8822C101.013 22.8605 100.941 22.8432 100.898 22.8302C100.854 22.8172 100.792 22.7955 100.711 22.7673C100.631 22.7391 100.568 22.7087 100.529 22.6783C100.49 22.6458 100.445 22.6068 100.397 22.559C100.349 22.5113 100.314 22.4549 100.295 22.3899C100.275 22.3248 100.264 22.251 100.264 22.1686C100.264 21.9365 100.353 21.7522 100.531 21.6155C100.709 21.4789 100.948 21.4116 101.247 21.4116C101.546 21.4116 101.796 21.4832 101.987 21.6264C102.178 21.7695 102.273 21.9712 102.273 22.2359H101.848V22.2315Z" fill="#282A74"/>
<path d="M103.934 24.1424C103.555 24.1424 103.258 24.0253 103.043 23.7889C102.828 23.5524 102.722 23.2249 102.722 22.8063C102.722 22.3877 102.833 22.0537 103.054 21.7956C103.275 21.5374 103.564 21.4095 103.919 21.4095C104.316 21.4095 104.609 21.5439 104.8 21.8107C104.991 22.0775 105.086 22.4159 105.086 22.8258V22.8866H103.151L103.147 22.9169C103.147 23.1902 103.219 23.405 103.362 23.5611C103.505 23.7173 103.7 23.7954 103.95 23.7954C104.136 23.7954 104.284 23.752 104.392 23.6652C104.501 23.5785 104.583 23.4397 104.644 23.2466H105.058C104.928 23.8453 104.555 24.1446 103.937 24.1446L103.934 24.1424ZM104.422 21.9647C104.292 21.8259 104.121 21.7587 103.908 21.7587C103.696 21.7587 103.531 21.8281 103.394 21.9691C103.258 22.1101 103.177 22.3009 103.149 22.5417H104.646C104.626 22.2966 104.55 22.1036 104.422 21.9647Z" fill="#282A74"/>
<path d="M44.9419 8.13952C44.4192 8.64273 43.7013 8.89433 42.7903 8.89433C41.8034 8.89433 41.0074 8.56681 40.4044 7.91395C39.8014 7.26108 39.4999 6.39564 39.4999 5.31765C39.4999 4.29822 39.8036 3.45014 40.4131 2.77558C41.0225 2.09885 41.8338 1.76266 42.8467 1.76266C43.6557 1.76266 44.3346 1.99257 44.8834 2.45023C45.4321 2.91006 45.7336 3.49135 45.7922 4.20061H44.3303C44.2544 3.82538 44.083 3.53256 43.8184 3.32651C43.5538 3.12045 43.2197 3.01634 42.8185 3.01634C42.4172 3.01634 42.055 3.13347 41.7709 3.36555C41.4867 3.59763 41.2872 3.88394 41.1722 4.2223C41.0573 4.56067 41.0009 4.9294 41.0009 5.33066C41.0009 6.03125 41.1635 6.59085 41.4889 7.00947C41.8142 7.42809 42.2502 7.63631 42.799 7.63631C43.7099 7.63631 44.2305 7.1266 44.3585 6.10717H45.8399C45.764 6.96175 45.4647 7.64065 44.9419 8.14386V8.13952Z" fill="#282A74"/>
<path d="M52.3382 2.75172C52.9542 3.4111 53.2601 4.27436 53.2601 5.33717C53.2601 6.39998 52.9521 7.26108 52.3382 7.91395C51.7222 8.56681 50.9154 8.89433 49.9155 8.89433C48.9155 8.89433 48.0957 8.56681 47.4775 7.91395C46.8593 7.26108 46.5492 6.40215 46.5492 5.33717C46.5492 4.27219 46.8572 3.39375 47.471 2.74088C48.087 2.08801 48.9047 1.76049 49.9241 1.76049C50.9436 1.76049 51.7222 2.09018 52.3382 2.74955V2.75172ZM48.562 3.61715C48.228 4.03794 48.061 4.60188 48.061 5.30897C48.061 6.01607 48.2258 6.61471 48.5577 7.02899C48.8895 7.44327 49.345 7.65367 49.9241 7.66017C50.4924 7.66017 50.9371 7.44978 51.2624 7.02899C51.5878 6.60821 51.7504 6.03559 51.7504 5.30897C51.7504 4.58236 51.5856 4.02926 51.2537 3.61282C50.9219 3.19637 50.4729 2.98597 49.9046 2.98597C49.3363 2.98597 48.896 3.19637 48.562 3.61715Z" fill="#282A74"/>
<path d="M57.726 1.92533C58.4006 1.92533 58.9537 2.08367 59.381 2.40251C59.8083 2.72136 60.0209 3.20504 60.0209 3.85574C60.0209 4.2505 59.9254 4.59754 59.7345 4.89253C59.5437 5.18968 59.2791 5.40007 58.9407 5.52804C59.5263 5.64951 59.8625 6.17874 59.9449 7.11575C59.9449 7.14829 59.9514 7.24589 59.9645 7.41291C59.9775 7.57992 59.9905 7.71006 60.0035 7.80983C60.0165 7.90961 60.0317 8.0289 60.0512 8.16772C60.0707 8.3087 60.0989 8.42583 60.138 8.52127C60.177 8.6167 60.2204 8.68611 60.2725 8.73166H58.7238C58.6739 8.62972 58.6349 8.49958 58.6088 8.34341C58.5828 8.18724 58.5611 7.98552 58.5416 7.74043C58.5221 7.49533 58.5134 7.35868 58.5134 7.33482C58.4635 6.85764 58.342 6.52578 58.1555 6.34142C57.9668 6.15705 57.6349 6.06379 57.1556 6.06379H55.826V8.73166H54.3446V1.92533H57.7282H57.726ZM55.8238 4.98579H57.238C57.6523 4.98579 57.9755 4.92072 58.2076 4.79058C58.4396 4.66044 58.5568 4.40233 58.5568 4.02059C58.5568 3.6627 58.444 3.42194 58.2184 3.29397C57.9928 3.166 57.687 3.1031 57.3053 3.1031H55.8238V4.98579Z" fill="#282A74"/>
<path d="M64.1311 1.92533C64.8968 1.92533 65.5041 2.10753 65.9531 2.47409C66.402 2.84065 66.6276 3.38724 66.6276 4.11386C66.6276 4.84047 66.4042 5.36754 65.9574 5.7341C65.5106 6.10066 64.9271 6.28286 64.207 6.28286H62.6779V8.72949H61.1964V1.92533H64.1311ZM62.6779 5.10943H64.0075C64.784 5.10943 65.1744 4.78408 65.1744 4.13338C65.1744 3.48268 64.7883 3.14865 64.0183 3.14865H62.68V5.10943H62.6779Z" fill="#282A74"/>
<path d="M73.0565 2.75172C73.6725 3.4111 73.9783 4.27436 73.9783 5.33717C73.9783 6.39998 73.6703 7.26108 73.0565 7.91395C72.4405 8.56681 71.6337 8.89433 70.6338 8.89433C69.6338 8.89433 68.814 8.56681 68.1958 7.91395C67.5776 7.26108 67.2675 6.40215 67.2675 5.33717C67.2675 4.27219 67.5755 3.39375 68.1893 2.74088C68.8053 2.08801 69.6208 1.76049 70.6424 1.76049C71.664 1.76049 72.4405 2.09018 73.0565 2.74955V2.75172ZM69.2803 3.61715C68.9463 4.03794 68.7793 4.60188 68.7793 5.30897C68.7793 6.01607 68.9441 6.61471 69.276 7.02899C69.6078 7.44327 70.0633 7.65367 70.6424 7.66017C71.2107 7.66017 71.6553 7.44978 71.9807 7.02899C72.306 6.60821 72.4687 6.03559 72.4687 5.30897C72.4687 4.58236 72.3039 4.02926 71.972 3.61282C71.6402 3.19637 71.1912 2.98597 70.6229 2.98597C70.0546 2.98597 69.6143 3.19637 69.2803 3.61715Z" fill="#282A74"/>
<path d="M78.4443 1.92533C79.1189 1.92533 79.672 2.08367 80.0993 2.40251C80.5266 2.72136 80.7391 3.20504 80.7391 3.85574C80.7391 4.2505 80.6437 4.59754 80.4528 4.89253C80.262 5.18968 79.9973 5.40007 79.659 5.52804C80.2446 5.64951 80.5808 6.17874 80.6632 7.11575C80.6632 7.14829 80.6697 7.24589 80.6827 7.41291C80.6958 7.57992 80.7088 7.71006 80.7218 7.80983C80.7348 7.90961 80.75 8.0289 80.7695 8.16772C80.789 8.3087 80.8172 8.42583 80.8563 8.52127C80.8953 8.6167 80.9387 8.68611 80.9908 8.73166H79.4421C79.39 8.62972 79.3532 8.49958 79.3271 8.34341C79.3011 8.18724 79.2794 7.98552 79.2599 7.74043C79.2404 7.49533 79.2317 7.35868 79.2317 7.33482C79.1818 6.85764 79.0603 6.52578 78.8738 6.34142C78.6851 6.15705 78.3532 6.06379 77.8739 6.06379H76.5443V8.73166H75.0629V1.92533H78.4487H78.4443ZM76.5421 4.98579H77.9563C78.3706 4.98579 78.6938 4.92072 78.9259 4.79058C79.1579 4.66044 79.2751 4.40233 79.2751 4.02059C79.2751 3.6627 79.1623 3.42194 78.9367 3.29397C78.7111 3.166 78.4053 3.1031 78.0236 3.1031H76.5421V4.98579Z" fill="#282A74"/>
<path d="M87.8816 8.73383H86.3135L85.7777 7.21336H83.2443L82.6891 8.73383H81.1599L83.7519 1.91666H85.2919L87.8838 8.73383H87.8816ZM84.5154 3.58896L83.6065 6.12235H85.4133L84.5154 3.58896Z" fill="#282A74"/>
<path d="M92.8053 3.19637H90.7599V8.73166H89.259V3.19637H87.2136V1.92533H92.8075V3.19637H92.8053Z" fill="#282A74"/>
<path d="M98.6963 3.14865H95.0719V4.63008H98.3992V5.80568H95.0719V7.47798H98.7636V8.72949H93.5905V1.92533H98.6963V3.14865Z" fill="#282A74"/>
<path d="M103.41 3.95335C103.353 3.27662 102.922 2.94042 102.119 2.94042C101.774 2.94042 101.505 3.00983 101.312 3.14648C101.119 3.28313 101.021 3.474 101.021 3.71476C101.021 3.79718 101.034 3.87093 101.061 3.93383C101.087 3.99673 101.134 4.05746 101.204 4.11169C101.273 4.16591 101.345 4.21146 101.414 4.24616C101.483 4.28087 101.588 4.31991 101.724 4.36112C101.861 4.40233 101.984 4.4392 102.097 4.47174C102.208 4.50427 102.366 4.54549 102.57 4.59537C102.774 4.64526 102.952 4.69515 103.106 4.73853C103.776 4.9294 104.275 5.16799 104.602 5.45647C104.93 5.74277 105.095 6.15489 105.095 6.69063C105.095 7.07888 105.015 7.41941 104.856 7.71006C104.698 8.00071 104.481 8.22845 104.21 8.39763C103.939 8.56681 103.642 8.69045 103.321 8.7707C103 8.85095 102.657 8.89 102.292 8.89C101.369 8.89 100.646 8.67743 100.128 8.25448C99.6073 7.83152 99.3448 7.23288 99.3383 6.46071H100.82C100.846 7.3153 101.358 7.74259 102.36 7.74259C102.748 7.74259 103.056 7.66234 103.282 7.49967C103.507 7.33699 103.62 7.11575 103.62 6.83595C103.62 6.59953 103.516 6.42818 103.31 6.31973C103.102 6.21128 102.668 6.06162 102.004 5.87075C101.965 5.86424 101.937 5.85773 101.917 5.85122C101.898 5.84472 101.872 5.83604 101.841 5.82737C101.811 5.81869 101.781 5.81001 101.755 5.80351C101.525 5.74061 101.366 5.69289 101.277 5.66469C101.188 5.63649 101.047 5.58661 100.852 5.5172C100.657 5.44779 100.516 5.38272 100.427 5.32633C100.338 5.26993 100.228 5.18968 100.097 5.08774C99.9673 4.98579 99.8719 4.87951 99.8155 4.76672C99.7591 4.65611 99.7049 4.51729 99.6572 4.35461C99.6094 4.19194 99.5856 4.01625 99.5856 3.82321C99.5856 3.20504 99.8242 2.71051 100.304 2.34178C100.781 1.97305 101.416 1.78652 102.206 1.78652C102.995 1.78652 103.596 1.96654 104.08 2.3266C104.563 2.68665 104.813 3.23107 104.826 3.95769H103.412L103.41 3.95335Z" fill="#282A74"/>
<path d="M110.919 8.18073C110.626 8.39763 110.303 8.55814 109.953 8.66659C109.604 8.77504 109.229 8.82926 108.828 8.82926C108.043 8.82926 107.403 8.60586 106.91 8.15904C106.418 7.71223 106.171 7.13527 106.171 6.43252C106.171 5.72976 106.405 5.181 106.873 4.73419C107.342 4.28954 108.049 3.96419 108.993 3.75814C108.975 3.59546 108.964 3.47617 108.958 3.39808C108.954 3.32 108.949 3.24842 108.949 3.18118C108.949 2.45674 109.14 1.87761 109.52 1.44381C109.899 1.01001 110.405 0.793114 111.034 0.793114C111.465 0.793114 111.801 0.88855 112.042 1.08159C112.283 1.27463 112.402 1.54142 112.402 1.87978C112.402 2.31141 112.168 2.68882 111.699 3.012C111.231 3.33518 110.452 3.64969 109.363 3.95335C109.455 4.64743 109.635 5.30897 109.901 5.94232C110.168 6.57567 110.524 7.18733 110.971 7.7773C111.166 7.57992 111.316 7.38254 111.422 7.18733C111.528 6.99212 111.58 6.81209 111.58 6.64725C111.576 6.567 111.565 6.49976 111.545 6.44553C111.526 6.39348 111.504 6.36528 111.478 6.36528C111.474 6.36528 111.463 6.37179 111.446 6.38697C111.344 6.47156 111.235 6.51494 111.123 6.51494C110.999 6.51494 110.899 6.4759 110.823 6.39781C110.747 6.31973 110.708 6.21779 110.708 6.08982C110.708 5.95534 110.754 5.84472 110.843 5.76013C110.932 5.67554 111.053 5.63216 111.207 5.63216C111.404 5.63216 111.571 5.71892 111.704 5.89244C111.836 6.06596 111.903 6.28719 111.903 6.55615C111.903 6.82511 111.838 7.06153 111.71 7.29795C111.58 7.53437 111.385 7.77079 111.125 8.00287L111.374 8.32606L111.378 8.33039C111.459 8.44969 111.5 8.53645 111.5 8.58417C111.5 8.61236 111.496 8.63405 111.485 8.65141C111.474 8.66876 111.459 8.67526 111.437 8.67526C111.374 8.67526 111.309 8.63839 111.246 8.56465C111.231 8.54729 111.222 8.53645 111.22 8.53211L110.919 8.17639V8.18073ZM110.765 7.9378C110.3 7.30879 109.93 6.67545 109.648 6.03776C109.366 5.40007 109.162 4.73419 109.034 4.03794C108.311 4.27436 107.763 4.61489 107.387 5.05954C107.01 5.50418 106.824 6.03342 106.824 6.64942C106.824 7.21986 107.017 7.67319 107.405 8.00938C107.793 8.34775 108.314 8.51693 108.973 8.51693C109.309 8.51693 109.624 8.46921 109.917 8.37594C110.209 8.28268 110.494 8.13735 110.765 7.9378ZM109.342 3.67789C110.149 3.47183 110.762 3.20721 111.185 2.88186C111.608 2.55651 111.819 2.18778 111.819 1.77784C111.819 1.56094 111.747 1.38525 111.604 1.24643C111.461 1.10762 111.279 1.04038 111.055 1.04038C110.815 1.04038 110.576 1.12931 110.342 1.30717C110.107 1.48503 109.891 1.74097 109.697 2.07282C109.57 2.29623 109.476 2.5153 109.413 2.73003C109.35 2.94476 109.32 3.16383 109.32 3.3829C109.32 3.42194 109.32 3.45882 109.322 3.49786C109.322 3.53473 109.331 3.59329 109.342 3.67572V3.67789Z" fill="#282A74"/>
<path d="M42.7035 9.85737C43.4692 9.85737 44.0765 10.0396 44.5255 10.4061C44.9745 10.7727 45.2001 11.3193 45.2001 12.0459C45.2001 12.7725 44.9767 13.2996 44.5298 13.6661C44.083 14.0327 43.4996 14.2149 42.7795 14.2149H41.2503V16.6615H39.7689V9.85303H42.7035V9.85737ZM41.2503 13.0415H42.5799C43.3564 13.0415 43.7468 12.7161 43.7468 12.0654C43.7468 11.4147 43.3608 11.0807 42.5908 11.0807H41.2525V13.0415H41.2503Z" fill="#282A74"/>
<path d="M49.5793 9.85737C50.2538 9.85737 50.8069 10.0157 51.2342 10.3346C51.6615 10.6534 51.8741 11.1371 51.8741 11.7878C51.8741 12.1825 51.7786 12.5296 51.5878 12.8246C51.3969 13.1217 51.1323 13.3321 50.7939 13.4601C51.3795 13.5815 51.7157 14.1108 51.7981 15.0478C51.7981 15.0803 51.8047 15.1779 51.8177 15.3449C51.8307 15.512 51.8437 15.6421 51.8567 15.7419C51.8697 15.8416 51.8849 15.9609 51.9044 16.0998C51.9239 16.2407 51.9521 16.3579 51.9912 16.4533C52.0302 16.5487 52.0736 16.6181 52.1257 16.6637H50.577C50.5271 16.5618 50.4881 16.4316 50.462 16.2754C50.436 16.1193 50.4143 15.9176 50.3948 15.6725C50.3753 15.4274 50.3666 15.2907 50.3666 15.2669C50.3167 14.7897 50.1953 14.4578 50.0087 14.2735C49.82 14.0891 49.4882 13.9958 49.0088 13.9958H47.6792V16.6637H46.1978V9.8552H49.5814L49.5793 9.85737ZM47.677 12.9157H49.0912C49.5055 12.9157 49.8287 12.8506 50.0608 12.7205C50.2929 12.5903 50.41 12.3322 50.41 11.9505C50.41 11.5926 50.2972 11.3518 50.0716 11.2238C49.846 11.0959 49.5402 11.033 49.1585 11.033H47.677V12.9157Z" fill="#282A74"/>
<path d="M58.5329 10.6838C59.1489 11.3431 59.4547 12.2064 59.4547 13.2692C59.4547 14.332 59.1467 15.1931 58.5329 15.846C57.9169 16.4989 57.11 16.8264 56.1101 16.8264C55.1102 16.8264 54.2903 16.4989 53.6722 15.846C53.054 15.1931 52.7438 14.3342 52.7438 13.2692C52.7438 12.2042 53.0518 11.3258 53.6657 10.6729C54.2817 10.02 55.0972 9.69253 56.1188 9.69253C57.1404 9.69253 57.9169 10.0222 58.5329 10.6816V10.6838ZM54.7567 11.5492C54.4226 11.97 54.2556 12.5339 54.2556 13.241C54.2556 13.9481 54.4205 14.5468 54.7523 14.961C55.0842 15.3753 55.5397 15.5857 56.1188 15.5922C56.6871 15.5922 57.1317 15.3818 57.4571 14.961C57.7824 14.5402 57.9451 13.9676 57.9451 13.241C57.9451 12.5144 57.7803 11.9613 57.4484 11.5449C57.1165 11.1284 56.6676 10.918 56.0993 10.918C55.531 10.918 55.0907 11.1284 54.7567 11.5492Z" fill="#282A74"/>
<path d="M65.2785 11.1089H61.9708V12.6857H64.8491V13.8722H61.9708V16.6637H60.4785V9.8552H65.2785V11.1067V11.1089Z" fill="#282A74"/>
<path d="M71.2541 11.0807H67.6297V12.5621H70.957V13.7377H67.6297V15.41H71.3213V16.6615H66.1483V9.85303H71.2541V11.0763V11.0807Z" fill="#282A74"/>
<path d="M75.9673 11.8832C75.9109 11.2065 75.4793 10.8703 74.6768 10.8703C74.3319 10.8703 74.0629 10.9397 73.8699 11.0763C73.6747 11.213 73.5793 11.4039 73.5793 11.6446C73.5793 11.727 73.5923 11.8008 73.6183 11.8637C73.6443 11.9266 73.692 11.9873 73.7615 12.0416C73.8309 12.0958 73.9024 12.1413 73.9718 12.176C74.0413 12.2107 74.1454 12.2498 74.282 12.291C74.4187 12.3322 74.5445 12.3691 74.6551 12.4016C74.7657 12.4341 74.924 12.4754 75.1279 12.5252C75.3318 12.5751 75.5097 12.625 75.6637 12.6684C76.3339 12.8593 76.8328 13.0979 77.1603 13.3863C77.4878 13.6726 77.6526 14.0848 77.6526 14.6205C77.6526 15.0087 77.5724 15.3493 77.4141 15.6399C77.2557 15.9306 77.0388 16.1583 76.7677 16.3275C76.4966 16.4967 76.1994 16.6203 75.8784 16.7006C75.5574 16.7808 75.2147 16.8199 74.8503 16.8199C73.9263 16.8199 73.204 16.6073 72.6856 16.1843C72.1651 15.7614 71.9026 15.1627 71.8961 14.3906H73.3775C73.4036 15.2452 73.9155 15.6725 74.9175 15.6725C75.3058 15.6725 75.6138 15.5922 75.8394 15.4295C76.0649 15.2669 76.1777 15.0456 76.1777 14.7658C76.1777 14.5294 76.0736 14.358 75.8676 14.2496C75.6615 14.1411 75.2255 13.9915 74.5618 13.8006C74.5228 13.7941 74.4946 13.7876 74.4751 13.7811C74.4555 13.7746 74.4295 13.7659 74.3991 13.7572C74.3666 13.7486 74.3384 13.7399 74.3124 13.7334C74.0825 13.6705 73.9241 13.6228 73.8352 13.5946C73.7463 13.5664 73.6053 13.5165 73.4101 13.4471C73.2149 13.3777 73.0739 13.3126 72.985 13.2562C72.896 13.1998 72.7854 13.1195 72.6553 13.0176C72.5251 12.9157 72.4297 12.8094 72.3733 12.6966C72.3169 12.586 72.2627 12.4472 72.215 12.2845C72.1672 12.1218 72.1434 11.9461 72.1434 11.7531C72.1434 11.1349 72.382 10.6404 72.8613 10.2716C73.3385 9.90292 73.974 9.71638 74.7635 9.71638C75.5531 9.71638 76.1539 9.89641 76.6376 10.2565C77.1212 10.6165 77.3707 11.1588 77.3837 11.8854H75.9695L75.9673 11.8832Z" fill="#282A74"/>
<path d="M82.1728 11.8832C82.1164 11.2065 81.6848 10.8703 80.8823 10.8703C80.5374 10.8703 80.2685 10.9397 80.0754 11.0763C79.8802 11.213 79.7848 11.4039 79.7848 11.6446C79.7848 11.727 79.7978 11.8008 79.8238 11.8637C79.8498 11.9266 79.8976 11.9873 79.967 12.0416C80.0364 12.0958 80.108 12.1413 80.1774 12.176C80.2468 12.2107 80.3509 12.2498 80.4875 12.291C80.6242 12.3322 80.7478 12.3691 80.8606 12.4016C80.9712 12.4341 81.1295 12.4754 81.3334 12.5252C81.5373 12.5751 81.7152 12.625 81.8692 12.6684C82.5394 12.8593 83.0383 13.0979 83.3658 13.3863C83.6933 13.6726 83.8582 14.0848 83.8582 14.6205C83.8582 15.0087 83.7779 15.3493 83.6196 15.6399C83.4612 15.9306 83.2443 16.1583 82.9732 16.3275C82.7021 16.4967 82.4049 16.6203 82.0839 16.7006C81.7629 16.7808 81.4202 16.8199 81.0558 16.8199C80.1318 16.8199 79.4095 16.6073 78.8911 16.1843C78.3706 15.7614 78.1081 15.1627 78.1016 14.3906H79.5831C79.6091 15.2452 80.121 15.6725 81.123 15.6725C81.5113 15.6725 81.8193 15.5922 82.0449 15.4295C82.2704 15.2669 82.3832 15.0456 82.3832 14.7658C82.3832 14.5294 82.2791 14.358 82.0731 14.2496C81.867 14.1411 81.431 13.9915 80.7673 13.8006C80.7283 13.7941 80.7001 13.7876 80.6806 13.7811C80.661 13.7746 80.635 13.7659 80.6047 13.7572C80.5743 13.7486 80.5439 13.7399 80.5179 13.7334C80.288 13.6705 80.1296 13.6228 80.0407 13.5946C79.9518 13.5664 79.8086 13.5165 79.6156 13.4471C79.4204 13.3777 79.2794 13.3126 79.1905 13.2562C79.1015 13.1998 78.9909 13.1195 78.8608 13.0176C78.7306 12.9157 78.6352 12.8094 78.5788 12.6966C78.5202 12.586 78.4682 12.4472 78.4205 12.2845C78.3727 12.1218 78.3489 11.9461 78.3489 11.7531C78.3489 11.1349 78.5875 10.6404 79.0668 10.2716C79.5462 9.90292 80.1795 9.71638 80.969 9.71638C81.7586 9.71638 82.3594 9.89641 82.8431 10.2565C83.3268 10.6165 83.5762 11.1588 83.5892 11.8854H82.175L82.1728 11.8832Z" fill="#282A74"/>
<path d="M86.2571 16.6637H84.7561V9.8552H86.2571V16.6637Z" fill="#282A74"/>
<path d="M93.0678 10.6838C93.6838 11.3431 93.9896 12.2064 93.9896 13.2692C93.9896 14.332 93.6816 15.1931 93.0678 15.846C92.4518 16.4989 91.6449 16.8264 90.6428 16.8264C89.6407 16.8264 88.823 16.4989 88.2049 15.846C87.5867 15.1931 87.2765 14.3342 87.2765 13.2692C87.2765 12.2042 87.5845 11.3258 88.1983 10.6729C88.8143 10.02 89.6299 9.69253 90.6515 9.69253C91.6731 9.69253 92.4496 10.0222 93.0656 10.6816L93.0678 10.6838ZM89.2915 11.5492C88.9575 11.97 88.7905 12.5339 88.7905 13.241C88.7905 13.9481 88.9553 14.5468 89.2872 14.961C89.619 15.3753 90.0745 15.5857 90.6537 15.5922C91.2219 15.5922 91.6666 15.3818 91.9919 14.961C92.3173 14.5402 92.48 13.9676 92.48 13.241C92.48 12.5144 92.3151 11.9613 91.9833 11.5449C91.6514 11.1284 91.2024 10.918 90.6341 10.918C90.0659 10.918 89.6256 11.1284 89.2915 11.5492Z" fill="#282A74"/>
<path d="M95.0133 9.85737H96.5338L99.3362 14.4188V9.85737H100.77V16.6659H99.2776L96.4579 12.0958V16.6659H95.0133V9.85737Z" fill="#282A74"/>
<path d="M108.075 16.6637H106.507L105.971 15.1432H103.438L102.882 16.6637H101.353L103.945 9.84653H105.485L108.077 16.6637H108.075ZM104.709 11.521L103.8 14.0544H105.607L104.709 11.521Z" fill="#282A74"/>
<path d="M113.467 16.6637H108.648V9.8552H110.14V15.3818H113.467V16.6637Z" fill="#282A74"/>
<path d="M117.942 11.8832C117.885 11.2065 117.454 10.8703 116.651 10.8703C116.306 10.8703 116.037 10.9397 115.844 11.0763C115.649 11.213 115.554 11.4039 115.554 11.6446C115.554 11.727 115.567 11.8008 115.593 11.8637C115.619 11.9266 115.667 11.9873 115.736 12.0416C115.805 12.0958 115.877 12.1413 115.946 12.176C116.016 12.2107 116.12 12.2498 116.257 12.291C116.393 12.3322 116.517 12.3691 116.63 12.4016C116.74 12.4341 116.899 12.4754 117.102 12.5252C117.306 12.5751 117.484 12.625 117.638 12.6684C118.308 12.8593 118.807 13.0979 119.135 13.3863C119.462 13.6726 119.627 14.0848 119.627 14.6205C119.627 15.0087 119.547 15.3493 119.389 15.6399C119.23 15.9306 119.013 16.1583 118.742 16.3275C118.471 16.4967 118.174 16.6203 117.853 16.7006C117.532 16.7808 117.189 16.8199 116.825 16.8199C115.901 16.8199 115.179 16.6073 114.66 16.1843C114.14 15.7614 113.877 15.1627 113.871 14.3906H115.352C115.378 15.2452 115.89 15.6725 116.892 15.6725C117.28 15.6725 117.588 15.5922 117.814 15.4295C118.039 15.2669 118.152 15.0456 118.152 14.7658C118.152 14.5294 118.048 14.358 117.842 14.2496C117.634 14.1411 117.2 13.9915 116.536 13.8006C116.497 13.7941 116.469 13.7876 116.45 13.7811C116.43 13.7746 116.404 13.7659 116.374 13.7572C116.343 13.7486 116.313 13.7399 116.287 13.7334C116.057 13.6705 115.899 13.6228 115.81 13.5946C115.721 13.5664 115.58 13.5165 115.385 13.4471C115.189 13.3777 115.048 13.3126 114.959 13.2562C114.871 13.1998 114.76 13.1195 114.63 13.0176C114.5 12.9157 114.404 12.8094 114.348 12.6966C114.291 12.586 114.237 12.4472 114.189 12.2845C114.142 12.1218 114.118 11.9461 114.118 11.7531C114.118 11.1349 114.356 10.6404 114.836 10.2716C115.313 9.90292 115.949 9.71638 116.738 9.71638C117.528 9.71638 118.128 9.89641 118.612 10.2565C119.096 10.6165 119.345 11.1588 119.358 11.8854H117.944L117.942 11.8832Z" fill="#282A74"/>
<path d="M21.7531 17.2081C21.5081 17.0867 21.2174 17.2645 21.2174 17.5378C21.2131 18.9433 21.1979 20.2881 21.2283 21.6329C21.2478 22.5395 20.8226 23.162 20.0527 23.4809C19.4865 23.7151 18.8727 23.8366 18.2415 23.9841C18.0116 24.0383 17.7904 23.8648 17.7926 23.6284C17.8121 20.1276 17.8316 16.6268 17.8598 13.1261C17.8598 12.9612 17.901 12.7595 18.0008 12.6424C18.632 11.8854 19.2762 11.1393 19.9464 10.3606C20.1416 10.1328 20.5125 10.2196 20.5862 10.5102C20.8747 11.6555 21.4452 12.612 22.3214 13.3928C23.7898 14.7008 25.4903 15.1758 27.3709 14.512C29.2731 13.8397 30.4682 12.4493 30.8283 10.4604C31.2273 8.24797 30.3511 6.50626 28.5204 5.28945C26.6442 4.04011 24.677 4.09433 22.8225 5.32416C22.0113 5.86207 21.2955 6.58869 20.6535 7.33265C18.6298 9.67517 16.643 12.0524 14.6757 14.4448C13.3483 16.0585 11.8278 17.3946 9.76508 17.9261C6.67642 18.7221 4.07145 17.7352 1.89378 15.5336C0.208461 13.8245 -0.405366 11.6923 -0.375 9.32813C-0.318606 5.20053 2.9696 1.42429 7.31845 0.890719C10.4765 0.502468 13.2181 1.41996 15.3307 3.90563C15.3633 3.9425 15.3915 3.98155 15.424 4.02493C15.5303 4.16808 15.5194 4.36763 15.3958 4.49777C14.7386 5.19619 14.0792 5.89461 13.4047 6.61038C13.2507 6.77522 12.9839 6.76438 12.8451 6.58869C12.1119 5.65168 11.2335 4.97712 10.1295 4.60839C7.06034 3.58462 3.61813 5.83821 3.18216 9.06135C2.83078 11.6576 4.62021 14.2236 7.09504 14.6248C8.36824 14.8309 9.57421 14.5966 10.5025 13.6488C11.5068 12.6228 12.4395 11.5275 13.3851 10.4452C15.424 8.11349 17.3653 5.68855 19.5104 3.46099C21.4777 1.41779 24.0024 0.491623 26.8633 0.875536C30.7914 1.4026 33.7217 4.49994 34.303 7.97251C34.804 10.9592 34.0731 13.5772 31.9258 15.7375C29.3165 18.362 25.3147 18.9867 21.9917 17.3252C21.9137 17.2862 21.8356 17.2472 21.7531 17.2059V17.2081Z" fill="#282A74"/>
</g>
<defs>
<clipPath id="clip0_2788_9894">
<rect width="120" height="24.2581" fill="white" transform="translate(-0.375 0.790945)"/>
</clipPath>
</defs>
</svg>
