<svg width="64" height="44" viewBox="0 0 64 44" fill="none" xmlns="http://www.w3.org/2000/svg">
<g clip-path="url(#clip0_2788_9945)">
<path d="M40.6587 30.8482C40.2082 30.6245 39.6769 30.9507 39.6738 31.454C39.6645 34.0357 39.6365 36.5056 39.6924 38.9786C39.7297 40.6439 38.9468 41.7872 37.5332 42.3744C36.4924 42.8062 35.3647 43.0268 34.2058 43.2971C33.7833 43.3965 33.3794 43.0765 33.3794 42.6447C33.4136 36.2105 33.4509 29.7794 33.5006 23.3452C33.5006 23.0439 33.5752 22.6742 33.7585 22.4536C34.9173 21.0649 36.101 19.6948 37.3344 18.2625C37.6948 17.8462 38.3752 18.0047 38.5088 18.539C39.04 20.6423 40.087 22.4008 41.6963 23.833C44.3961 26.2346 47.5216 27.1076 50.9732 25.8866C54.4684 24.6532 56.6649 22.0963 57.3235 18.4396C58.0567 14.3759 56.4474 11.1728 53.0858 8.93592C49.6404 6.64311 46.0241 6.73942 42.6159 9.00117C41.1247 9.98913 39.8105 11.3251 38.6299 12.692C34.9111 16.9981 31.2606 21.3662 27.6474 25.7623C25.2086 28.7293 22.4124 31.1837 18.6253 32.1592C12.9491 33.6225 8.16467 31.8113 4.16312 27.7631C1.07496 24.6315 -0.0559091 20.7169 1.32257e-05 16.3705C0.102538 8.7868 6.14215 1.84932 14.1359 0.867575C19.9394 0.156119 24.9755 1.84 28.859 6.40699C28.9181 6.47534 28.9709 6.5468 29.0299 6.62447C29.2256 6.88855 29.2039 7.25515 28.9771 7.49437C27.7686 8.77748 26.5569 10.0606 25.3204 11.3748C25.0377 11.6761 24.5468 11.6606 24.2921 11.3344C22.9437 9.6101 21.3313 8.37049 19.2994 7.69631C13.6606 5.8167 7.33516 9.95495 6.53361 15.8765C5.88739 20.6485 9.17749 25.3616 13.7258 26.0979C16.0653 26.4769 18.2835 26.0451 19.986 24.3052C21.8315 22.4225 23.5433 20.4062 25.2831 18.421C29.0299 14.1367 32.5965 9.68156 36.539 5.5868C40.1554 1.83379 44.7938 0.137478 50.0505 0.839614C57.2707 1.80583 62.6517 7.50059 63.7235 13.8788C64.6431 19.3685 63.301 24.1748 59.3554 28.1484C54.5585 32.9732 47.2078 34.1165 41.0998 31.0687C40.9569 30.9973 40.814 30.9258 40.6618 30.8513L40.6587 30.8482Z" fill="#282A74"/>
</g>
<defs>
<clipPath id="clip0_2788_9945">
<rect width="64" height="42.6315" fill="white" transform="translate(0 0.684273)"/>
</clipPath>
</defs>
</svg>
