<svg width="37" height="25" viewBox="0 0 37 25" fill="none" xmlns="http://www.w3.org/2000/svg">
<g clip-path="url(#clip0_2789_9965)">
<path d="M23.3705 17.7406C23.1171 17.6147 22.8183 17.7982 22.8165 18.0813C22.8113 19.5336 22.7955 20.9229 22.827 22.314C22.848 23.2507 22.4076 23.8938 21.6124 24.2241C21.027 24.467 20.3926 24.5911 19.7408 24.7431C19.5031 24.799 19.2759 24.619 19.2759 24.3761C19.2952 20.7569 19.3161 17.1394 19.3441 13.5202C19.3441 13.3507 19.386 13.1427 19.4891 13.0186C20.141 12.2375 20.8068 11.4668 21.5006 10.6612C21.7033 10.427 22.086 10.5161 22.1612 10.8167C22.46 11.9998 23.0489 12.9889 23.9542 13.7946C25.4728 15.1454 27.2309 15.6365 29.1724 14.9497C31.1385 14.2559 32.374 12.8177 32.7445 10.7608C33.1569 8.47494 32.2517 6.67319 30.3608 5.41494C28.4227 4.12523 26.3886 4.17941 24.4715 5.45164C23.6326 6.00737 22.8934 6.75882 22.2293 7.52776C20.1375 9.94989 18.0841 12.407 16.0517 14.8798C14.6798 16.5487 13.107 17.9293 10.9767 18.478C7.78389 19.3012 5.09263 18.2823 2.84176 16.0052C1.10467 14.2437 0.468551 12.0417 0.500007 9.59688C0.557677 5.33106 3.95496 1.42873 8.45146 0.876494C11.7159 0.476299 14.5487 1.42348 16.7332 3.99242C16.7664 4.03086 16.7961 4.07106 16.8293 4.11475C16.9394 4.26329 16.9272 4.4695 16.7996 4.60407C16.1198 5.32581 15.4383 6.04756 14.7427 6.78679C14.5837 6.9563 14.3076 6.94756 14.1643 6.76407C13.4058 5.79416 12.4988 5.09688 11.3559 4.71766C8.18409 3.66038 4.62603 5.98814 4.17515 9.31902C3.81166 12.0033 5.66234 14.6544 8.22079 15.0685C9.53671 15.2817 10.7845 15.0388 11.7421 14.0602C12.7802 13.0012 13.7431 11.867 14.7218 10.7503C16.8293 8.34038 18.8355 5.83436 21.0532 3.53106C23.0874 1.41999 25.6965 0.465814 28.6534 0.860765C32.7148 1.40426 35.7416 4.60756 36.3445 8.19533C36.8618 11.2833 36.1068 13.9868 33.8874 16.2219C31.1891 18.9359 27.0544 19.579 23.6187 17.8647C23.5383 17.8245 23.4579 17.7843 23.3722 17.7423L23.3705 17.7406Z" fill="#F8FAFC"/>
</g>
<defs>
<clipPath id="clip0_2789_9965">
<rect width="36" height="23.9802" fill="white" transform="translate(0.5 0.772461)"/>
</clipPath>
</defs>
</svg>
