<svg width="120" height="38" viewBox="0 0 120 38" fill="none" xmlns="http://www.w3.org/2000/svg">
<g clip-path="url(#clip0_2699_20916)">
<g clip-path="url(#clip1_2699_20916)">
<g clip-path="url(#clip2_2699_20916)">
<path d="M34.9823 28.3813L35.8608 32.0903L36.8639 28.3813H37.5065L38.4988 32.0903L39.4098 28.3813H39.9954L38.8106 32.8197H38.1924L37.1703 29.1025L36.1346 32.8197H35.5164L34.375 28.3813H34.9796H34.9823Z" fill="white"/>
<path d="M40.993 30.0596C41.2289 29.7017 41.5814 29.5228 42.0477 29.5228C42.7716 29.5228 43.1322 29.8888 43.1322 30.6208V32.8224H42.6035V30.7455C42.6035 30.5015 42.552 30.3117 42.4517 30.1816C42.3514 30.0515 42.167 29.9864 41.8986 29.9864C41.5733 29.9864 41.3428 30.0894 41.2045 30.2982C41.0663 30.5069 40.9958 30.8025 40.9958 31.1902V32.8224H40.4644V28.384H40.9958V30.0623L40.993 30.0596Z" fill="white"/>
<path d="M45.2766 32.9281C44.8021 32.9281 44.4306 32.7817 44.1649 32.4862C43.8965 32.1907 43.7637 31.7813 43.7637 31.258C43.7637 30.7347 43.9019 30.3172 44.1785 29.9946C44.455 29.6719 44.8156 29.512 45.2603 29.512C45.7537 29.512 46.1225 29.6801 46.3611 30.0135C46.5996 30.347 46.7189 30.77 46.7189 31.2824V31.3583H44.3005L44.2951 31.3963C44.2951 31.7379 44.3845 32.0063 44.5635 32.2015C44.7424 32.3967 44.9864 32.4943 45.2982 32.4943C45.5314 32.4943 45.7158 32.4401 45.8513 32.3317C45.9869 32.2232 46.0899 32.0497 46.1658 31.8084H46.6837C46.521 32.5567 46.0547 32.9309 45.282 32.9309L45.2766 32.9281ZM45.8866 30.206C45.7239 30.0325 45.5097 29.9485 45.244 29.9485C44.9783 29.9485 44.7723 30.0352 44.6014 30.2115C44.4306 30.3877 44.3303 30.6263 44.2951 30.9272H46.1658C46.1414 30.6209 46.0465 30.3796 45.8839 30.206H45.8866Z" fill="white"/>
<path d="M48.9558 30.0786C48.9178 30.0732 48.8717 30.0732 48.8175 30.0732C48.6467 30.0732 48.5003 30.1003 48.3756 30.1518C48.2508 30.2033 48.1532 30.2711 48.08 30.3551C48.0068 30.4392 47.9472 30.5422 47.9038 30.6669C47.8577 30.7916 47.8279 30.9164 47.8143 31.0411C47.8008 31.1658 47.7926 31.3068 47.7926 31.464V32.8224H47.2612V29.6041H47.7655V30.2955C47.977 29.7858 48.3728 29.5282 48.9558 29.5282V30.0759V30.0786Z" fill="white"/>
<path d="M50.5908 32.9281C50.1163 32.9281 49.7449 32.7817 49.4765 32.4862C49.208 32.1907 49.0752 31.7813 49.0752 31.258C49.0752 30.7347 49.2135 30.3172 49.49 29.9946C49.7666 29.6719 50.1272 29.512 50.5718 29.512C51.068 29.512 51.434 29.6801 51.6726 30.0135C51.9112 30.347 52.0305 30.77 52.0305 31.2824V31.3583H49.612L49.6066 31.3963C49.6066 31.7379 49.6961 32.0063 49.875 32.2015C50.054 32.3967 50.298 32.4943 50.6098 32.4943C50.8429 32.4943 51.0273 32.4401 51.1629 32.3317C51.2984 32.2232 51.4014 32.0497 51.4774 31.8084H51.9952C51.8325 32.5567 51.3662 32.9309 50.5935 32.9309L50.5908 32.9281ZM51.2008 30.206C51.0381 30.0325 50.824 29.9485 50.5583 29.9485C50.2925 29.9485 50.0865 30.0352 49.9157 30.2115C49.7449 30.3877 49.6446 30.6263 49.6093 30.9272H51.4801C51.4557 30.6209 51.3608 30.3796 51.2008 30.206Z" fill="white"/>
<path d="M57.5942 32.4563C57.2553 32.7708 56.8106 32.9281 56.2575 32.9281C55.6258 32.9281 55.1242 32.7193 54.7555 32.3018C54.3868 31.8842 54.1997 31.3203 54.1997 30.6099C54.1997 29.9457 54.3868 29.3899 54.7582 28.9479C55.1297 28.506 55.6448 28.2837 56.3009 28.2837C56.77 28.2837 57.1848 28.4111 57.5427 28.6633C57.9006 28.9181 58.0985 29.2679 58.1419 29.7179H57.5562C57.4912 29.4278 57.3448 29.2001 57.1197 29.0347C56.8947 28.8693 56.6181 28.788 56.2901 28.788C55.7966 28.788 55.4225 28.9615 55.1703 29.3113C54.9182 29.661 54.7935 30.0921 54.7935 30.6018C54.7935 31.1658 54.9263 31.6131 55.192 31.9357C55.4577 32.2611 55.821 32.4211 56.2847 32.4211C56.6615 32.4211 56.9652 32.3126 57.1875 32.093C57.4098 31.8734 57.5481 31.5589 57.5915 31.1414H58.1771C58.1283 31.7026 57.9331 32.1391 57.5942 32.4536V32.4563Z" fill="white"/>
<path d="M61.6771 32.8088C61.5686 32.8495 61.4493 32.8712 61.3165 32.8712C61.0128 32.8712 60.8583 32.7139 60.8501 32.3967C60.5465 32.7383 60.1588 32.9064 59.6843 32.9064C59.3671 32.9064 59.1177 32.8251 58.9333 32.6624C58.7489 32.4997 58.6567 32.2774 58.6567 31.9954C58.6567 31.4207 59.0363 31.0872 59.7982 30.9923C59.847 30.9841 59.9202 30.976 60.0151 30.9679C60.3757 30.9272 60.598 30.8784 60.682 30.8242C60.7769 30.7564 60.8257 30.6425 60.8257 30.4826C60.8257 30.1301 60.5817 29.9539 60.0964 29.9539C59.847 29.9539 59.6572 30.0054 59.5298 30.1057C59.4023 30.2087 59.3237 30.3741 59.2993 30.6073H58.7815C58.7896 30.263 58.9116 29.9945 59.1502 29.802C59.3888 29.6095 59.7141 29.5146 60.1289 29.5146C60.5817 29.5146 60.9179 29.6177 61.1375 29.8264C61.208 29.8942 61.2595 29.981 61.2921 30.0894C61.3246 30.1979 61.3436 30.2846 61.349 30.3551C61.3544 30.4229 61.3544 30.5259 61.3544 30.6642C61.3544 30.8215 61.349 31.0601 61.3409 31.38C61.3327 31.6999 61.33 31.9385 61.33 32.0958C61.33 32.2123 61.3463 32.2937 61.3761 32.3425C61.4087 32.3913 61.4656 32.413 61.5469 32.413C61.5795 32.413 61.6229 32.4076 61.6771 32.394V32.8061V32.8088ZM60.7037 31.2254C60.6631 31.2471 60.6088 31.2634 60.5438 31.2743C60.4787 31.2851 60.4353 31.2959 60.4136 31.3014C60.3919 31.3068 60.335 31.3149 60.2482 31.3258C60.1615 31.3366 60.1154 31.342 60.11 31.342C59.9825 31.3583 59.8958 31.3691 59.8578 31.3773C59.8199 31.3827 59.744 31.4017 59.6328 31.4315C59.5216 31.4613 59.4457 31.4939 59.3996 31.5318C59.3535 31.5698 59.3102 31.624 59.2668 31.6972C59.2234 31.7704 59.2017 31.8572 59.2017 31.9548C59.2017 32.1202 59.2586 32.253 59.3725 32.3479C59.4864 32.4428 59.6436 32.4916 59.8443 32.4916C60.0991 32.4916 60.3242 32.4157 60.5248 32.2666C60.7254 32.1175 60.823 31.9412 60.823 31.7352V31.1495C60.7851 31.1794 60.7471 31.2038 60.7037 31.2254Z" fill="white"/>
<path d="M63.8518 30.0786C63.8138 30.0732 63.7677 30.0732 63.7135 30.0732C63.5427 30.0732 63.3963 30.1003 63.2716 30.1518C63.1468 30.2033 63.0492 30.2711 62.976 30.3551C62.9028 30.4392 62.8432 30.5422 62.7998 30.6669C62.7537 30.7916 62.7239 30.9164 62.7103 31.0411C62.6968 31.1658 62.6886 31.3068 62.6886 31.464V32.8224H62.1572V29.6041H62.6615V30.2955C62.873 29.7858 63.2688 29.5282 63.8518 29.5282V30.0759V30.0786Z" fill="white"/>
<path d="M65.4863 32.9281C65.0118 32.9281 64.6404 32.7817 64.372 32.4862C64.1036 32.1907 63.9707 31.7813 63.9707 31.258C63.9707 30.7347 64.109 30.3172 64.3855 29.9946C64.6621 29.6719 65.0227 29.512 65.4673 29.512C65.9635 29.512 66.3295 29.6801 66.5681 30.0135C66.8067 30.347 66.926 30.77 66.926 31.2824V31.3583H64.5075L64.5021 31.3963C64.5021 31.7379 64.5916 32.0063 64.7705 32.2015C64.9495 32.3967 65.1935 32.4943 65.5053 32.4943C65.7384 32.4943 65.9228 32.4401 66.0584 32.3317C66.1939 32.2232 66.297 32.0497 66.3729 31.8084H66.8907C66.728 32.5567 66.2617 32.9309 65.489 32.9309L65.4863 32.9281ZM66.099 30.206C65.9364 30.0325 65.7222 29.9485 65.4565 29.9485C65.1908 29.9485 64.9847 30.0352 64.8139 30.2115C64.6431 30.3877 64.5428 30.6263 64.5075 30.9272H66.3783C66.3539 30.6209 66.259 30.3796 66.099 30.206Z" fill="white"/>
<path d="M68.8347 32.9281C68.3602 32.9281 67.9887 32.7817 67.723 32.4862C67.4546 32.1907 67.3218 31.7813 67.3218 31.258C67.3218 30.7347 67.4601 30.3172 67.7366 29.9946C68.0132 29.6719 68.3737 29.512 68.8184 29.512C69.3118 29.512 69.6806 29.6801 69.9192 30.0135C70.1578 30.347 70.277 30.77 70.277 31.2824V31.3583H67.8586L67.8532 31.3963C67.8532 31.7379 67.9427 32.0063 68.1216 32.2015C68.3005 32.3967 68.5446 32.4943 68.8563 32.4943C69.0895 32.4943 69.2739 32.4401 69.4094 32.3317C69.545 32.2232 69.648 32.0497 69.724 31.8084H70.2418C70.0791 32.5567 69.6128 32.9309 68.8401 32.9309L68.8347 32.9281ZM69.4474 30.206C69.2847 30.0325 69.0705 29.9485 68.8048 29.9485C68.5391 29.9485 68.3331 30.0352 68.1623 30.2115C67.9915 30.3877 67.8911 30.6263 67.8559 30.9272H69.7267C69.7023 30.6209 69.6074 30.3796 69.4447 30.206H69.4474Z" fill="white"/>
<path d="M72.5139 30.0786C72.4759 30.0732 72.4298 30.0732 72.3756 30.0732C72.2048 30.0732 72.0584 30.1003 71.9337 30.1518C71.8089 30.2033 71.7113 30.2711 71.6381 30.3551C71.5649 30.4392 71.5053 30.5422 71.4619 30.6669C71.4158 30.7916 71.386 30.9164 71.3724 31.0411C71.3589 31.1658 71.3507 31.3068 71.3507 31.464V32.8224H70.8193V29.6041H71.3236V30.2955C71.5351 29.7858 71.9309 29.5282 72.5139 29.5282V30.0759V30.0786Z" fill="white"/>
<path d="M74.7727 30.5395C74.7401 30.1491 74.4772 29.9539 73.9864 29.9539C73.7831 29.9539 73.6231 29.9918 73.5065 30.0732C73.3899 30.1518 73.333 30.2575 73.333 30.3904C73.333 30.4283 73.3384 30.4636 73.3466 30.4988C73.3547 30.5341 73.371 30.5666 73.3927 30.591C73.4143 30.6154 73.436 30.6425 73.455 30.6615C73.474 30.6832 73.5038 30.7022 73.5472 30.7212C73.5906 30.7401 73.6231 30.7564 73.6475 30.7672C73.6692 30.7808 73.7126 30.7944 73.7722 30.8079C73.8319 30.8215 73.8753 30.8323 73.8997 30.8405C73.9241 30.8459 73.9729 30.8594 74.0461 30.8757C74.1193 30.892 74.1654 30.9028 74.1871 30.9082C74.3416 30.9408 74.4555 30.9679 74.5341 30.9896C74.6127 31.0113 74.7185 31.0492 74.8513 31.1062C74.9842 31.1631 75.0899 31.22 75.1604 31.2797C75.2309 31.3393 75.2932 31.4234 75.3502 31.5291C75.4071 31.6348 75.4342 31.7541 75.4342 31.887C75.4342 32.1988 75.3122 32.4482 75.0682 32.638C74.8242 32.8278 74.5016 32.9227 74.0976 32.9227C73.6611 32.9227 73.3249 32.8278 73.0917 32.6353C72.8558 32.4428 72.7311 32.169 72.7148 31.8057H73.2381C73.2679 32.2584 73.558 32.4862 74.1111 32.4862C74.347 32.4862 74.5368 32.4374 74.6805 32.3398C74.8242 32.2422 74.8947 32.112 74.8947 31.9494C74.8947 31.8409 74.8567 31.7514 74.7835 31.6809C74.7076 31.6104 74.6263 31.5589 74.5341 31.5291C74.4419 31.4993 74.3118 31.4613 74.141 31.4207C74.1166 31.4179 74.0976 31.4125 74.084 31.4071C74.0461 31.399 73.9674 31.38 73.8427 31.3529C73.7207 31.3258 73.6312 31.3041 73.577 31.2878C73.5228 31.2715 73.4442 31.2444 73.3439 31.2092C73.2408 31.1739 73.1649 31.136 73.1161 31.098C73.0673 31.0574 73.0104 31.0085 72.9507 30.9489C72.8911 30.8893 72.8477 30.8188 72.8233 30.7374C72.7989 30.6561 72.7853 30.5639 72.7853 30.4609C72.7853 30.1708 72.8965 29.9403 73.1188 29.7695C73.3411 29.5987 73.6394 29.5146 74.0135 29.5146C74.3877 29.5146 74.6995 29.6041 74.9408 29.7831C75.1794 29.962 75.2987 30.2142 75.2987 30.5449H74.77L74.7727 30.5395Z" fill="white"/>
<path d="M78.6769 28.3813L80.1057 32.1419L81.483 28.3813H82.2991V32.8197H81.7433V29.1161L80.3524 32.8197H79.8427L78.4274 29.1161V32.8197H77.8662V28.3813H78.6769Z" fill="white"/>
<path d="M84.5439 32.9281C84.0694 32.9281 83.698 32.7817 83.4296 32.4862C83.1612 32.1907 83.0283 31.7813 83.0283 31.258C83.0283 30.7347 83.1666 30.3172 83.4431 29.9946C83.7197 29.6719 84.0803 29.512 84.5249 29.512C85.0211 29.512 85.3871 29.6801 85.6257 30.0135C85.8643 30.347 85.9836 30.77 85.9836 31.2824V31.3583H83.5651L83.5597 31.3963C83.5597 31.7379 83.6492 32.0063 83.8281 32.2015C84.0071 32.3967 84.2511 32.4943 84.5629 32.4943C84.7961 32.4943 84.9804 32.4401 85.116 32.3317C85.2515 32.2232 85.3546 32.0497 85.4305 31.8084H85.9483C85.7857 32.5567 85.3193 32.9309 84.5466 32.9309L84.5439 32.9281ZM85.1539 30.206C84.9913 30.0325 84.7771 29.9485 84.5114 29.9485C84.2457 29.9485 84.0396 30.0352 83.8688 30.2115C83.698 30.3877 83.5977 30.6263 83.5624 30.9272H85.4332C85.4088 30.6209 85.3139 30.3796 85.1539 30.206Z" fill="white"/>
<path d="M87.8918 32.9281C87.4173 32.9281 87.0459 32.7817 86.7802 32.4862C86.5118 32.1907 86.3789 31.7813 86.3789 31.258C86.3789 30.7347 86.5172 30.3172 86.7937 29.9946C87.0703 29.6719 87.4309 29.512 87.8755 29.512C88.369 29.512 88.7377 29.6801 88.9763 30.0135C89.2149 30.347 89.3342 30.77 89.3342 31.2824V31.3583H86.9157L86.9103 31.3963C86.9103 31.7379 86.9998 32.0063 87.1787 32.2015C87.3577 32.3967 87.6017 32.4943 87.9135 32.4943C88.1466 32.4943 88.331 32.4401 88.4666 32.3317C88.6021 32.2232 88.7052 32.0497 88.7811 31.8084H89.2989C89.1363 32.5567 88.6699 32.9309 87.8972 32.9309L87.8918 32.9281ZM88.5018 30.206C88.3391 30.0325 88.125 29.9485 87.8592 29.9485C87.5935 29.9485 87.3875 30.0352 87.2167 30.2115C87.0459 30.3877 86.9456 30.6263 86.9103 30.9272H88.7811C88.7567 30.6209 88.6618 30.3796 88.4991 30.206H88.5018Z" fill="white"/>
<path d="M91.2734 30.0407H90.6308V31.9169C90.6308 32.0199 90.6308 32.0904 90.6335 32.1229C90.6362 32.1555 90.6471 32.2015 90.6687 32.2558C90.6904 32.3127 90.7257 32.348 90.7745 32.3642C90.8233 32.3805 90.8938 32.3886 90.986 32.3886C91.0646 32.3886 91.1595 32.3832 91.2734 32.3696V32.8251C91.1242 32.8414 90.9887 32.8495 90.8667 32.8495C90.7175 32.8495 90.5928 32.8333 90.4925 32.8007C90.3922 32.7682 90.3163 32.7302 90.2648 32.6896C90.2133 32.6489 90.1753 32.5757 90.1482 32.4672C90.1238 32.3615 90.1102 32.272 90.1048 32.1988C90.0994 32.1256 90.0994 32.0036 90.0994 31.8328V30.038H89.5571V29.6015H90.0994V28.6471H90.6308V29.6015H91.2734V30.038V30.0407Z" fill="white"/>
<path d="M95.5378 28.3813C95.9906 28.3813 96.3512 28.4844 96.6169 28.6904C96.8826 28.8965 97.0155 29.2191 97.0155 29.6611C97.0155 30.5558 96.5112 31.0031 95.4999 31.0031H94.2961V32.8224H93.7104V28.3841H95.5378V28.3813ZM94.2961 30.5097H95.424C95.7412 30.5097 95.9852 30.45 96.1614 30.3307C96.3377 30.2114 96.4271 30.0027 96.4271 29.699C96.4271 29.5282 96.4 29.3872 96.3431 29.2761C96.2861 29.1649 96.2048 29.0808 96.0963 29.0266C95.9879 28.9724 95.8767 28.9372 95.7602 28.9182C95.6436 28.8992 95.5053 28.8911 95.3426 28.8911H94.2961V30.5124V30.5097Z" fill="white"/>
<path d="M100.301 32.8224H99.808V32.3181C99.5342 32.7139 99.1628 32.9091 98.6991 32.9091C98.3575 32.9091 98.0945 32.817 97.9075 32.6299C97.7204 32.4428 97.6255 32.1717 97.6255 31.8192V29.6068H98.1569V31.6755C98.1569 31.9304 98.2057 32.1202 98.3033 32.253C98.4009 32.3832 98.5771 32.4482 98.8293 32.4482C99.4556 32.4482 99.7701 32.0605 99.7701 31.2878V29.6041H100.301V32.8224Z" fill="white"/>
<path d="M102.777 30.0786C102.739 30.0732 102.693 30.0732 102.639 30.0732C102.468 30.0732 102.322 30.1003 102.197 30.1518C102.072 30.2033 101.975 30.2711 101.901 30.3551C101.828 30.4392 101.768 30.5422 101.725 30.6669C101.679 30.7916 101.649 30.9164 101.636 31.0411C101.622 31.1658 101.614 31.3068 101.614 31.464V32.8224H101.083V29.6041H101.587V30.2955C101.798 29.7858 102.194 29.5282 102.777 29.5282V30.0759V30.0786Z" fill="white"/>
<path d="M103.674 30.0596C103.908 29.6882 104.268 29.5038 104.759 29.5038C105.209 29.5038 105.564 29.6556 105.827 29.9593C106.09 30.2629 106.223 30.675 106.223 31.1929C106.223 31.7107 106.093 32.1283 105.833 32.4374C105.572 32.7464 105.223 32.901 104.781 32.901C104.339 32.901 103.959 32.7248 103.702 32.3723V34.0614H103.173V29.6041H103.672V30.0596H103.674ZM103.954 30.2819C103.777 30.5042 103.688 30.8106 103.688 31.201C103.688 31.5914 103.777 31.8978 103.959 32.1201C104.141 32.3425 104.387 32.4536 104.697 32.4536C105.006 32.4536 105.239 32.3425 105.412 32.1174C105.586 31.8924 105.675 31.586 105.675 31.201C105.675 30.816 105.586 30.5042 105.41 30.2819C105.233 30.0596 104.989 29.9484 104.678 29.9484C104.366 29.9484 104.127 30.0596 103.951 30.2819H103.954Z" fill="white"/>
<path d="M109.417 29.9539C109.688 30.2494 109.824 30.6615 109.824 31.1956C109.824 31.7298 109.688 32.1636 109.417 32.4672C109.146 32.7709 108.766 32.9227 108.275 32.9227C107.785 32.9227 107.4 32.7736 107.123 32.4727C106.847 32.1717 106.706 31.7569 106.706 31.2255C106.706 30.6941 106.847 30.2792 107.129 29.9729C107.41 29.6665 107.795 29.512 108.284 29.512C108.772 29.512 109.148 29.6584 109.417 29.9539ZM107.53 30.2955C107.348 30.5233 107.256 30.8296 107.256 31.2119C107.256 31.5942 107.345 31.9141 107.527 32.1365C107.709 32.3588 107.961 32.4699 108.284 32.4699C108.606 32.4699 108.839 32.3588 109.016 32.1337C109.192 31.9087 109.281 31.5996 109.281 31.2038C109.281 30.8079 109.192 30.5178 109.01 30.2901C108.828 30.0623 108.584 29.9512 108.273 29.9512C107.961 29.9512 107.714 30.0651 107.53 30.2928V30.2955Z" fill="white"/>
<path d="M112.31 30.5395C112.277 30.1491 112.014 29.9539 111.523 29.9539C111.32 29.9539 111.16 29.9918 111.043 30.0732C110.927 30.1518 110.87 30.2575 110.87 30.3904C110.87 30.4283 110.873 30.4636 110.881 30.4988C110.889 30.5341 110.905 30.5666 110.927 30.591C110.951 30.6181 110.97 30.6425 110.989 30.6615C111.008 30.6805 111.038 30.7022 111.084 30.7212C111.127 30.7401 111.16 30.7564 111.184 30.7672C111.209 30.7781 111.249 30.7944 111.309 30.8079C111.369 30.8215 111.412 30.8323 111.437 30.8405C111.461 30.8486 111.51 30.8594 111.583 30.8757C111.656 30.892 111.702 30.9028 111.724 30.9082C111.878 30.9408 111.992 30.9679 112.071 30.9896C112.15 31.0113 112.253 31.0492 112.388 31.1062C112.524 31.1631 112.627 31.22 112.697 31.2797C112.768 31.3393 112.83 31.4234 112.887 31.5291C112.944 31.6348 112.971 31.7541 112.971 31.887C112.971 32.1988 112.849 32.4482 112.605 32.638C112.361 32.8278 112.038 32.9227 111.637 32.9227C111.201 32.9227 110.864 32.8278 110.631 32.6353C110.395 32.4428 110.271 32.169 110.254 31.8057H110.778C110.807 32.2584 111.098 32.4862 111.651 32.4862C111.889 32.4862 112.079 32.4374 112.223 32.3398C112.366 32.2422 112.437 32.112 112.437 31.9494C112.437 31.8409 112.399 31.7514 112.326 31.6809C112.253 31.6104 112.169 31.5589 112.076 31.5291C111.984 31.4993 111.854 31.4613 111.683 31.4207C111.659 31.4179 111.64 31.4125 111.626 31.4071C111.588 31.399 111.51 31.38 111.388 31.3529C111.266 31.3258 111.176 31.3041 111.122 31.2878C111.068 31.2715 110.989 31.2444 110.889 31.2092C110.789 31.1739 110.71 31.136 110.661 31.098C110.612 31.0574 110.555 31.0085 110.496 30.9489C110.436 30.8893 110.393 30.8188 110.368 30.7374C110.344 30.6561 110.33 30.5639 110.33 30.4609C110.33 30.1708 110.441 29.9403 110.664 29.7695C110.886 29.5987 111.184 29.5146 111.559 29.5146C111.933 29.5146 112.244 29.6041 112.483 29.7831C112.722 29.962 112.841 30.2142 112.841 30.5449H112.31V30.5395Z" fill="white"/>
<path d="M114.918 32.9281C114.443 32.9281 114.072 32.7817 113.804 32.4862C113.535 32.1907 113.402 31.7813 113.402 31.258C113.402 30.7347 113.541 30.3172 113.817 29.9946C114.094 29.6719 114.454 29.512 114.899 29.512C115.395 29.512 115.761 29.6801 116 30.0135C116.238 30.347 116.358 30.77 116.358 31.2824V31.3583H113.939L113.934 31.3963C113.934 31.7379 114.023 32.0063 114.202 32.2015C114.381 32.3967 114.625 32.4943 114.937 32.4943C115.17 32.4943 115.354 32.4401 115.49 32.3317C115.626 32.2232 115.729 32.0497 115.805 31.8084H116.322C116.16 32.5567 115.693 32.9309 114.921 32.9309L114.918 32.9281ZM115.528 30.206C115.365 30.0325 115.151 29.9485 114.885 29.9485C114.62 29.9485 114.414 30.0352 114.243 30.2115C114.072 30.3877 113.972 30.6263 113.936 30.9272H115.807C115.783 30.6209 115.688 30.3796 115.528 30.206Z" fill="white"/>
<path d="M41.1775 12.9246C40.5241 13.5536 39.6267 13.8681 38.488 13.8681C37.2543 13.8681 36.2593 13.4587 35.5056 12.6426C34.7519 11.8265 34.375 10.7447 34.375 9.39723C34.375 8.12294 34.7546 7.06284 35.5164 6.21965C36.2783 5.37374 37.2923 4.95349 38.5585 4.95349C39.5698 4.95349 40.4184 5.24088 41.1043 5.81296C41.7903 6.38774 42.1671 7.11436 42.2403 8.00094H40.413C40.3181 7.53189 40.1039 7.16587 39.7731 6.9083C39.4423 6.65073 39.0248 6.52059 38.5232 6.52059C38.0216 6.52059 37.5689 6.667 37.2137 6.95711C36.8585 7.24721 36.6091 7.6051 36.4654 8.02805C36.3217 8.45101 36.2512 8.91192 36.2512 9.4135C36.2512 10.2892 36.4545 10.9887 36.8612 11.512C37.2679 12.0353 37.8129 12.2956 38.4988 12.2956C39.6375 12.2956 40.2882 11.6584 40.4482 10.3841H42.3C42.2051 11.4524 41.8309 12.301 41.1775 12.93V12.9246Z" fill="white"/>
<path d="M50.4229 6.18973C51.1929 7.01395 51.5751 8.09302 51.5751 9.42154C51.5751 10.7501 51.1901 11.8264 50.4229 12.6425C49.6529 13.4586 48.6443 13.868 47.3944 13.868C46.1445 13.868 45.1196 13.4586 44.3469 12.6425C43.5742 11.8264 43.1865 10.7528 43.1865 9.42154C43.1865 8.09031 43.5715 6.99226 44.3388 6.17617C45.1088 5.36008 46.1309 4.95068 47.4052 4.95068C48.6795 4.95068 49.6529 5.36279 50.4229 6.18701V6.18973ZM45.7026 7.27151C45.285 7.7975 45.0763 8.50242 45.0763 9.38629C45.0763 10.2702 45.2823 11.0185 45.6971 11.5363C46.112 12.0542 46.6813 12.3172 47.4052 12.3253C48.1156 12.3253 48.6714 12.0623 49.0781 11.5363C49.4848 11.0103 49.6881 10.2946 49.6881 9.38629C49.6881 8.47802 49.4821 7.78665 49.0672 7.26609C48.6524 6.74553 48.0912 6.48254 47.3808 6.48254C46.6705 6.48254 46.1201 6.74553 45.7026 7.27151Z" fill="white"/>
<path d="M57.1575 5.15674C58.0007 5.15674 58.6921 5.35466 59.2262 5.75321C59.7603 6.15177 60.026 6.75638 60.026 7.56975C60.026 8.0632 59.9067 8.497 59.6681 8.86573C59.4295 9.23717 59.0988 9.50016 58.6758 9.66013C59.4078 9.81196 59.8281 10.4735 59.9311 11.6448C59.9311 11.6854 59.9393 11.8074 59.9555 12.0162C59.9718 12.225 59.9881 12.3876 60.0043 12.5124C60.0206 12.6371 60.0396 12.7862 60.064 12.9597C60.0884 13.136 60.1236 13.2824 60.1724 13.4017C60.2212 13.5209 60.2754 13.6077 60.3405 13.6646H58.4047C58.3423 13.5372 58.2935 13.3745 58.261 13.1793C58.2285 12.9841 58.2013 12.732 58.1769 12.4256C58.1525 12.1192 58.1417 11.9484 58.1417 11.9186C58.0793 11.3221 57.9275 10.9073 57.6943 10.6768C57.4585 10.4464 57.0436 10.3298 56.4444 10.3298H54.7824V13.6646H52.9307V5.15674H57.1602H57.1575ZM54.7797 8.98231H56.5475C57.0653 8.98231 57.4693 8.90098 57.7594 8.7383C58.0495 8.57563 58.1959 8.25299 58.1959 7.77581C58.1959 7.32845 58.0549 7.0275 57.773 6.86754C57.491 6.70757 57.1087 6.62895 56.6315 6.62895H54.7797V8.98231Z" fill="white"/>
<path d="M65.1639 5.15674C66.121 5.15674 66.8801 5.38448 67.4414 5.84268C68.0026 6.30089 68.2846 6.98412 68.2846 7.89239C68.2846 8.80066 68.0053 9.4595 67.4468 9.9177C66.8883 10.3759 66.159 10.6036 65.2588 10.6036H63.3474V13.6619H61.4956V5.15674H65.1639ZM63.3474 9.13686H65.0094C65.98 9.13686 66.468 8.73017 66.468 7.91679C66.468 7.10342 65.9854 6.68588 65.0229 6.68588H63.3501V9.13686H63.3474Z" fill="white"/>
<path d="M76.3203 6.18973C77.0903 7.01395 77.4726 8.09302 77.4726 9.42154C77.4726 10.7501 77.0876 11.8264 76.3203 12.6425C75.5503 13.4586 74.5417 13.868 73.2919 13.868C72.042 13.868 71.0171 13.4586 70.2444 12.6425C69.4717 11.8264 69.084 10.7528 69.084 9.42154C69.084 8.09031 69.469 6.99226 70.2363 6.17617C71.0063 5.36008 72.0257 4.95068 73.3027 4.95068C74.5797 4.95068 75.5503 5.36279 76.3203 6.18701V6.18973ZM71.6 7.27151C71.1825 7.7975 70.9737 8.50242 70.9737 9.38629C70.9737 10.2702 71.1798 11.0185 71.5946 11.5363C72.0094 12.0542 72.5788 12.3172 73.3027 12.3253C74.013 12.3253 74.5688 12.0623 74.9755 11.5363C75.3822 11.0103 75.5856 10.2946 75.5856 9.38629C75.5856 8.47802 75.3795 7.78665 74.9647 7.26609C74.5499 6.74553 73.9886 6.48254 73.2783 6.48254C72.5679 6.48254 72.0176 6.74553 71.6 7.27151Z" fill="white"/>
<path d="M83.0555 5.15674C83.8987 5.15674 84.59 5.35466 85.1241 5.75321C85.6583 6.15177 85.924 6.75638 85.924 7.56975C85.924 8.0632 85.8047 8.497 85.5661 8.86573C85.3275 9.23717 84.9967 9.50016 84.5738 9.66013C85.3058 9.81196 85.726 10.4735 85.8291 11.6448C85.8291 11.6854 85.8372 11.8074 85.8535 12.0162C85.8697 12.225 85.886 12.3876 85.9023 12.5124C85.9185 12.6371 85.9375 12.7862 85.9619 12.9597C85.9863 13.136 86.0216 13.2824 86.0704 13.4017C86.1192 13.5209 86.1734 13.6077 86.2385 13.6646H84.3026C84.2376 13.5372 84.1915 13.3745 84.1589 13.1793C84.1264 12.9841 84.0993 12.732 84.0749 12.4256C84.0505 12.1192 84.0396 11.9484 84.0396 11.9186C83.9773 11.3221 83.8255 10.9073 83.5923 10.6768C83.3564 10.4464 82.9416 10.3298 82.3424 10.3298H80.6804V13.6646H78.8286V5.15674H83.0609H83.0555ZM80.6777 8.98231H82.4454C82.9633 8.98231 83.3672 8.90098 83.6574 8.7383C83.9475 8.57563 84.0939 8.25299 84.0939 7.77581C84.0939 7.32845 83.9529 7.0275 83.6709 6.86754C83.3889 6.70757 83.0067 6.62895 82.5295 6.62895H80.6777V8.98231Z" fill="white"/>
<path d="M94.8519 13.6673H92.8916L92.222 11.7668H89.0552L88.3611 13.6673H86.4497L89.6896 5.14587H91.6146L94.8546 13.6673H94.8519ZM90.644 7.23625L89.508 10.403H91.7665L90.644 7.23625Z" fill="white"/>
<path d="M101.006 6.74553H98.4495V13.6646H96.5733V6.74553H94.0166V5.15674H101.009V6.74553H101.006Z" fill="white"/>
<path d="M108.37 6.68588H103.84V8.53767H107.999V10.0072H103.84V12.0975H108.454V13.6619H101.988V5.15674H108.37V6.68588Z" fill="white"/>
<path d="M114.262 7.69182C114.191 6.84591 113.652 6.42566 112.649 6.42566C112.218 6.42566 111.881 6.51242 111.64 6.68323C111.399 6.85404 111.277 7.09263 111.277 7.39358C111.277 7.49661 111.293 7.58879 111.326 7.66742C111.358 7.74604 111.418 7.82196 111.505 7.88974C111.591 7.95752 111.681 8.01446 111.768 8.05784C111.854 8.10122 111.984 8.15002 112.155 8.20153C112.326 8.25305 112.481 8.29914 112.622 8.33981C112.76 8.38047 112.958 8.43199 113.213 8.49435C113.467 8.55671 113.69 8.61907 113.882 8.67329C114.72 8.91188 115.344 9.21012 115.753 9.57071C116.162 9.9286 116.369 10.4437 116.369 11.1134C116.369 11.5987 116.268 12.0244 116.07 12.3877C115.872 12.751 115.601 13.0357 115.262 13.2472C114.923 13.4586 114.552 13.6132 114.151 13.7135C113.749 13.8138 113.321 13.8626 112.866 13.8626C111.711 13.8626 110.808 13.5969 110.16 13.0682C109.509 12.5395 109.181 11.7912 109.173 10.826H111.025C111.057 11.8943 111.697 12.4284 112.95 12.4284C113.435 12.4284 113.82 12.3281 114.102 12.1247C114.384 11.9214 114.525 11.6448 114.525 11.2951C114.525 10.9995 114.395 10.7854 114.137 10.6498C113.877 10.5142 113.335 10.3272 112.505 10.0886C112.456 10.0804 112.421 10.0723 112.397 10.0642C112.372 10.056 112.34 10.0452 112.302 10.0343C112.264 10.0235 112.226 10.0126 112.193 10.0045C111.906 9.92589 111.708 9.86624 111.597 9.83099C111.486 9.79575 111.309 9.73339 111.065 9.64663C110.821 9.55987 110.645 9.47853 110.534 9.40804C110.423 9.33755 110.284 9.23723 110.122 9.1098C109.959 8.98237 109.84 8.84952 109.769 8.70854C109.699 8.57026 109.631 8.39674 109.571 8.1934C109.512 7.99005 109.482 7.77044 109.482 7.52914C109.482 6.75643 109.78 6.13827 110.379 5.67736C110.976 5.21644 111.77 4.98328 112.757 4.98328C113.744 4.98328 114.495 5.20831 115.1 5.65838C115.704 6.10845 116.016 6.78897 116.032 7.69724H114.265L114.262 7.69182Z" fill="white"/>
<path d="M123.648 12.976C123.282 13.2471 122.878 13.4477 122.441 13.5833C122.005 13.7189 121.536 13.7866 121.034 13.7866C120.053 13.7866 119.253 13.5074 118.637 12.9489C118.022 12.3903 117.713 11.6692 117.713 10.7907C117.713 9.91226 118.006 9.22632 118.591 8.6678C119.177 8.11199 120.061 7.70531 121.24 7.44774C121.219 7.24439 121.205 7.09527 121.197 6.99767C121.191 6.90006 121.186 6.81059 121.186 6.72654C121.186 5.82099 121.425 5.09708 121.899 4.55483C122.374 4.01258 123.005 3.74146 123.792 3.74146C124.331 3.74146 124.751 3.86075 125.052 4.10205C125.353 4.34335 125.502 4.67684 125.502 5.09979C125.502 5.63933 125.21 6.11109 124.624 6.51507C124.038 6.91904 123.065 7.31217 121.704 7.69175C121.818 8.55935 122.043 9.38628 122.376 10.178C122.71 10.9697 123.154 11.7342 123.713 12.4717C123.957 12.225 124.144 11.9782 124.277 11.7342C124.41 11.4902 124.475 11.2652 124.475 11.0591C124.469 10.9588 124.456 10.8748 124.431 10.807C124.407 10.7419 124.38 10.7067 124.347 10.7067C124.342 10.7067 124.328 10.7148 124.307 10.7338C124.179 10.8395 124.044 10.8937 123.903 10.8937C123.748 10.8937 123.623 10.8449 123.529 10.7473C123.434 10.6497 123.385 10.5223 123.385 10.3623C123.385 10.1942 123.442 10.056 123.553 9.95022C123.664 9.84448 123.816 9.79026 124.008 9.79026C124.255 9.79026 124.464 9.89871 124.629 10.1156C124.795 10.3325 124.879 10.6091 124.879 10.9453C124.879 11.2814 124.797 11.577 124.637 11.8725C124.475 12.168 124.231 12.4636 123.905 12.7537L124.217 13.1576L124.223 13.1631C124.323 13.3122 124.374 13.4206 124.374 13.4803C124.374 13.5155 124.369 13.5426 124.355 13.5643C124.342 13.586 124.323 13.5941 124.296 13.5941C124.217 13.5941 124.136 13.5481 124.057 13.4559C124.038 13.4342 124.027 13.4206 124.025 13.4152L123.648 12.9706V12.976ZM123.455 12.6723C122.875 11.8861 122.411 11.0944 122.059 10.2973C121.707 9.50015 121.452 8.6678 121.292 7.79749C120.389 8.09301 119.703 8.51868 119.234 9.07449C118.762 9.63029 118.529 10.2918 118.529 11.0618C118.529 11.7749 118.77 12.3415 119.256 12.7618C119.741 13.1847 120.392 13.3962 121.216 13.3962C121.636 13.3962 122.029 13.3366 122.395 13.22C122.761 13.1034 123.116 12.9218 123.455 12.6723ZM121.677 7.34742C122.685 7.08985 123.453 6.75908 123.981 6.35239C124.51 5.9457 124.773 5.48479 124.773 4.97236C124.773 4.70124 124.684 4.48163 124.505 4.30811C124.326 4.13459 124.098 4.05054 123.819 4.05054C123.518 4.05054 123.219 4.1617 122.927 4.38402C122.634 4.60634 122.363 4.92627 122.121 5.34109C121.961 5.62035 121.845 5.89419 121.766 6.1626C121.688 6.43102 121.65 6.70485 121.65 6.97869C121.65 7.02749 121.65 7.07358 121.652 7.12239C121.652 7.16848 121.663 7.24168 121.677 7.34471V7.34742Z" fill="white"/>
<path d="M38.3793 15.0718C39.3363 15.0718 40.0955 15.2996 40.6567 15.7578C41.2179 16.216 41.4999 16.8992 41.4999 17.8075C41.4999 18.7158 41.2207 19.3746 40.6621 19.8328C40.1036 20.291 39.3743 20.5187 38.4742 20.5187H36.5627V23.577H34.7109V15.0664H38.3793V15.0718ZM36.5627 19.0519H38.2247C39.1953 19.0519 39.6834 18.6453 39.6834 17.8319C39.6834 17.0185 39.2008 16.601 38.2383 16.601H36.5654V19.0519H36.5627Z" fill="white"/>
<path d="M46.9739 15.0718C47.8171 15.0718 48.5085 15.2697 49.0426 15.6683C49.5767 16.0668 49.8424 16.6714 49.8424 17.4848C49.8424 17.9783 49.7231 18.4121 49.4845 18.7808C49.2459 19.1522 48.9152 19.4152 48.4922 19.5752C49.2243 19.727 49.6445 20.3886 49.7475 21.5598C49.7475 21.6005 49.7557 21.7225 49.7719 21.9313C49.7882 22.14 49.8045 22.3027 49.8207 22.4274C49.837 22.5521 49.856 22.7013 49.8804 22.8748C49.9048 23.051 49.94 23.1974 49.9888 23.3167C50.0376 23.436 50.0919 23.5228 50.1569 23.5797H48.2211C48.1587 23.4523 48.1099 23.2896 48.0774 23.0944C48.0449 22.8992 48.0177 22.647 47.9933 22.3407C47.9689 22.0343 47.9581 21.8635 47.9581 21.8337C47.8957 21.2372 47.7439 20.8224 47.5107 20.5919C47.2749 20.3615 46.86 20.2449 46.2609 20.2449H44.5989V23.5797H42.7471V15.0691H46.9766L46.9739 15.0718ZM44.5961 18.8947H46.3639C46.8817 18.8947 47.2857 18.8133 47.5758 18.6507C47.8659 18.488 48.0123 18.1653 48.0123 17.6882C48.0123 17.2408 47.8713 16.9399 47.5894 16.7799C47.3074 16.6199 46.9251 16.5413 46.4479 16.5413H44.5961V18.8947Z" fill="white"/>
<path d="M58.166 16.1048C58.936 16.929 59.3183 18.0081 59.3183 19.3366C59.3183 20.6651 58.9333 21.7415 58.166 22.5575C57.396 23.3736 56.3874 23.783 55.1376 23.783C53.8877 23.783 52.8628 23.3736 52.0901 22.5575C51.3174 21.7415 50.9297 20.6678 50.9297 19.3366C50.9297 18.0054 51.3147 16.9073 52.082 16.0912C52.852 15.2751 53.8714 14.8657 55.1484 14.8657C56.4254 14.8657 57.396 15.2778 58.166 16.1021V16.1048ZM53.4457 17.1866C53.0282 17.7125 52.8194 18.4175 52.8194 19.3013C52.8194 20.1852 53.0255 20.9335 53.4403 21.4514C53.8551 21.9692 54.4245 22.2322 55.1484 22.2403C55.8587 22.2403 56.4146 21.9773 56.8212 21.4514C57.2279 20.9254 57.4313 20.2096 57.4313 19.3013C57.4313 18.3931 57.2252 17.7017 56.8104 17.1811C56.3956 16.6606 55.8343 16.3976 55.124 16.3976C54.4136 16.3976 53.8633 16.6606 53.4457 17.1866Z" fill="white"/>
<path d="M66.5977 16.6362H62.463V18.6073H66.0608V20.0903H62.463V23.5797H60.5977V15.0691H66.5977V16.6335V16.6362Z" fill="white"/>
<path d="M74.0678 16.601H69.5373V18.4528H73.6964V19.9223H69.5373V22.0126H74.1519V23.577H67.6855V15.0664H74.0678V16.5956V16.601Z" fill="white"/>
<path d="M79.9591 17.6042C79.8886 16.7583 79.3491 16.338 78.3459 16.338C77.9148 16.338 77.5787 16.4248 77.3373 16.5956C77.0933 16.7664 76.974 17.005 76.974 17.3059C76.974 17.409 76.9903 17.5011 77.0229 17.5798C77.0554 17.6584 77.115 17.7343 77.2018 17.8021C77.2885 17.8699 77.378 17.9268 77.4648 17.9702C77.5515 18.0136 77.6817 18.0624 77.8525 18.1139C78.0233 18.1654 78.1806 18.2115 78.3188 18.2522C78.4571 18.2928 78.655 18.3443 78.9099 18.4067C79.1647 18.4691 79.3871 18.5314 79.5796 18.5856C80.4173 18.8242 81.0409 19.1225 81.4503 19.4831C81.8597 19.841 82.0658 20.3561 82.0658 21.0258C82.0658 21.5111 81.9655 21.9367 81.7675 22.3001C81.5696 22.6634 81.2985 22.948 80.9596 23.1595C80.6207 23.371 80.2492 23.5255 79.848 23.6259C79.4467 23.7262 79.0183 23.775 78.5628 23.775C77.4078 23.775 76.505 23.5093 75.857 22.9806C75.2063 22.4519 74.8783 21.7036 74.8701 20.7384H76.7219C76.7544 21.8066 77.3943 22.3407 78.6469 22.3407C79.1322 22.3407 79.5172 22.2404 79.7992 22.0371C80.0811 21.8337 80.2221 21.5572 80.2221 21.2074C80.2221 20.9119 80.092 20.6977 79.8344 20.5621C79.5768 20.4266 79.0319 20.2395 78.2022 20.0009C78.1534 19.9928 78.1182 19.9846 78.0938 19.9765C78.0694 19.9684 78.0369 19.9575 77.9989 19.9467C77.9582 19.9358 77.923 19.925 77.8904 19.9169C77.6031 19.8382 77.4051 19.7786 77.294 19.7433C77.1828 19.7081 77.0066 19.6457 76.7626 19.559C76.5186 19.4722 76.3423 19.3909 76.2312 19.3204C76.12 19.2499 75.9817 19.1496 75.8191 19.0222C75.6564 18.8947 75.5371 18.7619 75.4666 18.6209C75.3961 18.4826 75.3283 18.3091 75.2687 18.1058C75.209 17.9024 75.1792 17.6828 75.1792 17.4415C75.1792 16.6688 75.4774 16.0506 76.0766 15.5897C76.6731 15.1288 77.4675 14.8956 78.4544 14.8956C79.4413 14.8956 80.1923 15.1207 80.7969 15.5707C81.4015 16.0208 81.7133 16.6986 81.7296 17.6069H79.9618L79.9591 17.6042Z" fill="white"/>
<path d="M87.716 17.6042C87.6455 16.7583 87.1059 16.338 86.1028 16.338C85.6717 16.338 85.3355 16.4248 85.0942 16.5956C84.8502 16.7664 84.7309 17.005 84.7309 17.3059C84.7309 17.409 84.7472 17.5011 84.7797 17.5798C84.8122 17.6584 84.8719 17.7343 84.9586 17.8021C85.0454 17.8699 85.1349 17.9268 85.2216 17.9702C85.3084 18.0136 85.4385 18.0624 85.6093 18.1139C85.7801 18.1654 85.9347 18.2115 86.0757 18.2522C86.2139 18.2928 86.4119 18.3443 86.6667 18.4067C86.9216 18.4691 87.1439 18.5314 87.3364 18.5856C88.1742 18.8242 88.7978 19.1225 89.2072 19.4831C89.6166 19.841 89.8226 20.3561 89.8226 21.0258C89.8226 21.5111 89.7223 21.9367 89.5244 22.3001C89.3265 22.6634 89.0553 22.948 88.7164 23.1595C88.3775 23.371 88.0061 23.5255 87.6048 23.6259C87.2036 23.7262 86.7752 23.775 86.3197 23.775C85.1647 23.775 84.2618 23.5093 83.6139 22.9806C82.9632 22.4519 82.6351 21.7036 82.627 20.7384H84.4787C84.5113 21.8066 85.1511 22.3407 86.4037 22.3407C86.889 22.3407 87.274 22.2404 87.556 22.0371C87.838 21.8337 87.979 21.5572 87.979 21.2074C87.979 20.9119 87.8488 20.6977 87.5913 20.5621C87.3337 20.4266 86.7887 20.2395 85.9591 20.0009C85.9103 19.9928 85.875 19.9846 85.8506 19.9765C85.8262 19.9684 85.7937 19.9575 85.7557 19.9467C85.7178 19.9358 85.6798 19.925 85.6473 19.9169C85.3599 19.8382 85.162 19.7786 85.0508 19.7433C84.9397 19.7081 84.7607 19.6457 84.5194 19.559C84.2754 19.4722 84.0992 19.3909 83.988 19.3204C83.8768 19.2499 83.7386 19.1496 83.5759 19.0222C83.4132 18.8947 83.2939 18.7619 83.2234 18.6209C83.1502 18.4826 83.0852 18.3091 83.0255 18.1058C82.9659 17.9024 82.936 17.6828 82.936 17.4415C82.936 16.6688 83.2343 16.0506 83.8335 15.5897C84.4327 15.1288 85.2243 14.8956 86.2112 14.8956C87.1981 14.8956 87.9491 15.1207 88.5538 15.5707C89.1584 16.0208 89.4701 16.6986 89.4864 17.6069H87.7187L87.716 17.6042Z" fill="white"/>
<path d="M92.8215 23.5797H90.9453V15.0691H92.8215V23.5797Z" fill="white"/>
<path d="M101.335 16.1048C102.105 16.929 102.487 18.0081 102.487 19.3366C102.487 20.6651 102.102 21.7415 101.335 22.5575C100.565 23.3736 99.5562 23.783 98.3036 23.783C97.051 23.783 96.0288 23.3736 95.2561 22.5575C94.4834 21.7415 94.0957 20.6678 94.0957 19.3366C94.0957 18.0054 94.4807 16.9073 95.248 16.0912C96.018 15.2751 97.0374 14.8657 98.3144 14.8657C99.5914 14.8657 100.562 15.2778 101.332 16.1021L101.335 16.1048ZM96.6145 17.1866C96.1969 17.7125 95.9882 18.4175 95.9882 19.3013C95.9882 20.1852 96.1942 20.9335 96.609 21.4514C97.0239 21.9692 97.5932 22.2322 98.3171 22.2403C99.0275 22.2403 99.5833 21.9773 99.99 21.4514C100.397 20.9254 100.6 20.2096 100.6 19.3013C100.6 18.3931 100.394 17.7017 99.9791 17.1811C99.5643 16.6606 99.0031 16.3976 98.2927 16.3976C97.5824 16.3976 97.032 16.6606 96.6145 17.1866Z" fill="white"/>
<path d="M103.767 15.0718H105.667L109.17 20.7735V15.0718H110.962V23.5824H109.097L105.572 17.8698V23.5824H103.767V15.0718Z" fill="white"/>
<path d="M120.094 23.5797H118.133L117.464 21.6791H114.297L113.603 23.5797H111.691L114.931 15.0582H116.856L120.096 23.5797H120.094ZM115.886 17.1513L114.75 20.3181H117.008L115.886 17.1513Z" fill="white"/>
<path d="M12.1913 24.2603C11.8849 24.1084 11.5216 24.3307 11.5216 24.6724C11.5162 26.4293 11.4972 28.1102 11.5352 29.7912C11.5596 30.9245 11.0282 31.7026 10.0657 32.1012C9.35805 32.394 8.59076 32.5458 7.80179 32.7302C7.5144 32.798 7.23785 32.5811 7.24056 32.2856C7.26496 27.9096 7.28936 23.5336 7.32461 19.1577C7.32461 18.9516 7.37612 18.6995 7.50084 18.5531C8.28982 17.6068 9.09506 16.6742 9.93283 15.7008C10.1768 15.4161 10.6405 15.5246 10.7327 15.8879C11.0932 17.3194 11.8063 18.5151 12.9017 19.4912C14.7372 21.126 16.8628 21.7198 19.2134 20.8902C21.5912 20.0497 23.0851 18.3118 23.5352 15.8255C24.0341 13.0601 22.9387 10.8829 20.6504 9.36192C18.3052 7.80024 15.8461 7.86802 13.528 9.4053C12.5139 10.0777 11.6192 10.986 10.8167 11.9159C8.2871 14.8441 5.8036 17.8156 3.34449 20.8061C1.68521 22.8233 -0.21538 24.4934 -2.79378 25.1577C-6.6546 26.1527 -9.91081 24.9191 -12.6329 22.1672C-14.7396 20.0307 -15.5068 17.3655 -15.4689 14.4103C-15.3984 9.25076 -11.2881 4.53047 -5.85207 3.8635C-1.90449 3.37819 1.52253 4.52505 4.16329 7.63214C4.20396 7.67824 4.2392 7.72704 4.27987 7.78126C4.41273 7.96021 4.39917 8.20964 4.24463 8.37232C3.42312 9.24534 2.5989 10.1184 1.7557 11.0131C1.5632 11.2191 1.22972 11.2056 1.0562 10.986C0.139794 9.8147 -0.958262 8.9715 -2.33829 8.51059C-6.17471 7.23088 -10.4775 10.0479 -11.0224 14.0768C-11.4617 17.3222 -9.22487 20.5296 -6.13133 21.0312C-4.53983 21.2887 -3.03237 20.9959 -1.87195 19.8111C-0.616644 18.5287 0.549192 17.1595 1.7313 15.8066C4.27987 12.892 6.70644 9.86079 9.38787 7.07634C11.847 4.52234 15.0029 3.36463 18.579 3.84453C23.4891 4.50336 27.152 8.37503 27.8786 12.7157C28.5049 16.4491 27.5912 19.7216 24.9071 22.422C21.6454 25.7026 16.6432 26.4835 12.4895 24.4067C12.3919 24.3579 12.2943 24.3091 12.1913 24.2575V24.2603Z" fill="white"/>
</g>
</g>
</g>
<defs>
<clipPath id="clip0_2699_20916">
<rect width="120" height="37.676" fill="white"/>
</clipPath>
<clipPath id="clip1_2699_20916">
<rect width="150" height="47.095" fill="white" transform="translate(-15 -4.54749)"/>
</clipPath>
<clipPath id="clip2_2699_20916">
<rect width="150" height="30.3226" fill="white" transform="translate(-15.4688 3.73877)"/>
</clipPath>
</defs>
</svg>
