<svg width="100" height="100" viewBox="0 0 100 100" fill="none" xmlns="http://www.w3.org/2000/svg">
<path d="M29.6875 23.5761L29.7136 23.5935V23.5674C29.7136 23.5674 29.6962 23.5674 29.6875 23.5674V23.5761Z" stroke="#334155" stroke-width="0.434783" stroke-linecap="round" stroke-linejoin="round"/>
<path d="M53.926 58.9587C53.926 60.0022 53.6216 60.6978 53.0042 61.0456C52.3955 61.3935 51.6303 61.3065 50.726 60.7848C49.8216 60.263 49.0651 59.4717 48.4477 58.4109C47.839 57.3587 47.5259 56.3065 47.5259 55.2717C47.5259 54.2369 47.839 53.5326 48.4477 53.1848C49.0651 52.8369 49.8216 52.9239 50.726 53.4456C51.6303 53.9674 52.3955 54.7587 53.0042 55.8109C53.6216 56.8717 53.926 57.9239 53.926 58.9587Z" stroke="#334155" stroke-width="0.434783" stroke-linecap="round" stroke-linejoin="round"/>
<path d="M73.1169 67.3848V88.4018L69.9255 86.55V97.567L37.9343 79.0979V71.75L63.5255 86.5326V60.4631C63.5255 58.9587 63.4299 57.4544 63.2299 55.9326C63.1604 55.3239 63.0646 54.7066 62.9516 54.0892C62.5429 51.7152 61.882 49.3152 61.0038 46.9066C59.9777 44.1152 58.6472 41.3152 57.0038 38.4805C54.5516 34.2544 51.8038 30.6544 48.7516 27.6631C46.3864 25.35 43.8472 23.4109 41.1255 21.837C40.8733 21.6979 40.6298 21.5587 40.3864 21.4196C39.1864 20.7674 38.0298 20.237 36.9081 19.8109C36.8646 19.7935 36.8298 19.7848 36.7864 19.7761C34.3516 18.8631 32.0908 18.5065 29.9951 18.6892C28.3082 18.8196 26.7255 19.3152 25.2559 20.15C23.4125 21.2022 21.969 22.6718 20.8994 24.5587C19.4559 27.1413 18.7342 30.4892 18.7342 34.6022V57.0022L9.13428 51.4544V30.4457L12.3342 32.2892L12.5168 28.7587L12.5777 27.5674C13.0038 23.6457 14.056 20.4022 15.7343 17.8196C17.3865 15.2805 19.4647 13.4196 21.9517 12.2544L22.0907 12.1848C24.6211 11.037 27.5082 10.6631 30.7691 11.0892C31.1604 11.1413 31.5517 11.2022 31.943 11.2805C34.3951 11.7326 36.943 12.6457 39.5778 14.0109C40.0908 14.2805 40.6038 14.5587 41.1255 14.8631C41.9777 15.3587 42.8124 15.8805 43.6472 16.4457C43.7081 16.4805 43.7777 16.5239 43.8385 16.5674C46.482 18.3761 49.0125 20.5239 51.4472 23.0196C51.7429 23.3239 52.0385 23.6283 52.3168 23.9413C55.2211 27.0457 57.8385 30.4544 60.1603 34.1587C62.2646 37.5066 64.0647 41.0022 65.543 44.637C65.5604 44.6544 65.569 44.6718 65.569 44.6892C65.8907 45.4631 66.1951 46.237 66.4821 47.0283C67.0386 48.55 67.5342 50.0718 67.9516 51.5935C68.0038 51.75 68.0472 51.9152 68.0907 52.0718C68.2038 52.4979 68.3168 52.9152 68.4211 53.3413C69.0038 55.7152 69.4299 58.0805 69.6821 60.437L69.9255 65.5326L73.1169 67.3848Z" stroke="#334155" stroke-width="0.434783" stroke-linecap="round" stroke-linejoin="round"/>
<path d="M29.555 23.4893L28.4507 24.0458C28.8594 23.8545 29.2767 23.6979 29.7028 23.5761L29.555 23.4893Z" stroke="#334155" stroke-width="0.434783" stroke-linecap="round" stroke-linejoin="round"/>
<path d="M36.7826 19.7763C36.7826 19.7763 36.7653 19.8459 36.7566 19.8807L29.7306 23.4024L29.5479 23.4894L28.4436 24.0459L27.8349 24.3502C27.6001 24.4807 27.3653 24.6198 27.1306 24.7676C26.9219 24.9068 26.7219 25.0459 26.5219 25.2024C23.1653 27.7502 21.6523 32.1937 22.0088 38.5155C23.6175 38.6807 25.1219 38.6372 26.5219 38.3676C27.4784 38.1937 28.3913 37.9242 29.2522 37.5415L30.3914 36.9676L36.1218 34.1155V38.6633L29.4436 42.0024L29.2522 42.0981C28.7131 42.4111 28.4088 42.9763 28.3479 43.8111C28.3393 43.9328 28.3306 44.0546 28.3306 44.185C28.3306 45.2285 28.6348 46.272 29.2522 47.3328C29.8609 48.3937 30.6262 49.1763 31.5306 49.7068C31.8784 49.9068 32.2087 50.0459 32.5131 50.1068L18.7305 57.0024V34.6024C18.7305 30.4894 19.4522 27.1415 20.8957 24.5676C21.9653 22.672 23.4087 21.2024 25.2522 20.1502C26.7218 19.3155 28.3045 18.8198 29.9914 18.6894C32.0871 18.5068 34.3479 18.8633 36.7826 19.7763Z" stroke="#334155" stroke-width="0.434783" stroke-linecap="round" stroke-linejoin="round"/>
<path d="M63.5146 67.7932V86.5325L37.9233 71.7499L55.3146 63.0542L63.5146 67.7932Z" stroke="#334155" stroke-width="0.434783" stroke-linecap="round" stroke-linejoin="round"/>
<path d="M90.5045 58.6891L80.9132 63.4892L73.1132 67.3847L69.9219 65.5326L80.9132 60.0369L87.3132 56.8369L90.5045 58.6891Z" stroke="#334155" stroke-width="0.434783" stroke-linecap="round" stroke-linejoin="round"/>
<path d="M12.5168 28.7588L12.3342 32.2892L9.13428 30.4457L12.5168 28.7588Z" stroke="#334155" stroke-width="0.434783" stroke-linecap="round" stroke-linejoin="round"/>
<path d="M34.7311 47.8808C34.7311 48.3678 34.6616 48.7765 34.5225 49.1069C34.3746 49.4895 34.1312 49.7765 33.8095 49.9678C33.4356 50.1765 33.0094 50.2286 32.5225 50.1069C32.2181 50.046 31.8877 49.9069 31.5398 49.7069C30.6355 49.1765 29.8703 48.3938 29.2616 47.333C28.6442 46.2721 28.3398 45.2286 28.3398 44.1852C28.3398 44.0547 28.3486 43.933 28.3573 43.8112C28.4182 42.9765 28.7225 42.4112 29.2616 42.0982L29.453 42.0025C30.0269 41.7765 30.7225 41.8895 31.5398 42.3591C32.4442 42.8895 33.2007 43.6721 33.8181 44.733C34.3485 45.6634 34.6529 46.5765 34.7225 47.4895C34.7311 47.6199 34.7398 47.7504 34.7398 47.8808H34.7311Z" stroke="#334155" stroke-width="0.434783" stroke-linecap="round" stroke-linejoin="round"/>
<path d="M60.3235 55.4021C58.0366 54.0542 55.8366 52.4368 53.7235 50.5499C51.3931 48.4716 49.1757 46.0716 47.054 43.3412C47.0105 43.289 46.967 43.2282 46.9235 43.176C45.0801 40.7847 43.4453 38.3064 41.9931 35.7238C41.3235 34.5499 40.7061 33.3412 40.1234 32.1151C39.1408 30.0803 38.2801 27.976 37.5322 25.8195C37.2018 27.5064 36.7322 29.0369 36.1235 30.4108C35.1583 32.6108 33.8279 34.4021 32.1322 35.776C31.5757 36.2282 31.0018 36.6282 30.3931 36.9673L29.2539 37.5412C28.393 37.9238 27.4801 38.1934 26.5235 38.3673C25.1235 38.6369 23.6192 38.6803 22.0105 38.5151C21.654 32.1934 23.167 27.7499 26.5235 25.2021C26.7235 25.0455 26.9235 24.9064 27.1322 24.7673C27.367 24.6195 27.6019 24.4803 27.8367 24.3499L28.4453 24.0455C28.854 23.8542 29.2714 23.6977 29.6974 23.576L29.7235 23.5934V23.5673C31.6801 23.0021 33.8367 23.0542 36.2019 23.7238C37.2714 24.0369 38.3844 24.4716 39.5322 25.0282C40.1061 25.3151 40.6974 25.6195 41.2887 25.9673C42.8714 26.8803 44.3844 27.9499 45.8366 29.1673C45.8627 29.1934 45.8888 29.2108 45.9061 29.2282C48.7931 31.6716 51.4192 34.7238 53.8018 38.3847C55.8801 41.576 57.48 44.8195 58.6104 48.1064C59.4365 50.5151 60.0105 52.9499 60.3235 55.4021Z" stroke="#334155" stroke-width="0.434783" stroke-linecap="round" stroke-linejoin="round"/>
<path d="M34.525 49.1062C34.6641 48.7758 34.7336 48.3671 34.7336 47.8802C34.7336 47.7497 34.725 47.6193 34.7163 47.4888C34.6467 46.5758 34.3424 45.6628 33.812 44.7323C33.1946 43.6715 32.4381 42.8889 31.5337 42.3584C30.7163 41.8889 30.0207 41.7758 29.4468 42.0019L36.1249 38.6628L41.9945 35.7236C43.4467 38.3062 45.0815 40.7845 46.925 43.1758C46.9684 43.228 47.012 43.2888 47.0555 43.341L33.812 49.9671C34.1337 49.7758 34.3771 49.4888 34.525 49.1062Z" stroke="#334155" stroke-width="0.434783" stroke-linecap="round" stroke-linejoin="round"/>
<path d="M53.9158 58.9585C53.9158 57.9237 53.6114 56.8715 52.994 55.8107C52.3853 54.7585 51.6201 53.9672 50.7158 53.4455C49.8114 52.9237 49.0549 52.8368 48.4375 53.1846L53.7157 50.5498C55.8287 52.4368 58.0288 54.0542 60.3158 55.402L62.9418 54.0889C63.0548 54.7063 63.1505 55.3237 63.2201 55.9324L52.994 61.0455C53.6114 60.6976 53.9158 60.002 53.9158 58.9585Z" stroke="#334155" stroke-width="0.434783" stroke-linecap="round" stroke-linejoin="round"/>
<path d="M90.5031 58.6895V79.7068L87.3117 81.3068L80.2857 84.8199L73.1118 88.4028V67.3851L80.9117 63.4895L90.5031 58.6895Z" stroke="#334155" stroke-width="0.434783" stroke-linecap="round" stroke-linejoin="round"/>
<path d="M87.3132 81.3066V88.8715L69.9219 97.5672V86.5501L73.1133 88.4019L80.2872 84.8197L87.3132 81.3066Z" stroke="#334155" stroke-width="0.434783" stroke-linecap="round" stroke-linejoin="round"/>
<path d="M40.1146 32.1155L36.1146 34.1155L30.3843 36.9676C30.993 36.6285 31.5669 36.2285 32.1234 35.7763C33.8191 34.4024 35.1494 32.6111 36.1146 30.4111C36.7233 29.0372 37.1929 27.5068 37.5233 25.8198C38.2711 27.9763 39.132 30.0807 40.1146 32.1155Z" stroke="#334155" stroke-width="0.434783" stroke-linecap="round" stroke-linejoin="round"/>
<path d="M87.3159 56.837L80.9159 60.037L69.9246 65.5327L69.6812 60.437C69.4291 58.0805 69.0029 55.7153 68.4203 53.3414C68.3159 52.9153 68.2029 52.4979 68.0898 52.0718C68.0464 51.9153 68.0029 51.7501 67.9507 51.5935C67.5333 50.0718 67.0378 48.5501 66.4812 47.0283C66.1943 46.237 65.8898 45.4631 65.5681 44.6892C65.5681 44.6718 65.5682 44.6544 65.5421 44.637C64.0638 41.0022 62.2638 37.5066 60.1594 34.1588C57.8377 30.4544 55.2203 27.0457 52.3159 23.9414C52.0377 23.6283 51.742 23.324 51.4464 23.0196C49.0116 20.524 46.4811 18.3762 43.8377 16.5675C43.7768 16.524 43.7072 16.4805 43.6464 16.4457C42.8116 15.8805 41.9768 15.3588 41.1246 14.8631C40.6029 14.5588 40.0899 14.2805 39.5769 14.0109C36.9421 12.6457 34.3943 11.7327 31.9421 11.2805C31.5508 11.2022 31.1595 11.1414 30.7682 11.0892C27.5073 10.6631 24.6203 11.037 22.0898 12.1849L38.6725 3.89786H38.6812C38.9334 3.75003 39.1856 3.62829 39.4465 3.50656C41.9769 2.34134 44.8812 1.96743 48.1595 2.39351C51.4465 2.8196 54.8985 4.07177 58.5159 6.16743C62.142 8.26308 65.5855 10.9849 68.8377 14.324C72.0898 17.6718 74.9942 21.3849 77.5507 25.4631C80.1159 29.5414 82.2204 33.8283 83.8725 38.3327C85.5247 42.837 86.5943 47.3066 87.0725 51.7414L87.3159 56.837Z" stroke="#334155" stroke-width="0.434783" stroke-linecap="round" stroke-linejoin="round"/>
<path d="M62.9463 54.0893L60.3203 55.4023C60.0073 52.9502 59.4333 50.5154 58.6072 48.1067C57.4767 44.8197 55.8768 41.5763 53.7986 38.385C51.416 34.7241 48.7898 31.6719 45.9028 29.2284C45.8854 29.211 45.8594 29.1936 45.8333 29.1676C44.3812 27.9502 42.8681 26.8806 41.2855 25.9676C40.6942 25.6197 40.1029 25.3154 39.529 25.0284C38.3812 24.4719 37.2681 24.0371 36.1986 23.7241C33.8333 23.0545 31.6767 23.0023 29.7202 23.5676V23.4023L36.755 19.8893L36.9028 19.811C38.0246 20.2371 39.1811 20.7676 40.3811 21.4197C40.6246 21.5589 40.868 21.698 41.1202 21.8371C43.842 23.411 46.3811 25.3502 48.7463 27.6632C51.7985 30.6545 54.5463 34.2545 56.9985 38.4806C58.642 41.3154 59.9724 44.1154 60.9985 46.9067C61.8767 49.3154 62.5376 51.7154 62.9463 54.0893Z" stroke="#334155" stroke-width="0.434783" stroke-linecap="round" stroke-linejoin="round"/>
</svg>
